NotoSerifGeorgian-Condensed.ufo
<glyph name="acutecomb" format="2">
  <unicode hex="0301"/>
  <anchor x="-39" y="536" name="_top"/>
  <anchor x="-19" y="766" name="top"/>
  <outline>
    <contour>
      <point x="-85" y="606" type="line"/>
      <point x="-50" y="606" type="line"/>
      <point x="-2" y="649"/>
      <point x="66" y="721"/>
      <point x="86" y="756" type="curve"/>
      <point x="86" y="766" type="line"/>
      <point x="-10" y="766" type="line"/>
      <point x="-25" y="721"/>
      <point x="-57" y="670"/>
      <point x="-85" y="619" type="curve"/>
    </contour>
  </outline>
</glyph>
<glyph name="circumflexcomb" format="2">
  <unicode hex="0302"/>
  <anchor x="0" y="536" name="_top"/>
  <anchor x="0" y="766" name="top"/>
  <outline>
    <contour>
      <point x="-123" y="606" type="line"/>
      <point x="-86" y="606" type="line"/>
      <point x="-58" y="639"/>
      <point x="-24" y="673"/>
      <point x="0" y="712" type="curve"/>
      <point x="24" y="673"/>
      <point x="58" y="639"/>
      <point x="86" y="606" type="curve"/>
      <point x="123" y="606" type="line"/>
      <point x="123" y="619" type="line"/>
      <point x="98" y="657"/>
      <point x="59" y="721"/>
      <point x="42" y="766" type="curve"/>
      <point x="-41" y="766" type="line"/>
      <point x="-58" y="721"/>
      <point x="-98" y="657"/>
      <point x="-123" y="619" type="curve"/>
    </contour>
  </outline>
</glyph>
<glyph name="macroncomb" format="2">
  <unicode hex="0304"/>
  <anchor x="1" y="536" name="_top"/>
  <anchor x="1" y="674" name="top"/>
  <outline>
    <contour>
      <point x="-114" y="627" type="line"/>
      <point x="115" y="627" type="line"/>
      <point x="115" y="684" type="line"/>
      <point x="-114" y="684" type="line"/>
    </contour>
  </outline>
</glyph>
<glyph name="dieresiscomb" format="2">
  <unicode hex="0308"/>
  <anchor x="0" y="536" name="_top"/>
  <anchor x="0" y="745" name="top"/>
  <outline>
    <contour>
      <point x="71" y="610" type="curve" smooth="yes"/>
      <point x="93" y="610"/>
      <point x="113" y="623"/>
      <point x="113" y="662" type="curve" smooth="yes"/>
      <point x="113" y="702"/>
      <point x="93" y="715"/>
      <point x="71" y="715" type="curve" smooth="yes"/>
      <point x="47" y="715"/>
      <point x="28" y="702"/>
      <point x="28" y="662" type="curve" smooth="yes"/>
      <point x="28" y="623"/>
      <point x="47" y="610"/>
    </contour>
    <contour>
      <point x="-73" y="610" type="curve" smooth="yes"/>
      <point x="-51" y="610"/>
      <point x="-30" y="623"/>
      <point x="-30" y="662" type="curve" smooth="yes"/>
      <point x="-30" y="702"/>
      <point x="-51" y="715"/>
      <point x="-73" y="715" type="curve" smooth="yes"/>
      <point x="-96" y="715"/>
      <point x="-114" y="702"/>
      <point x="-114" y="662" type="curve" smooth="yes"/>
      <point x="-114" y="623"/>
      <point x="-96" y="610"/>
    </contour>
  </outline>
</glyph>
<glyph name="An-oldgeorgian" format="2">
  <advance width="552"/>
  <unicode hex="10A0"/>
  <note>
uni10A0
</note>
  <outline>
    <contour>
      <point x="332" y="-12" type="curve" smooth="yes"/>
      <point x="449" y="-12"/>
      <point x="511" y="47"/>
      <point x="511" y="103" type="curve" smooth="yes"/>
      <point x="511" y="143"/>
      <point x="482" y="171"/>
      <point x="438" y="171" type="curve"/>
      <point x="438" y="102"/>
      <point x="407" y="40"/>
      <point x="331" y="40" type="curve" smooth="yes"/>
      <point x="220" y="40"/>
      <point x="168" y="161"/>
      <point x="168" y="325" type="curve" smooth="yes"/>
      <point x="168" y="516"/>
      <point x="227" y="668"/>
      <point x="370" y="668" type="curve" smooth="yes"/>
      <point x="410" y="668"/>
      <point x="429" y="644"/>
      <point x="432" y="596" type="curve"/>
      <point x="467" y="602"/>
      <point x="497" y="627"/>
      <point x="497" y="661" type="curve" smooth="yes"/>
      <point x="497" y="703"/>
      <point x="467" y="726"/>
      <point x="423" y="726" type="curve" smooth="yes"/>
      <point x="378" y="726"/>
      <point x="337" y="713"/>
      <point x="298" y="701" type="curve" smooth="yes"/>
      <point x="259" y="689"/>
      <point x="222" y="676"/>
      <point x="181" y="676" type="curve" smooth="yes"/>
      <point x="144" y="676"/>
      <point x="130" y="689"/>
      <point x="128" y="725" type="curve"/>
      <point x="88" y="718"/>
      <point x="63" y="697"/>
      <point x="63" y="667" type="curve" smooth="yes"/>
      <point x="63" y="636"/>
      <point x="85" y="613"/>
      <point x="123" y="613" type="curve" smooth="yes"/>
      <point x="143" y="613"/>
      <point x="163" y="615"/>
      <point x="193" y="627" type="curve"/>
      <point x="109" y="550"/>
      <point x="62" y="435"/>
      <point x="62" y="310" type="curve" smooth="yes"/>
      <point x="62" y="128"/>
      <point x="163" y="-12"/>
    </contour>
  </outline>
</glyph>
<glyph name="Ban-oldgeorgian" format="2">
  <advance width="670"/>
  <unicode hex="10A1"/>
  <note>
uni10A1
</note>
  <outline>
    <contour>
      <point x="592" y="-109" type="curve"/>
      <point x="636" y="-109"/>
      <point x="660" y="-78"/>
      <point x="660" y="-40" type="curve" smooth="yes"/>
      <point x="660" y="29"/>
      <point x="599" y="51"/>
      <point x="525" y="51" type="curve" smooth="yes"/>
      <point x="496" y="51" type="line"/>
      <point x="496" y="608" type="line" smooth="yes"/>
      <point x="496" y="657"/>
      <point x="514" y="669"/>
      <point x="539" y="669" type="curve" smooth="yes"/>
      <point x="561" y="669" type="line"/>
      <point x="561" y="714" type="line"/>
      <point x="337" y="714" type="line"/>
      <point x="337" y="669" type="line"/>
      <point x="358" y="669" type="line" smooth="yes"/>
      <point x="379" y="669"/>
      <point x="402" y="657"/>
      <point x="402" y="608" type="curve" smooth="yes"/>
      <point x="402" y="409" type="line" smooth="yes"/>
      <point x="402" y="353"/>
      <point x="351" y="293"/>
      <point x="266" y="293" type="curve" smooth="yes"/>
      <point x="165" y="293"/>
      <point x="135" y="353"/>
      <point x="135" y="478" type="curve" smooth="yes"/>
      <point x="135" y="610"/>
      <point x="172" y="668"/>
      <point x="234" y="677" type="curve"/>
      <point x="234" y="691"/>
      <point x="233" y="722"/>
      <point x="195" y="722" type="curve" smooth="yes"/>
      <point x="115" y="722"/>
      <point x="42" y="639"/>
      <point x="42" y="478" type="curve" smooth="yes"/>
      <point x="42" y="314"/>
      <point x="120" y="236"/>
      <point x="239" y="236" type="curve" smooth="yes"/>
      <point x="309" y="236"/>
      <point x="367" y="261"/>
      <point x="401" y="319" type="curve"/>
      <point x="405" y="319" type="line"/>
      <point x="403" y="296"/>
      <point x="402" y="274"/>
      <point x="402" y="252" type="curve" smooth="yes"/>
      <point x="402" y="0" type="line"/>
      <point x="512" y="0" type="line" smooth="yes"/>
      <point x="565" y="0"/>
      <point x="592" y="-23"/>
    </contour>
  </outline>
</glyph>
<glyph name="Gan-oldgeorgian" format="2">
  <advance width="691"/>
  <unicode hex="10A2"/>
  <note>
uni10A2
</note>
  <outline>
    <contour>
      <point x="545" y="51" type="curve" smooth="yes"/>
      <point x="514" y="51" type="line"/>
      <point x="514" y="608" type="line" smooth="yes"/>
      <point x="514" y="657"/>
      <point x="536" y="669"/>
      <point x="559" y="669" type="curve" smooth="yes"/>
      <point x="580" y="669" type="line"/>
      <point x="580" y="714" type="line"/>
      <point x="45" y="714" type="line"/>
      <point x="45" y="669" type="line"/>
      <point x="66" y="669" type="line" smooth="yes"/>
      <point x="89" y="669"/>
      <point x="110" y="657"/>
      <point x="110" y="608" type="curve" smooth="yes"/>
      <point x="110" y="442" type="line" smooth="yes"/>
      <point x="110" y="392"/>
      <point x="89" y="380"/>
      <point x="66" y="380" type="curve" smooth="yes"/>
      <point x="45" y="380" type="line"/>
      <point x="45" y="335" type="line"/>
      <point x="202" y="335" type="line"/>
      <point x="202" y="659" type="line"/>
      <point x="422" y="659" type="line"/>
      <point x="422" y="0" type="line"/>
      <point x="533" y="0" type="line" smooth="yes"/>
      <point x="586" y="0"/>
      <point x="614" y="-23"/>
      <point x="614" y="-109" type="curve"/>
      <point x="657" y="-109"/>
      <point x="681" y="-78"/>
      <point x="681" y="-40" type="curve" smooth="yes"/>
      <point x="681" y="29"/>
      <point x="620" y="51"/>
    </contour>
  </outline>
</glyph>
<glyph name="Don-oldgeorgian" format="2">
  <advance width="597"/>
  <unicode hex="10A3"/>
  <note>
uni10A3
</note>
  <outline>
    <contour>
      <point x="297" y="-12" type="curve" smooth="yes"/>
      <point x="465" y="-12"/>
      <point x="552" y="105"/>
      <point x="552" y="282" type="curve" smooth="yes"/>
      <point x="552" y="447"/>
      <point x="475" y="557"/>
      <point x="336" y="573" type="curve"/>
      <point x="336" y="652" type="line"/>
      <point x="369" y="661"/>
      <point x="397" y="666"/>
      <point x="411" y="666" type="curve" smooth="yes"/>
      <point x="447" y="666"/>
      <point x="472" y="650"/>
      <point x="473" y="591" type="curve"/>
      <point x="509" y="599"/>
      <point x="544" y="622"/>
      <point x="544" y="657" type="curve" smooth="yes"/>
      <point x="544" y="702"/>
      <point x="512" y="726"/>
      <point x="459" y="726" type="curve" smooth="yes"/>
      <point x="423" y="726"/>
      <point x="377" y="708"/>
      <point x="310" y="688" type="curve" smooth="yes"/>
      <point x="259" y="673"/>
      <point x="217" y="670"/>
      <point x="185" y="670" type="curve" smooth="yes"/>
      <point x="150" y="670"/>
      <point x="134" y="688"/>
      <point x="131" y="724" type="curve"/>
      <point x="91" y="716"/>
      <point x="65" y="694"/>
      <point x="65" y="667" type="curve" smooth="yes"/>
      <point x="65" y="630"/>
      <point x="88" y="606"/>
      <point x="140" y="606" type="curve" smooth="yes"/>
      <point x="161" y="606"/>
      <point x="207" y="615"/>
      <point x="263" y="633" type="curve"/>
      <point x="263" y="573" type="line"/>
      <point x="123" y="557"/>
      <point x="44" y="447"/>
      <point x="44" y="283" type="curve" smooth="yes"/>
      <point x="44" y="105"/>
      <point x="127" y="-12"/>
    </contour>
    <contour>
      <point x="297" y="41" type="curve" smooth="yes"/>
      <point x="189" y="41"/>
      <point x="144" y="129"/>
      <point x="144" y="282" type="curve" smooth="yes"/>
      <point x="144" y="434"/>
      <point x="189" y="522"/>
      <point x="298" y="522" type="curve" smooth="yes"/>
      <point x="411" y="522"/>
      <point x="452" y="434"/>
      <point x="452" y="282" type="curve" smooth="yes"/>
      <point x="452" y="129"/>
      <point x="411" y="41"/>
    </contour>
  </outline>
</glyph>
<glyph name="En-oldgeorgian" format="2">
  <advance width="615"/>
  <unicode hex="10A4"/>
  <note>
uni10A4
</note>
  <outline>
    <contour>
      <point x="422" y="0" type="line"/>
      <point x="514" y="0" type="line"/>
      <point x="514" y="608" type="line" smooth="yes"/>
      <point x="514" y="657"/>
      <point x="536" y="669"/>
      <point x="559" y="669" type="curve" smooth="yes"/>
      <point x="580" y="669" type="line"/>
      <point x="580" y="714" type="line"/>
      <point x="45" y="714" type="line"/>
      <point x="45" y="669" type="line"/>
      <point x="66" y="669" type="line" smooth="yes"/>
      <point x="89" y="669"/>
      <point x="110" y="657"/>
      <point x="110" y="608" type="curve" smooth="yes"/>
      <point x="110" y="442" type="line" smooth="yes"/>
      <point x="110" y="392"/>
      <point x="89" y="380"/>
      <point x="66" y="380" type="curve" smooth="yes"/>
      <point x="45" y="380" type="line"/>
      <point x="45" y="335" type="line"/>
      <point x="202" y="335" type="line"/>
      <point x="202" y="659" type="line"/>
      <point x="422" y="659" type="line"/>
    </contour>
  </outline>
</glyph>
<glyph name="Vin-oldgeorgian" format="2">
  <advance width="671"/>
  <unicode hex="10A5"/>
  <note>
uni10A5
</note>
  <outline>
    <contour>
      <point x="519" y="411" type="curve" smooth="yes"/>
      <point x="494" y="411" type="line"/>
      <point x="494" y="608" type="line" smooth="yes"/>
      <point x="494" y="657"/>
      <point x="516" y="669"/>
      <point x="539" y="669" type="curve" smooth="yes"/>
      <point x="560" y="669" type="line"/>
      <point x="560" y="714" type="line"/>
      <point x="25" y="714" type="line"/>
      <point x="25" y="669" type="line"/>
      <point x="46" y="669" type="line" smooth="yes"/>
      <point x="69" y="669"/>
      <point x="90" y="657"/>
      <point x="90" y="608" type="curve" smooth="yes"/>
      <point x="90" y="442" type="line" smooth="yes"/>
      <point x="90" y="392"/>
      <point x="69" y="380"/>
      <point x="46" y="380" type="curve" smooth="yes"/>
      <point x="25" y="380" type="line"/>
      <point x="25" y="335" type="line"/>
      <point x="182" y="335" type="line"/>
      <point x="182" y="659" type="line"/>
      <point x="402" y="659" type="line"/>
      <point x="402" y="0" type="line"/>
      <point x="494" y="0" type="line"/>
      <point x="494" y="360" type="line"/>
      <point x="519" y="360" type="line" smooth="yes"/>
      <point x="566" y="360"/>
      <point x="594" y="337"/>
      <point x="594" y="251" type="curve"/>
      <point x="637" y="251"/>
      <point x="661" y="282"/>
      <point x="661" y="320" type="curve" smooth="yes"/>
      <point x="661" y="389"/>
      <point x="600" y="411"/>
    </contour>
  </outline>
</glyph>
<glyph name="Zen-oldgeorgian" format="2">
  <advance width="586"/>
  <unicode hex="10A6"/>
  <note>
uni10A6
</note>
  <outline>
    <contour>
      <point x="356" y="-12" type="curve" smooth="yes"/>
      <point x="493" y="-12"/>
      <point x="556" y="106"/>
      <point x="556" y="272" type="curve" smooth="yes"/>
      <point x="556" y="448"/>
      <point x="497" y="548"/>
      <point x="380" y="548" type="curve" smooth="yes"/>
      <point x="324" y="548"/>
      <point x="284" y="526"/>
      <point x="252" y="466" type="curve"/>
      <point x="248" y="466" type="line"/>
      <point x="251" y="488"/>
      <point x="252" y="509"/>
      <point x="252" y="531" type="curve" smooth="yes"/>
      <point x="252" y="714" type="line"/>
      <point x="14" y="714" type="line"/>
      <point x="14" y="665" type="line"/>
      <point x="159" y="665" type="line"/>
      <point x="159" y="264" type="line" smooth="yes"/>
      <point x="159" y="62"/>
      <point x="219" y="-12"/>
    </contour>
    <contour>
      <point x="352" y="33" type="curve" smooth="yes"/>
      <point x="276" y="33"/>
      <point x="252" y="102"/>
      <point x="252" y="266" type="curve" smooth="yes"/>
      <point x="252" y="431"/>
      <point x="287" y="491"/>
      <point x="357" y="491" type="curve" smooth="yes"/>
      <point x="420" y="491"/>
      <point x="458" y="438"/>
      <point x="458" y="261" type="curve" smooth="yes"/>
      <point x="458" y="108"/>
      <point x="425" y="33"/>
    </contour>
  </outline>
</glyph>
<glyph name="Tan-oldgeorgian" format="2">
  <advance width="672"/>
  <unicode hex="10A7"/>
  <note>
uni10A7
</note>
  <outline>
    <contour>
      <point x="529" y="407" type="curve" smooth="yes"/>
      <point x="504" y="407" type="line"/>
      <point x="504" y="605" type="line" smooth="yes"/>
      <point x="504" y="662"/>
      <point x="521" y="674"/>
      <point x="558" y="674" type="curve" smooth="yes"/>
      <point x="579" y="674" type="line"/>
      <point x="579" y="714" type="line"/>
      <point x="331" y="714" type="line" smooth="yes"/>
      <point x="160" y="714"/>
      <point x="59" y="586"/>
      <point x="59" y="358" type="curve" smooth="yes"/>
      <point x="59" y="139"/>
      <point x="150" y="0"/>
      <point x="331" y="0" type="curve" smooth="yes"/>
      <point x="579" y="0" type="line"/>
      <point x="579" y="40" type="line"/>
      <point x="554" y="40" type="line" smooth="yes"/>
      <point x="520" y="40"/>
      <point x="504" y="54"/>
      <point x="504" y="112" type="curve" smooth="yes"/>
      <point x="504" y="360" type="line"/>
      <point x="529" y="360" type="line" smooth="yes"/>
      <point x="575" y="360"/>
      <point x="601" y="338"/>
      <point x="601" y="255" type="curve"/>
      <point x="641" y="255"/>
      <point x="663" y="282"/>
      <point x="663" y="317" type="curve" smooth="yes"/>
      <point x="663" y="385"/>
      <point x="606" y="407"/>
    </contour>
    <contour>
      <point x="407" y="48" type="line"/>
      <point x="345" y="48" type="line" smooth="yes"/>
      <point x="224" y="48"/>
      <point x="163" y="158"/>
      <point x="163" y="358" type="curve" smooth="yes"/>
      <point x="163" y="558"/>
      <point x="224" y="667"/>
      <point x="344" y="667" type="curve" smooth="yes"/>
      <point x="407" y="667" type="line"/>
    </contour>
  </outline>
</glyph>
<glyph name="In-oldgeorgian" format="2">
  <advance width="356"/>
  <unicode hex="10A8"/>
  <note>
uni10A8
</note>
  <outline>
    <contour>
      <point x="317" y="714" type="line"/>
      <point x="14" y="714" type="line"/>
      <point x="14" y="665" type="line"/>
      <point x="159" y="665" type="line"/>
      <point x="159" y="0" type="line"/>
      <point x="251" y="0" type="line"/>
      <point x="251" y="608" type="line" smooth="yes"/>
      <point x="251" y="657"/>
      <point x="271" y="669"/>
      <point x="296" y="669" type="curve" smooth="yes"/>
      <point x="317" y="669" type="line"/>
    </contour>
  </outline>
</glyph>
<glyph name="Kan-oldgeorgian" format="2">
  <advance width="567"/>
  <unicode hex="10A9"/>
  <note>
uni10A9
</note>
  <outline>
    <contour>
      <point x="335" y="0" type="line"/>
      <point x="559" y="0" type="line"/>
      <point x="559" y="45" type="line"/>
      <point x="538" y="45" type="line" smooth="yes"/>
      <point x="513" y="45"/>
      <point x="493" y="57"/>
      <point x="493" y="106" type="curve" smooth="yes"/>
      <point x="493" y="355" type="line" smooth="yes"/>
      <point x="493" y="486"/>
      <point x="435" y="574"/>
      <point x="319" y="574" type="curve" smooth="yes"/>
      <point x="263" y="574"/>
      <point x="222" y="554"/>
      <point x="189" y="499" type="curve"/>
      <point x="185" y="499" type="line"/>
      <point x="188" y="521"/>
      <point x="189" y="536"/>
      <point x="189" y="557" type="curve" smooth="yes"/>
      <point x="189" y="608" type="line" smooth="yes"/>
      <point x="189" y="657"/>
      <point x="209" y="669"/>
      <point x="234" y="669" type="curve" smooth="yes"/>
      <point x="255" y="669" type="line"/>
      <point x="255" y="714" type="line"/>
      <point x="31" y="714" type="line"/>
      <point x="31" y="669" type="line"/>
      <point x="52" y="669" type="line" smooth="yes"/>
      <point x="73" y="669"/>
      <point x="96" y="657"/>
      <point x="96" y="608" type="curve" smooth="yes"/>
      <point x="96" y="345" type="line" smooth="yes"/>
      <point x="96" y="202"/>
      <point x="154" y="117"/>
      <point x="270" y="117" type="curve" smooth="yes"/>
      <point x="326" y="117"/>
      <point x="367" y="137"/>
      <point x="400" y="192" type="curve"/>
      <point x="404" y="192" type="line"/>
      <point x="402" y="170"/>
      <point x="401" y="156"/>
      <point x="401" y="134" type="curve" smooth="yes"/>
      <point x="401" y="106" type="line" smooth="yes"/>
      <point x="401" y="57"/>
      <point x="377" y="45"/>
      <point x="355" y="45" type="curve" smooth="yes"/>
      <point x="335" y="45" type="line"/>
    </contour>
    <contour>
      <point x="294" y="175" type="curve" smooth="yes"/>
      <point x="229" y="175"/>
      <point x="189" y="240"/>
      <point x="189" y="350" type="curve" smooth="yes"/>
      <point x="189" y="461"/>
      <point x="224" y="516"/>
      <point x="296" y="516" type="curve" smooth="yes"/>
      <point x="361" y="516"/>
      <point x="401" y="469"/>
      <point x="401" y="350" type="curve" smooth="yes"/>
      <point x="401" y="247"/>
      <point x="366" y="175"/>
    </contour>
  </outline>
</glyph>
<glyph name="Las-oldgeorgian" format="2">
  <advance width="780"/>
  <unicode hex="10AA"/>
  <note>
uni10AA
</note>
  <outline>
    <contour>
      <point x="549" y="-12" type="curve" smooth="yes"/>
      <point x="686" y="-12"/>
      <point x="749" y="106"/>
      <point x="749" y="272" type="curve" smooth="yes"/>
      <point x="749" y="447"/>
      <point x="690" y="548"/>
      <point x="573" y="548" type="curve" smooth="yes"/>
      <point x="517" y="548"/>
      <point x="477" y="525"/>
      <point x="445" y="465" type="curve"/>
      <point x="441" y="465" type="line"/>
      <point x="443" y="487"/>
      <point x="444" y="509"/>
      <point x="444" y="530" type="curve" smooth="yes"/>
      <point x="444" y="608" type="line" smooth="yes"/>
      <point x="444" y="657"/>
      <point x="466" y="669"/>
      <point x="489" y="669" type="curve" smooth="yes"/>
      <point x="510" y="669" type="line"/>
      <point x="510" y="714" type="line"/>
      <point x="25" y="714" type="line"/>
      <point x="25" y="669" type="line"/>
      <point x="46" y="669" type="line" smooth="yes"/>
      <point x="69" y="669"/>
      <point x="90" y="657"/>
      <point x="90" y="608" type="curve" smooth="yes"/>
      <point x="90" y="442" type="line" smooth="yes"/>
      <point x="90" y="392"/>
      <point x="69" y="380"/>
      <point x="46" y="380" type="curve" smooth="yes"/>
      <point x="25" y="380" type="line"/>
      <point x="25" y="335" type="line"/>
      <point x="182" y="335" type="line"/>
      <point x="182" y="659" type="line"/>
      <point x="352" y="659" type="line"/>
      <point x="352" y="264" type="line" smooth="yes"/>
      <point x="352" y="62"/>
      <point x="412" y="-12"/>
    </contour>
    <contour>
      <point x="544" y="33" type="curve" smooth="yes"/>
      <point x="469" y="33"/>
      <point x="444" y="102"/>
      <point x="444" y="266" type="curve" smooth="yes"/>
      <point x="444" y="430"/>
      <point x="480" y="490"/>
      <point x="551" y="490" type="curve" smooth="yes"/>
      <point x="613" y="490"/>
      <point x="651" y="438"/>
      <point x="651" y="261" type="curve" smooth="yes"/>
      <point x="651" y="108"/>
      <point x="618" y="33"/>
    </contour>
  </outline>
</glyph>
<glyph name="Man-oldgeorgian" format="2">
  <advance width="560"/>
  <unicode hex="10AB"/>
  <note>
uni10AB
</note>
  <outline>
    <contour>
      <point x="239" y="-12" type="curve" smooth="yes"/>
      <point x="361" y="-12"/>
      <point x="439" y="53"/>
      <point x="439" y="216" type="curve" smooth="yes"/>
      <point x="439" y="387" type="line"/>
      <point x="525" y="387" type="line"/>
      <point x="525" y="436" type="line"/>
      <point x="439" y="436" type="line"/>
      <point x="439" y="608" type="line" smooth="yes"/>
      <point x="439" y="657"/>
      <point x="459" y="669"/>
      <point x="484" y="669" type="curve" smooth="yes"/>
      <point x="505" y="669" type="line"/>
      <point x="505" y="714" type="line"/>
      <point x="89" y="714" type="line"/>
      <point x="89" y="665" type="line"/>
      <point x="347" y="665" type="line"/>
      <point x="347" y="436" type="line"/>
      <point x="269" y="436" type="line" smooth="yes"/>
      <point x="105" y="436"/>
      <point x="45" y="360"/>
      <point x="45" y="216" type="curve" smooth="yes"/>
      <point x="45" y="86"/>
      <point x="98" y="-12"/>
    </contour>
    <contour>
      <point x="239" y="43" type="curve" smooth="yes"/>
      <point x="162" y="43"/>
      <point x="136" y="114"/>
      <point x="136" y="216" type="curve" smooth="yes"/>
      <point x="136" y="325"/>
      <point x="168" y="387"/>
      <point x="265" y="387" type="curve" smooth="yes"/>
      <point x="347" y="387" type="line"/>
      <point x="347" y="213" type="line" smooth="yes"/>
      <point x="347" y="82"/>
      <point x="309" y="43"/>
    </contour>
  </outline>
</glyph>
<glyph name="Nar-oldgeorgian" format="2">
  <advance width="610"/>
  <unicode hex="10AC"/>
  <note>
uni10AC
</note>
  <outline>
    <contour>
      <point x="28" y="0" type="line"/>
      <point x="264" y="0" type="line"/>
      <point x="264" y="39" type="line"/>
      <point x="244" y="39" type="line" smooth="yes"/>
      <point x="208" y="39"/>
      <point x="194" y="53"/>
      <point x="194" y="110" type="curve" smooth="yes"/>
      <point x="194" y="286" type="line" smooth="yes"/>
      <point x="194" y="387"/>
      <point x="248" y="424"/>
      <point x="299" y="424" type="curve" smooth="yes"/>
      <point x="369" y="424"/>
      <point x="408" y="388"/>
      <point x="408" y="284" type="curve" smooth="yes"/>
      <point x="408" y="0" type="line"/>
      <point x="575" y="0" type="line"/>
      <point x="575" y="39" type="line"/>
      <point x="551" y="39" type="line" smooth="yes"/>
      <point x="516" y="39"/>
      <point x="500" y="52"/>
      <point x="500" y="109" type="curve" smooth="yes"/>
      <point x="500" y="294" type="line" smooth="yes"/>
      <point x="500" y="416"/>
      <point x="423" y="474"/>
      <point x="329" y="474" type="curve" smooth="yes"/>
      <point x="260" y="474"/>
      <point x="218" y="435"/>
      <point x="195" y="397" type="curve"/>
      <point x="191" y="397" type="line"/>
      <point x="193" y="419"/>
      <point x="194" y="440"/>
      <point x="194" y="461" type="curve" smooth="yes"/>
      <point x="194" y="671" type="line"/>
      <point x="491" y="671" type="line"/>
      <point x="491" y="714" type="line"/>
      <point x="37" y="714" type="line"/>
      <point x="37" y="679" type="line"/>
      <point x="52" y="679" type="line" smooth="yes"/>
      <point x="91" y="679"/>
      <point x="103" y="663"/>
      <point x="103" y="594" type="curve" smooth="yes"/>
      <point x="103" y="110" type="line" smooth="yes"/>
      <point x="103" y="53"/>
      <point x="87" y="39"/>
      <point x="52" y="39" type="curve" smooth="yes"/>
      <point x="28" y="39" type="line"/>
    </contour>
  </outline>
</glyph>
<glyph name="On-oldgeorgian" format="2">
  <advance width="675"/>
  <unicode hex="10AD"/>
  <note>
uni10AD
</note>
  <outline>
    <contour>
      <point x="615" y="175" type="curve" smooth="yes"/>
      <point x="604" y="175"/>
      <point x="590" y="171"/>
      <point x="583" y="165" type="curve"/>
      <point x="592" y="151"/>
      <point x="594" y="139"/>
      <point x="594" y="120" type="curve" smooth="yes"/>
      <point x="594" y="86"/>
      <point x="573" y="55"/>
      <point x="536" y="55" type="curve" smooth="yes"/>
      <point x="515" y="55"/>
      <point x="495" y="64"/>
      <point x="477" y="80" type="curve"/>
      <point x="526" y="147"/>
      <point x="552" y="256"/>
      <point x="552" y="358" type="curve" smooth="yes"/>
      <point x="552" y="581"/>
      <point x="469" y="726"/>
      <point x="298" y="726" type="curve" smooth="yes"/>
      <point x="127" y="726"/>
      <point x="44" y="581"/>
      <point x="44" y="359" type="curve" smooth="yes"/>
      <point x="44" y="135"/>
      <point x="127" y="-12"/>
      <point x="297" y="-12" type="curve" smooth="yes"/>
      <point x="355" y="-12"/>
      <point x="402" y="6"/>
      <point x="439" y="38" type="curve"/>
      <point x="468" y="10"/>
      <point x="509" y="-11"/>
      <point x="551" y="-11" type="curve" smooth="yes"/>
      <point x="613" y="-11"/>
      <point x="672" y="31"/>
      <point x="672" y="96" type="curve" smooth="yes"/>
      <point x="672" y="143"/>
      <point x="650" y="175"/>
    </contour>
    <contour>
      <point x="297" y="41" type="curve" smooth="yes"/>
      <point x="189" y="41"/>
      <point x="144" y="158"/>
      <point x="144" y="358" type="curve" smooth="yes"/>
      <point x="144" y="557"/>
      <point x="189" y="674"/>
      <point x="298" y="674" type="curve" smooth="yes"/>
      <point x="409" y="674"/>
      <point x="452" y="557"/>
      <point x="452" y="358" type="curve" smooth="yes"/>
      <point x="452" y="158"/>
      <point x="411" y="41"/>
    </contour>
  </outline>
</glyph>
<glyph name="Par-oldgeorgian" format="2">
  <advance width="670"/>
  <unicode hex="10AE"/>
  <note>
uni10AE
</note>
  <outline>
    <contour>
      <point x="646" y="714" type="line"/>
      <point x="422" y="714" type="line"/>
      <point x="422" y="669" type="line"/>
      <point x="442" y="669" type="line" smooth="yes"/>
      <point x="464" y="669"/>
      <point x="487" y="657"/>
      <point x="487" y="608" type="curve" smooth="yes"/>
      <point x="487" y="215" type="line" smooth="yes"/>
      <point x="487" y="118"/>
      <point x="451" y="43"/>
      <point x="367" y="43" type="curve" smooth="yes"/>
      <point x="290" y="43"/>
      <point x="247" y="90"/>
      <point x="247" y="216" type="curve" smooth="yes"/>
      <point x="247" y="714" type="line"/>
      <point x="14" y="714" type="line"/>
      <point x="14" y="665" type="line"/>
      <point x="155" y="665" type="line"/>
      <point x="155" y="215" type="line" smooth="yes"/>
      <point x="155" y="53"/>
      <point x="237" y="-12"/>
      <point x="366" y="-12" type="curve" smooth="yes"/>
      <point x="518" y="-12"/>
      <point x="579" y="83"/>
      <point x="579" y="205" type="curve" smooth="yes"/>
      <point x="579" y="608" type="line" smooth="yes"/>
      <point x="579" y="657"/>
      <point x="599" y="669"/>
      <point x="625" y="669" type="curve" smooth="yes"/>
      <point x="646" y="669" type="line"/>
    </contour>
  </outline>
</glyph>
<glyph name="Zhar-oldgeorgian" format="2">
  <advance width="604"/>
  <unicode hex="10AF"/>
  <note>
uni10AF
</note>
  <outline>
    <contour>
      <point x="512" y="106" type="curve" smooth="yes"/>
      <point x="512" y="608" type="line" smooth="yes"/>
      <point x="512" y="657"/>
      <point x="531" y="669"/>
      <point x="556" y="669" type="curve" smooth="yes"/>
      <point x="578" y="669" type="line"/>
      <point x="578" y="714" type="line"/>
      <point x="353" y="714" type="line"/>
      <point x="353" y="669" type="line"/>
      <point x="374" y="669" type="line" smooth="yes"/>
      <point x="395" y="669"/>
      <point x="418" y="657"/>
      <point x="418" y="608" type="curve" smooth="yes"/>
      <point x="418" y="409" type="line" smooth="yes"/>
      <point x="418" y="353"/>
      <point x="367" y="293"/>
      <point x="286" y="293" type="curve" smooth="yes"/>
      <point x="181" y="293"/>
      <point x="152" y="353"/>
      <point x="152" y="476" type="curve" smooth="yes"/>
      <point x="152" y="607"/>
      <point x="177" y="672"/>
      <point x="243" y="672" type="curve"/>
      <point x="243" y="714" type="line"/>
      <point x="-15" y="714" type="line"/>
      <point x="-15" y="665" type="line"/>
      <point x="119" y="665" type="line"/>
      <point x="80" y="627"/>
      <point x="59" y="564"/>
      <point x="59" y="476" type="curve" smooth="yes"/>
      <point x="59" y="314"/>
      <point x="136" y="236"/>
      <point x="261" y="236" type="curve" smooth="yes"/>
      <point x="325" y="236"/>
      <point x="383" y="261"/>
      <point x="417" y="319" type="curve"/>
      <point x="421" y="319" type="line"/>
      <point x="419" y="296"/>
      <point x="418" y="274"/>
      <point x="418" y="252" type="curve" smooth="yes"/>
      <point x="418" y="106" type="line" smooth="yes"/>
      <point x="418" y="57"/>
      <point x="395" y="45"/>
      <point x="374" y="45" type="curve" smooth="yes"/>
      <point x="353" y="45" type="line"/>
      <point x="353" y="0" type="line"/>
      <point x="578" y="0" type="line"/>
      <point x="578" y="45" type="line"/>
      <point x="556" y="45" type="line" smooth="yes"/>
      <point x="531" y="45"/>
      <point x="512" y="57"/>
    </contour>
  </outline>
</glyph>
<glyph name="Rae-oldgeorgian" format="2">
  <advance width="762"/>
  <unicode hex="10B0"/>
  <note>
uni10B0
</note>
  <outline>
    <contour>
      <point x="246" y="-12" type="curve" smooth="yes"/>
      <point x="360" y="-12"/>
      <point x="443" y="53"/>
      <point x="443" y="206" type="curve" smooth="yes"/>
      <point x="443" y="328" type="line" smooth="yes"/>
      <point x="443" y="419"/>
      <point x="479" y="456"/>
      <point x="530" y="456" type="curve" smooth="yes"/>
      <point x="585" y="456"/>
      <point x="609" y="411"/>
      <point x="609" y="348" type="curve" smooth="yes"/>
      <point x="609" y="297"/>
      <point x="598" y="261"/>
      <point x="570" y="218" type="curve"/>
      <point x="581" y="213"/>
      <point x="593" y="210"/>
      <point x="605" y="210" type="curve" smooth="yes"/>
      <point x="663" y="210"/>
      <point x="700" y="275"/>
      <point x="700" y="353" type="curve" smooth="yes"/>
      <point x="700" y="447"/>
      <point x="638" y="506"/>
      <point x="554" y="506" type="curve" smooth="yes"/>
      <point x="500" y="506"/>
      <point x="468" y="481"/>
      <point x="445" y="443" type="curve"/>
      <point x="441" y="443" type="line"/>
      <point x="443" y="465"/>
      <point x="444" y="486"/>
      <point x="444" y="507" type="curve" smooth="yes"/>
      <point x="444" y="608" type="line" smooth="yes"/>
      <point x="444" y="657"/>
      <point x="463" y="669"/>
      <point x="488" y="669" type="curve" smooth="yes"/>
      <point x="509" y="669" type="line"/>
      <point x="509" y="714" type="line"/>
      <point x="285" y="714" type="line"/>
      <point x="285" y="669" type="line"/>
      <point x="306" y="669" type="line" smooth="yes"/>
      <point x="328" y="669"/>
      <point x="351" y="657"/>
      <point x="351" y="608" type="curve" smooth="yes"/>
      <point x="351" y="200" type="line" smooth="yes"/>
      <point x="351" y="83"/>
      <point x="308" y="43"/>
      <point x="246" y="43" type="curve" smooth="yes"/>
      <point x="168" y="43"/>
      <point x="141" y="118"/>
      <point x="141" y="206" type="curve" smooth="yes"/>
      <point x="141" y="266"/>
      <point x="152" y="308"/>
      <point x="180" y="351" type="curve"/>
      <point x="169" y="356"/>
      <point x="157" y="359"/>
      <point x="145" y="359" type="curve" smooth="yes"/>
      <point x="76" y="359"/>
      <point x="50" y="275"/>
      <point x="50" y="197" type="curve" smooth="yes"/>
      <point x="50" y="84"/>
      <point x="108" y="-12"/>
    </contour>
  </outline>
</glyph>
<glyph name="San-oldgeorgian" format="2">
  <advance width="552"/>
  <unicode hex="10B1"/>
  <note>
uni10B1
</note>
  <outline>
    <contour>
      <point x="294" y="-12" type="curve" smooth="yes"/>
      <point x="432" y="-12"/>
      <point x="490" y="84"/>
      <point x="490" y="197" type="curve" smooth="yes"/>
      <point x="490" y="275"/>
      <point x="464" y="359"/>
      <point x="395" y="359" type="curve" smooth="yes"/>
      <point x="383" y="359"/>
      <point x="371" y="356"/>
      <point x="360" y="351" type="curve"/>
      <point x="388" y="308"/>
      <point x="399" y="266"/>
      <point x="399" y="206" type="curve" smooth="yes"/>
      <point x="399" y="118"/>
      <point x="372" y="43"/>
      <point x="294" y="43" type="curve" smooth="yes"/>
      <point x="232" y="43"/>
      <point x="189" y="83"/>
      <point x="189" y="200" type="curve" smooth="yes"/>
      <point x="189" y="714" type="line"/>
      <point x="22" y="714" type="line"/>
      <point x="22" y="673" type="line"/>
      <point x="45" y="673" type="line" smooth="yes"/>
      <point x="88" y="673"/>
      <point x="97" y="665"/>
      <point x="97" y="600" type="curve" smooth="yes"/>
      <point x="97" y="206" type="line" smooth="yes"/>
      <point x="97" y="53"/>
      <point x="180" y="-12"/>
    </contour>
  </outline>
</glyph>
<glyph name="Tar-oldgeorgian" format="2">
  <advance width="515"/>
  <unicode hex="10B2"/>
  <note>
uni10B2
</note>
  <outline>
    <contour>
      <point x="368" y="-109" type="curve"/>
      <point x="411" y="-109"/>
      <point x="435" y="-78"/>
      <point x="435" y="-40" type="curve" smooth="yes"/>
      <point x="435" y="29"/>
      <point x="379" y="51"/>
      <point x="298" y="51" type="curve" smooth="yes"/>
      <point x="195" y="51" type="line"/>
      <point x="195" y="278" type="line"/>
      <point x="241" y="278" type="line" smooth="yes"/>
      <point x="404" y="278"/>
      <point x="462" y="384"/>
      <point x="462" y="506" type="curve" smooth="yes"/>
      <point x="462" y="637"/>
      <point x="398" y="714"/>
      <point x="259" y="714" type="curve" smooth="yes"/>
      <point x="28" y="714" type="line"/>
      <point x="28" y="673" type="line"/>
      <point x="44" y="673" type="line" smooth="yes"/>
      <point x="77" y="673"/>
      <point x="102" y="664"/>
      <point x="102" y="605" type="curve" smooth="yes"/>
      <point x="102" y="0" type="line"/>
      <point x="293" y="0" type="line" smooth="yes"/>
      <point x="340" y="0"/>
      <point x="368" y="-23"/>
    </contour>
    <contour>
      <point x="195" y="324" type="line"/>
      <point x="195" y="667" type="line"/>
      <point x="245" y="667" type="line" smooth="yes"/>
      <point x="331" y="667"/>
      <point x="365" y="614"/>
      <point x="365" y="502" type="curve" smooth="yes"/>
      <point x="365" y="374"/>
      <point x="327" y="324"/>
      <point x="234" y="324" type="curve" smooth="yes"/>
    </contour>
  </outline>
</glyph>
<glyph name="Un-oldgeorgian" format="2">
  <advance width="597"/>
  <unicode hex="10B3"/>
  <note>
uni10B3
</note>
  <outline>
    <contour>
      <point x="434" y="-171" type="curve" smooth="yes"/>
      <point x="519" y="-171"/>
      <point x="571" y="-122"/>
      <point x="571" y="-43" type="curve" smooth="yes"/>
      <point x="571" y="15"/>
      <point x="542" y="65"/>
      <point x="487" y="93" type="curve"/>
      <point x="529" y="157"/>
      <point x="552" y="248"/>
      <point x="552" y="358" type="curve" smooth="yes"/>
      <point x="552" y="581"/>
      <point x="469" y="726"/>
      <point x="298" y="726" type="curve" smooth="yes"/>
      <point x="127" y="726"/>
      <point x="44" y="581"/>
      <point x="44" y="359" type="curve" smooth="yes"/>
      <point x="44" y="137"/>
      <point x="127" y="-11"/>
      <point x="297" y="-11" type="curve" smooth="yes"/>
      <point x="361" y="-11"/>
      <point x="414" y="13"/>
      <point x="454" y="55" type="curve"/>
      <point x="480" y="34"/>
      <point x="491" y="3"/>
      <point x="491" y="-42" type="curve" smooth="yes"/>
      <point x="491" y="-97"/>
      <point x="466" y="-125"/>
      <point x="431" y="-125" type="curve" smooth="yes"/>
      <point x="399" y="-125"/>
      <point x="383" y="-113"/>
      <point x="375" y="-78" type="curve"/>
      <point x="340" y="-78"/>
      <point x="320" y="-94"/>
      <point x="320" y="-112" type="curve" smooth="yes"/>
      <point x="320" y="-150"/>
      <point x="364" y="-171"/>
    </contour>
    <contour>
      <point x="297" y="42" type="curve" smooth="yes"/>
      <point x="189" y="42"/>
      <point x="144" y="160"/>
      <point x="144" y="358" type="curve" smooth="yes"/>
      <point x="144" y="557"/>
      <point x="189" y="674"/>
      <point x="298" y="674" type="curve" smooth="yes"/>
      <point x="409" y="674"/>
      <point x="452" y="557"/>
      <point x="452" y="358" type="curve" smooth="yes"/>
      <point x="452" y="160"/>
      <point x="411" y="42"/>
    </contour>
  </outline>
</glyph>
<glyph name="Phar-oldgeorgian" format="2">
  <advance width="620"/>
  <unicode hex="10B4"/>
  <note>
uni10B4
</note>
  <outline>
    <contour>
      <point x="267" y="0" type="line"/>
      <point x="354" y="0" type="line"/>
      <point x="354" y="225" type="line"/>
      <point x="509" y="238"/>
      <point x="589" y="328"/>
      <point x="589" y="479" type="curve" smooth="yes"/>
      <point x="589" y="640"/>
      <point x="503" y="726"/>
      <point x="311" y="726" type="curve" smooth="yes"/>
      <point x="116" y="726"/>
      <point x="31" y="632"/>
      <point x="31" y="479" type="curve" smooth="yes"/>
      <point x="31" y="327"/>
      <point x="107" y="238"/>
      <point x="267" y="225" type="curve"/>
    </contour>
    <contour>
      <point x="267" y="270" type="line"/>
      <point x="164" y="283"/>
      <point x="120" y="348"/>
      <point x="120" y="478" type="curve" smooth="yes"/>
      <point x="120" y="589"/>
      <point x="161" y="667"/>
      <point x="267" y="681" type="curve"/>
    </contour>
    <contour>
      <point x="354" y="270" type="curve"/>
      <point x="354" y="681" type="line"/>
      <point x="456" y="668"/>
      <point x="499" y="599"/>
      <point x="499" y="478" type="curve" smooth="yes"/>
      <point x="499" y="351"/>
      <point x="458" y="283"/>
    </contour>
  </outline>
</glyph>
<glyph name="Khar-oldgeorgian" format="2">
  <advance width="516"/>
  <unicode hex="10B5"/>
  <note>
uni10B5
</note>
  <outline>
    <contour>
      <point x="413" y="510" type="curve" smooth="yes"/>
      <point x="384" y="510"/>
      <point x="350" y="502"/>
      <point x="303" y="484" type="curve"/>
      <point x="303" y="608" type="line" smooth="yes"/>
      <point x="303" y="657"/>
      <point x="323" y="669"/>
      <point x="348" y="669" type="curve" smooth="yes"/>
      <point x="369" y="669" type="line"/>
      <point x="369" y="714" type="line"/>
      <point x="144" y="714" type="line"/>
      <point x="144" y="669" type="line"/>
      <point x="165" y="669" type="line" smooth="yes"/>
      <point x="187" y="669"/>
      <point x="210" y="657"/>
      <point x="210" y="608" type="curve" smooth="yes"/>
      <point x="210" y="463" type="line"/>
      <point x="184" y="455"/>
      <point x="158" y="451"/>
      <point x="136" y="451" type="curve" smooth="yes"/>
      <point x="103" y="451"/>
      <point x="87" y="473"/>
      <point x="85" y="510" type="curve"/>
      <point x="44" y="502"/>
      <point x="19" y="480"/>
      <point x="19" y="453" type="curve" smooth="yes"/>
      <point x="19" y="415"/>
      <point x="42" y="392"/>
      <point x="93" y="392" type="curve" smooth="yes"/>
      <point x="113" y="392"/>
      <point x="157" y="401"/>
      <point x="210" y="417" type="curve"/>
      <point x="210" y="0" type="line"/>
      <point x="303" y="0" type="line"/>
      <point x="303" y="438" type="line"/>
      <point x="332" y="446"/>
      <point x="356" y="449"/>
      <point x="370" y="449" type="curve" smooth="yes"/>
      <point x="401" y="449"/>
      <point x="426" y="433"/>
      <point x="427" y="375" type="curve"/>
      <point x="462" y="382"/>
      <point x="497" y="405"/>
      <point x="497" y="441" type="curve" smooth="yes"/>
      <point x="497" y="484"/>
      <point x="465" y="510"/>
    </contour>
  </outline>
</glyph>
<glyph name="Ghan-oldgeorgian" format="2">
  <advance width="627"/>
  <unicode hex="10B6"/>
  <note>
uni10B6
</note>
  <outline>
    <contour>
      <point x="570" y="45" type="line" smooth="yes"/>
      <point x="548" y="45"/>
      <point x="525" y="57"/>
      <point x="525" y="106" type="curve" smooth="yes"/>
      <point x="525" y="501" type="line" smooth="yes"/>
      <point x="525" y="662"/>
      <point x="443" y="726"/>
      <point x="313" y="726" type="curve" smooth="yes"/>
      <point x="162" y="726"/>
      <point x="101" y="631"/>
      <point x="101" y="510" type="curve" smooth="yes"/>
      <point x="101" y="106" type="line" smooth="yes"/>
      <point x="101" y="57"/>
      <point x="78" y="45"/>
      <point x="57" y="45" type="curve" smooth="yes"/>
      <point x="36" y="45" type="line"/>
      <point x="36" y="0" type="line"/>
      <point x="256" y="0" type="line"/>
      <point x="256" y="45" type="line"/>
      <point x="238" y="45" type="line" smooth="yes"/>
      <point x="213" y="45"/>
      <point x="193" y="57"/>
      <point x="193" y="106" type="curve" smooth="yes"/>
      <point x="193" y="508" type="line" smooth="yes"/>
      <point x="193" y="604"/>
      <point x="229" y="672"/>
      <point x="314" y="672" type="curve" smooth="yes"/>
      <point x="391" y="672"/>
      <point x="434" y="631"/>
      <point x="434" y="506" type="curve" smooth="yes"/>
      <point x="434" y="106" type="line" smooth="yes"/>
      <point x="434" y="57"/>
      <point x="414" y="45"/>
      <point x="389" y="45" type="curve" smooth="yes"/>
      <point x="371" y="45" type="line"/>
      <point x="371" y="0" type="line"/>
      <point x="591" y="0" type="line"/>
      <point x="591" y="45" type="line"/>
    </contour>
  </outline>
</glyph>
<glyph name="Qar-oldgeorgian" format="2">
  <advance width="593"/>
  <unicode hex="10B7"/>
  <note>
uni10B7
</note>
  <outline>
    <contour>
      <point x="339" y="0" type="line"/>
      <point x="558" y="0" type="line"/>
      <point x="558" y="45" type="line"/>
      <point x="540" y="45" type="line" smooth="yes"/>
      <point x="515" y="45"/>
      <point x="496" y="57"/>
      <point x="496" y="106" type="curve" smooth="yes"/>
      <point x="496" y="608" type="line" smooth="yes"/>
      <point x="496" y="657"/>
      <point x="514" y="669"/>
      <point x="539" y="669" type="curve" smooth="yes"/>
      <point x="561" y="669" type="line"/>
      <point x="561" y="714" type="line"/>
      <point x="337" y="714" type="line"/>
      <point x="337" y="669" type="line"/>
      <point x="358" y="669" type="line" smooth="yes"/>
      <point x="379" y="669"/>
      <point x="402" y="657"/>
      <point x="402" y="608" type="curve" smooth="yes"/>
      <point x="402" y="409" type="line" smooth="yes"/>
      <point x="402" y="353"/>
      <point x="351" y="293"/>
      <point x="266" y="293" type="curve" smooth="yes"/>
      <point x="165" y="293"/>
      <point x="135" y="353"/>
      <point x="135" y="478" type="curve" smooth="yes"/>
      <point x="135" y="610"/>
      <point x="172" y="668"/>
      <point x="234" y="677" type="curve"/>
      <point x="234" y="691"/>
      <point x="233" y="722"/>
      <point x="195" y="722" type="curve" smooth="yes"/>
      <point x="115" y="722"/>
      <point x="42" y="639"/>
      <point x="42" y="478" type="curve" smooth="yes"/>
      <point x="42" y="314"/>
      <point x="120" y="236"/>
      <point x="239" y="236" type="curve" smooth="yes"/>
      <point x="309" y="236"/>
      <point x="367" y="261"/>
      <point x="401" y="319" type="curve"/>
      <point x="405" y="319" type="line"/>
      <point x="403" y="296"/>
      <point x="402" y="274"/>
      <point x="402" y="252" type="curve" smooth="yes"/>
      <point x="402" y="106" type="line" smooth="yes"/>
      <point x="402" y="57"/>
      <point x="381" y="45"/>
      <point x="359" y="45" type="curve" smooth="yes"/>
      <point x="339" y="45" type="line"/>
    </contour>
  </outline>
</glyph>
<glyph name="Shin-oldgeorgian" format="2">
  <advance width="565"/>
  <unicode hex="10B8"/>
  <note>
uni10B8
</note>
  <outline>
    <contour>
      <point x="325" y="714" type="line"/>
      <point x="325" y="669" type="line"/>
      <point x="346" y="669" type="line" smooth="yes"/>
      <point x="368" y="669"/>
      <point x="391" y="657"/>
      <point x="391" y="608" type="curve" smooth="yes"/>
      <point x="391" y="459" type="line" smooth="yes"/>
      <point x="391" y="403"/>
      <point x="344" y="349"/>
      <point x="274" y="349" type="curve" smooth="yes"/>
      <point x="210" y="349"/>
      <point x="183" y="385"/>
      <point x="183" y="469" type="curve" smooth="yes"/>
      <point x="183" y="714" type="line"/>
      <point x="22" y="714" type="line"/>
      <point x="22" y="673" type="line"/>
      <point x="37" y="673" type="line" smooth="yes"/>
      <point x="74" y="673"/>
      <point x="89" y="657"/>
      <point x="89" y="593" type="curve" smooth="yes"/>
      <point x="89" y="461" type="line" smooth="yes"/>
      <point x="89" y="343"/>
      <point x="146" y="286"/>
      <point x="245" y="286" type="curve" smooth="yes"/>
      <point x="301" y="286"/>
      <point x="356" y="311"/>
      <point x="390" y="369" type="curve"/>
      <point x="394" y="369" type="line"/>
      <point x="392" y="346"/>
      <point x="391" y="324"/>
      <point x="391" y="302" type="curve" smooth="yes"/>
      <point x="391" y="187" type="line" smooth="yes"/>
      <point x="391" y="80"/>
      <point x="355" y="43"/>
      <point x="287" y="43" type="curve" smooth="yes"/>
      <point x="218" y="43"/>
      <point x="183" y="93"/>
      <point x="183" y="150" type="curve" smooth="yes"/>
      <point x="183" y="175"/>
      <point x="186" y="195"/>
      <point x="190" y="203" type="curve"/>
      <point x="176" y="211"/>
      <point x="163" y="214"/>
      <point x="150" y="214" type="curve" smooth="yes"/>
      <point x="116" y="214"/>
      <point x="89" y="187"/>
      <point x="89" y="139" type="curve" smooth="yes"/>
      <point x="89" y="66"/>
      <point x="161" y="-12"/>
      <point x="287" y="-12" type="curve" smooth="yes"/>
      <point x="407" y="-12"/>
      <point x="484" y="49"/>
      <point x="484" y="193" type="curve" smooth="yes"/>
      <point x="484" y="608" type="line" smooth="yes"/>
      <point x="484" y="657"/>
      <point x="504" y="669"/>
      <point x="529" y="669" type="curve" smooth="yes"/>
      <point x="550" y="669" type="line"/>
      <point x="550" y="714" type="line"/>
    </contour>
  </outline>
</glyph>
<glyph name="Chin-oldgeorgian" format="2">
  <advance width="616"/>
  <unicode hex="10B9"/>
  <note>
uni10B9
</note>
  <outline>
    <contour>
      <point x="567" y="44" type="line" smooth="yes"/>
      <point x="532" y="44"/>
      <point x="516" y="57"/>
      <point x="516" y="114" type="curve" smooth="yes"/>
      <point x="516" y="427" type="line"/>
      <point x="201" y="427" type="line"/>
      <point x="201" y="608" type="line" smooth="yes"/>
      <point x="201" y="657"/>
      <point x="224" y="669"/>
      <point x="245" y="669" type="curve" smooth="yes"/>
      <point x="266" y="669" type="line"/>
      <point x="266" y="714" type="line"/>
      <point x="47" y="714" type="line"/>
      <point x="47" y="669" type="line"/>
      <point x="65" y="669" type="line" smooth="yes"/>
      <point x="90" y="669"/>
      <point x="109" y="657"/>
      <point x="109" y="608" type="curve" smooth="yes"/>
      <point x="109" y="116" type="line" smooth="yes"/>
      <point x="109" y="58"/>
      <point x="93" y="44"/>
      <point x="58" y="44" type="curve" smooth="yes"/>
      <point x="39" y="44" type="line"/>
      <point x="39" y="0" type="line"/>
      <point x="270" y="0" type="line"/>
      <point x="270" y="44" type="line"/>
      <point x="250" y="44" type="line" smooth="yes"/>
      <point x="215" y="44"/>
      <point x="201" y="58"/>
      <point x="201" y="116" type="curve" smooth="yes"/>
      <point x="201" y="380" type="line"/>
      <point x="425" y="380" type="line"/>
      <point x="425" y="0" type="line"/>
      <point x="592" y="0" type="line"/>
      <point x="592" y="44" type="line"/>
    </contour>
  </outline>
</glyph>
<glyph name="Can-oldgeorgian" format="2">
  <advance width="498"/>
  <unicode hex="10BA"/>
  <note>
uni10BA
</note>
  <outline>
    <contour>
      <point x="278" y="-158" type="curve" smooth="yes"/>
      <point x="301" y="-158"/>
      <point x="350" y="-146"/>
      <point x="395" y="-94" type="curve" smooth="yes"/>
      <point x="444" y="-37"/>
      <point x="466" y="33"/>
      <point x="466" y="104" type="curve" smooth="yes"/>
      <point x="466" y="119"/>
      <point x="461" y="132"/>
      <point x="453" y="139" type="curve"/>
      <point x="424" y="89"/>
      <point x="385" y="47"/>
      <point x="306" y="47" type="curve" smooth="yes"/>
      <point x="191" y="47"/>
      <point x="144" y="162"/>
      <point x="144" y="358" type="curve" smooth="yes"/>
      <point x="144" y="553"/>
      <point x="186" y="675"/>
      <point x="291" y="675" type="curve" smooth="yes"/>
      <point x="369" y="675"/>
      <point x="395" y="610"/>
      <point x="395" y="544" type="curve"/>
      <point x="440" y="544"/>
      <point x="468" y="570"/>
      <point x="468" y="610" type="curve" smooth="yes"/>
      <point x="468" y="672"/>
      <point x="407" y="726"/>
      <point x="300" y="726" type="curve" smooth="yes"/>
      <point x="131" y="726"/>
      <point x="44" y="580"/>
      <point x="44" y="358" type="curve" smooth="yes"/>
      <point x="44" y="137"/>
      <point x="129" y="-10"/>
      <point x="290" y="-10" type="curve" smooth="yes"/>
      <point x="335" y="-10"/>
      <point x="371" y="0"/>
      <point x="398" y="13" type="curve"/>
      <point x="374" y="-48"/>
      <point x="331" y="-83"/>
      <point x="287" y="-83" type="curve" smooth="yes"/>
      <point x="267" y="-83"/>
      <point x="247" y="-76"/>
      <point x="232" y="-62" type="curve"/>
      <point x="221" y="-78"/>
      <point x="216" y="-93"/>
      <point x="216" y="-110" type="curve" smooth="yes"/>
      <point x="216" y="-142"/>
      <point x="244" y="-158"/>
    </contour>
  </outline>
</glyph>
<glyph name="Jil-oldgeorgian" format="2">
  <advance width="796"/>
  <unicode hex="10BB"/>
  <note>
uni10BB
</note>
  <outline>
    <contour>
      <point x="242" y="-12" type="curve" smooth="yes"/>
      <point x="362" y="-12"/>
      <point x="439" y="53"/>
      <point x="439" y="216" type="curve" smooth="yes"/>
      <point x="439" y="387" type="line"/>
      <point x="605" y="387" type="line"/>
      <point x="605" y="0" type="line"/>
      <point x="772" y="0" type="line"/>
      <point x="772" y="44" type="line"/>
      <point x="747" y="44" type="line" smooth="yes"/>
      <point x="712" y="44"/>
      <point x="696" y="57"/>
      <point x="696" y="114" type="curve" smooth="yes"/>
      <point x="696" y="436" type="line"/>
      <point x="439" y="436" type="line"/>
      <point x="439" y="608" type="line" smooth="yes"/>
      <point x="439" y="657"/>
      <point x="462" y="669"/>
      <point x="483" y="669" type="curve" smooth="yes"/>
      <point x="504" y="669" type="line"/>
      <point x="504" y="714" type="line"/>
      <point x="285" y="714" type="line"/>
      <point x="285" y="669" type="line"/>
      <point x="303" y="669" type="line" smooth="yes"/>
      <point x="328" y="669"/>
      <point x="347" y="657"/>
      <point x="347" y="608" type="curve" smooth="yes"/>
      <point x="347" y="436" type="line"/>
      <point x="247" y="436" type="line" smooth="yes"/>
      <point x="106" y="436"/>
      <point x="45" y="360"/>
      <point x="45" y="216" type="curve" smooth="yes"/>
      <point x="45" y="86"/>
      <point x="104" y="-12"/>
    </contour>
    <contour>
      <point x="242" y="43" type="curve" smooth="yes"/>
      <point x="169" y="43"/>
      <point x="136" y="114"/>
      <point x="136" y="216" type="curve" smooth="yes"/>
      <point x="136" y="325"/>
      <point x="167" y="387"/>
      <point x="246" y="387" type="curve" smooth="yes"/>
      <point x="347" y="387" type="line"/>
      <point x="347" y="213" type="line" smooth="yes"/>
      <point x="347" y="82"/>
      <point x="310" y="43"/>
    </contour>
  </outline>
</glyph>
<glyph name="Cil-oldgeorgian" format="2">
  <advance width="485"/>
  <unicode hex="10BC"/>
  <note>
uni10BC
</note>
  <outline>
    <contour>
      <point x="102" y="0" type="line"/>
      <point x="195" y="0" type="line"/>
      <point x="195" y="163" type="line"/>
      <point x="223" y="163" type="line" smooth="yes"/>
      <point x="270" y="163"/>
      <point x="298" y="144"/>
      <point x="298" y="64" type="curve"/>
      <point x="341" y="64"/>
      <point x="365" y="91"/>
      <point x="365" y="126" type="curve" smooth="yes"/>
      <point x="365" y="193"/>
      <point x="309" y="214"/>
      <point x="229" y="214" type="curve" smooth="yes"/>
      <point x="195" y="214" type="line"/>
      <point x="195" y="284" type="line"/>
      <point x="241" y="284" type="line" smooth="yes"/>
      <point x="404" y="284"/>
      <point x="462" y="387"/>
      <point x="462" y="508" type="curve" smooth="yes"/>
      <point x="462" y="640"/>
      <point x="398" y="714"/>
      <point x="259" y="714" type="curve" smooth="yes"/>
      <point x="28" y="714" type="line"/>
      <point x="28" y="673" type="line"/>
      <point x="44" y="673" type="line" smooth="yes"/>
      <point x="77" y="673"/>
      <point x="102" y="664"/>
      <point x="102" y="605" type="curve" smooth="yes"/>
    </contour>
    <contour>
      <point x="195" y="330" type="line"/>
      <point x="195" y="667" type="line"/>
      <point x="245" y="667" type="line" smooth="yes"/>
      <point x="331" y="667"/>
      <point x="365" y="617"/>
      <point x="365" y="504" type="curve" smooth="yes"/>
      <point x="365" y="377"/>
      <point x="327" y="330"/>
      <point x="234" y="330" type="curve" smooth="yes"/>
    </contour>
  </outline>
</glyph>
<glyph name="Char-oldgeorgian" format="2">
  <advance width="436"/>
  <unicode hex="10BD"/>
  <note>
uni10BD
</note>
  <outline>
    <contour>
      <point x="212" y="-12" type="curve" smooth="yes"/>
      <point x="323" y="-12"/>
      <point x="402" y="60"/>
      <point x="402" y="187" type="curve" smooth="yes"/>
      <point x="402" y="294"/>
      <point x="350" y="348"/>
      <point x="253" y="401" type="curve" smooth="yes"/>
      <point x="160" y="452"/>
      <point x="130" y="488"/>
      <point x="130" y="560" type="curve" smooth="yes"/>
      <point x="130" y="632"/>
      <point x="161" y="679"/>
      <point x="221" y="679" type="curve" smooth="yes"/>
      <point x="285" y="679"/>
      <point x="315" y="617"/>
      <point x="315" y="549" type="curve"/>
      <point x="360" y="549"/>
      <point x="384" y="568"/>
      <point x="384" y="611" type="curve" smooth="yes"/>
      <point x="384" y="666"/>
      <point x="329" y="726"/>
      <point x="228" y="726" type="curve" smooth="yes"/>
      <point x="131" y="726"/>
      <point x="52" y="655"/>
      <point x="52" y="548" type="curve" smooth="yes"/>
      <point x="52" y="439"/>
      <point x="100" y="381"/>
      <point x="192" y="328" type="curve" smooth="yes"/>
      <point x="279" y="278"/>
      <point x="323" y="243"/>
      <point x="323" y="160" type="curve" smooth="yes"/>
      <point x="323" y="81"/>
      <point x="287" y="34"/>
      <point x="219" y="34" type="curve" smooth="yes"/>
      <point x="150" y="34"/>
      <point x="106" y="99"/>
      <point x="101" y="195" type="curve"/>
      <point x="63" y="195"/>
      <point x="36" y="169"/>
      <point x="36" y="126" type="curve" smooth="yes"/>
      <point x="36" y="46"/>
      <point x="91" y="-12"/>
    </contour>
  </outline>
</glyph>
<glyph name="Xan-oldgeorgian" format="2">
  <advance width="600"/>
  <unicode hex="10BE"/>
  <note>
uni10BE
</note>
  <outline>
    <contour>
      <point x="28" y="0" type="line"/>
      <point x="510" y="0" type="line"/>
      <point x="510" y="39" type="line"/>
      <point x="194" y="39" type="line"/>
      <point x="194" y="298" type="line"/>
      <point x="500" y="298" type="line"/>
      <point x="500" y="605" type="line"/>
      <point x="500" y="662"/>
      <point x="516" y="675"/>
      <point x="551" y="675" type="curve" smooth="yes"/>
      <point x="575" y="675" type="line"/>
      <point x="575" y="714" type="line"/>
      <point x="408" y="714" type="line"/>
      <point x="408" y="344" type="line"/>
      <point x="194" y="344" type="line"/>
      <point x="194" y="604" type="line" smooth="yes"/>
      <point x="194" y="661"/>
      <point x="208" y="675"/>
      <point x="244" y="675" type="curve" smooth="yes"/>
      <point x="264" y="675" type="line"/>
      <point x="264" y="714" type="line"/>
      <point x="28" y="714" type="line"/>
      <point x="28" y="675" type="line"/>
      <point x="52" y="675" type="line" smooth="yes"/>
      <point x="87" y="675"/>
      <point x="103" y="661"/>
      <point x="103" y="604" type="curve" smooth="yes"/>
      <point x="103" y="110" type="line" smooth="yes"/>
      <point x="103" y="51"/>
      <point x="84" y="39"/>
      <point x="49" y="39" type="curve" smooth="yes"/>
      <point x="28" y="39" type="line"/>
    </contour>
  </outline>
</glyph>
<glyph name="Jhan-oldgeorgian" format="2">
  <advance width="536"/>
  <unicode hex="10BF"/>
  <note>
uni10BF
</note>
  <outline>
    <contour>
      <point x="6" y="0" type="line"/>
      <point x="32" y="0" type="line" smooth="yes"/>
      <point x="84" y="0"/>
      <point x="103" y="18"/>
      <point x="134" y="79" type="curve" smooth="yes"/>
      <point x="253" y="314" type="line"/>
      <point x="336" y="140" type="line" smooth="yes"/>
      <point x="358" y="93"/>
      <point x="365" y="80"/>
      <point x="365" y="66" type="curve" smooth="yes"/>
      <point x="365" y="47"/>
      <point x="350" y="36"/>
      <point x="313" y="36" type="curve" smooth="yes"/>
      <point x="307" y="36" type="line"/>
      <point x="307" y="0" type="line"/>
      <point x="533" y="0" type="line"/>
      <point x="533" y="36" type="line"/>
      <point x="524" y="36" type="line" smooth="yes"/>
      <point x="499" y="36"/>
      <point x="479" y="51"/>
      <point x="460" y="89" type="curve" smooth="yes"/>
      <point x="317" y="381" type="line"/>
      <point x="466" y="675" type="line"/>
      <point x="466" y="714" type="line"/>
      <point x="19" y="714" type="line"/>
      <point x="19" y="675" type="line"/>
      <point x="71" y="675" type="line"/>
      <point x="227" y="359" type="line"/>
      <point x="92" y="102" type="line" smooth="yes"/>
      <point x="66" y="53"/>
      <point x="52" y="39"/>
      <point x="12" y="39" type="curve" smooth="yes"/>
      <point x="6" y="39" type="line"/>
    </contour>
    <contour>
      <point x="294" y="427" type="line"/>
      <point x="174" y="675" type="line"/>
      <point x="349" y="675" type="line" smooth="yes"/>
      <point x="377" y="675"/>
      <point x="391" y="670"/>
      <point x="391" y="649" type="curve" smooth="yes"/>
      <point x="391" y="632"/>
      <point x="379" y="609"/>
      <point x="368" y="586" type="curve" smooth="yes"/>
    </contour>
  </outline>
</glyph>
<glyph name="Hae-oldgeorgian" format="2">
  <advance width="805"/>
  <unicode hex="10C0"/>
  <note>
uni10C0
</note>
  <outline>
    <contour>
      <point x="565" y="-12" type="curve" smooth="yes"/>
      <point x="710" y="-12"/>
      <point x="776" y="85"/>
      <point x="776" y="207" type="curve" smooth="yes"/>
      <point x="776" y="275"/>
      <point x="752" y="358"/>
      <point x="680" y="358" type="curve" smooth="yes"/>
      <point x="669" y="358"/>
      <point x="657" y="356"/>
      <point x="646" y="351" type="curve"/>
      <point x="675" y="308"/>
      <point x="685" y="266"/>
      <point x="685" y="216" type="curve" smooth="yes"/>
      <point x="685" y="120"/>
      <point x="649" y="43"/>
      <point x="565" y="43" type="curve" smooth="yes"/>
      <point x="487" y="43"/>
      <point x="444" y="92"/>
      <point x="444" y="217" type="curve" smooth="yes"/>
      <point x="444" y="608" type="line" smooth="yes"/>
      <point x="444" y="657"/>
      <point x="466" y="669"/>
      <point x="489" y="669" type="curve" smooth="yes"/>
      <point x="510" y="669" type="line"/>
      <point x="510" y="714" type="line"/>
      <point x="25" y="714" type="line"/>
      <point x="25" y="669" type="line"/>
      <point x="46" y="669" type="line" smooth="yes"/>
      <point x="69" y="669"/>
      <point x="90" y="657"/>
      <point x="90" y="608" type="curve" smooth="yes"/>
      <point x="90" y="442" type="line" smooth="yes"/>
      <point x="90" y="392"/>
      <point x="69" y="380"/>
      <point x="46" y="380" type="curve" smooth="yes"/>
      <point x="25" y="380" type="line"/>
      <point x="25" y="335" type="line"/>
      <point x="182" y="335" type="line"/>
      <point x="182" y="663" type="line"/>
      <point x="352" y="663" type="line"/>
      <point x="352" y="216" type="line" smooth="yes"/>
      <point x="352" y="57"/>
      <point x="435" y="-12"/>
    </contour>
  </outline>
</glyph>
<glyph name="He-oldgeorgian" format="2">
  <advance width="619"/>
  <unicode hex="10C1"/>
  <note>
uni10C1
</note>
  <outline>
    <contour>
      <point x="96" y="0" type="line"/>
      <point x="189" y="0" type="line"/>
      <point x="189" y="351" type="line" smooth="yes"/>
      <point x="189" y="429"/>
      <point x="237" y="484"/>
      <point x="306" y="484" type="curve" smooth="yes"/>
      <point x="370" y="484"/>
      <point x="397" y="447"/>
      <point x="397" y="363" type="curve" smooth="yes"/>
      <point x="397" y="263" type="line"/>
      <point x="605" y="263" type="line"/>
      <point x="605" y="312" type="line"/>
      <point x="491" y="312" type="line"/>
      <point x="491" y="370" type="line" smooth="yes"/>
      <point x="491" y="488"/>
      <point x="434" y="545"/>
      <point x="336" y="545" type="curve" smooth="yes"/>
      <point x="279" y="545"/>
      <point x="224" y="520"/>
      <point x="190" y="463" type="curve"/>
      <point x="186" y="463" type="line"/>
      <point x="188" y="485"/>
      <point x="189" y="507"/>
      <point x="189" y="529" type="curve" smooth="yes"/>
      <point x="189" y="714" type="line"/>
      <point x="29" y="714" type="line"/>
      <point x="29" y="673" type="line"/>
      <point x="47" y="673" type="line" smooth="yes"/>
      <point x="83" y="673"/>
      <point x="96" y="660"/>
      <point x="96" y="595" type="curve" smooth="yes"/>
    </contour>
  </outline>
</glyph>
<glyph name="Hie-oldgeorgian" format="2">
  <advance width="498"/>
  <unicode hex="10C2"/>
  <note>
uni10C2
</note>
  <outline>
    <contour>
      <point x="198" y="-12" type="curve" smooth="yes"/>
      <point x="369" y="-12"/>
      <point x="454" y="121"/>
      <point x="454" y="294" type="curve" smooth="yes"/>
      <point x="454" y="473"/>
      <point x="373" y="605"/>
      <point x="218" y="605" type="curve"/>
      <point x="201" y="605" type="line"/>
      <point x="201" y="719" type="line"/>
      <point x="35" y="719" type="line"/>
      <point x="35" y="678" type="line"/>
      <point x="51" y="678" type="line" smooth="yes"/>
      <point x="88" y="678"/>
      <point x="109" y="669"/>
      <point x="109" y="606" type="curve" smooth="yes"/>
      <point x="109" y="549" type="line"/>
      <point x="189" y="549" type="line"/>
      <point x="310" y="549"/>
      <point x="353" y="441"/>
      <point x="353" y="293" type="curve" smooth="yes"/>
      <point x="353" y="138"/>
      <point x="311" y="40"/>
      <point x="204" y="40" type="curve" smooth="yes"/>
      <point x="132" y="40"/>
      <point x="103" y="102"/>
      <point x="103" y="171" type="curve"/>
      <point x="58" y="171"/>
      <point x="29" y="143"/>
      <point x="29" y="103" type="curve" smooth="yes"/>
      <point x="29" y="47"/>
      <point x="86" y="-12"/>
    </contour>
  </outline>
</glyph>
<glyph name="We-oldgeorgian" format="2">
  <advance width="568"/>
  <unicode hex="10C3"/>
  <note>
uni10C3
</note>
  <outline>
    <contour>
      <point x="317" y="714" type="line"/>
      <point x="317" y="669" type="line"/>
      <point x="338" y="669" type="line" smooth="yes"/>
      <point x="359" y="669"/>
      <point x="382" y="657"/>
      <point x="382" y="608" type="curve" smooth="yes"/>
      <point x="382" y="436" type="line" smooth="yes"/>
      <point x="382" y="347"/>
      <point x="328" y="293"/>
      <point x="245" y="293" type="curve" smooth="yes"/>
      <point x="169" y="293"/>
      <point x="135" y="344"/>
      <point x="135" y="432" type="curve" smooth="yes"/>
      <point x="135" y="511"/>
      <point x="151" y="545"/>
      <point x="176" y="572" type="curve"/>
      <point x="165" y="580"/>
      <point x="151" y="585"/>
      <point x="136" y="585" type="curve" smooth="yes"/>
      <point x="92" y="585"/>
      <point x="42" y="547"/>
      <point x="42" y="435" type="curve" smooth="yes"/>
      <point x="42" y="301"/>
      <point x="118" y="236"/>
      <point x="223" y="236" type="curve" smooth="yes"/>
      <point x="287" y="236"/>
      <point x="347" y="261"/>
      <point x="381" y="319" type="curve"/>
      <point x="385" y="319" type="line"/>
      <point x="383" y="296"/>
      <point x="382" y="274"/>
      <point x="382" y="252" type="curve" smooth="yes"/>
      <point x="382" y="0" type="line"/>
      <point x="476" y="0" type="line"/>
      <point x="476" y="608" type="line" smooth="yes"/>
      <point x="476" y="657"/>
      <point x="494" y="669"/>
      <point x="520" y="669" type="curve" smooth="yes"/>
      <point x="542" y="669" type="line"/>
      <point x="542" y="714" type="line"/>
    </contour>
  </outline>
</glyph>
<glyph name="Har-oldgeorgian" format="2">
  <advance width="565"/>
  <unicode hex="10C4"/>
  <note>
uni10C4
</note>
  <outline>
    <contour>
      <point x="325" y="714" type="line"/>
      <point x="325" y="669" type="line"/>
      <point x="346" y="669" type="line" smooth="yes"/>
      <point x="368" y="669"/>
      <point x="391" y="657"/>
      <point x="391" y="608" type="curve" smooth="yes"/>
      <point x="391" y="450" type="line" smooth="yes"/>
      <point x="391" y="325"/>
      <point x="355" y="292"/>
      <point x="287" y="292" type="curve" smooth="yes"/>
      <point x="213" y="292"/>
      <point x="183" y="350"/>
      <point x="183" y="440" type="curve" smooth="yes"/>
      <point x="183" y="608" type="line" smooth="yes"/>
      <point x="183" y="657"/>
      <point x="203" y="669"/>
      <point x="227" y="669" type="curve" smooth="yes"/>
      <point x="249" y="669" type="line"/>
      <point x="249" y="714" type="line"/>
      <point x="24" y="714" type="line"/>
      <point x="24" y="669" type="line"/>
      <point x="45" y="669" type="line" smooth="yes"/>
      <point x="66" y="669"/>
      <point x="89" y="657"/>
      <point x="89" y="608" type="curve" smooth="yes"/>
      <point x="89" y="438" type="line" smooth="yes"/>
      <point x="89" y="335"/>
      <point x="131" y="256"/>
      <point x="240" y="241" type="curve"/>
      <point x="240" y="0" type="line"/>
      <point x="334" y="0" type="line"/>
      <point x="334" y="241" type="line"/>
      <point x="425" y="255"/>
      <point x="484" y="317"/>
      <point x="484" y="456" type="curve" smooth="yes"/>
      <point x="484" y="608" type="line" smooth="yes"/>
      <point x="484" y="657"/>
      <point x="504" y="669"/>
      <point x="529" y="669" type="curve" smooth="yes"/>
      <point x="550" y="669" type="line"/>
      <point x="550" y="714" type="line"/>
    </contour>
  </outline>
</glyph>
<glyph name="Hoe-oldgeorgian" format="2">
  <advance width="608"/>
  <unicode hex="10C5"/>
  <note>
uni10C5
</note>
  <outline>
    <contour>
      <point x="162" y="-12" type="curve" smooth="yes"/>
      <point x="258" y="-12"/>
      <point x="318" y="39"/>
      <point x="318" y="124" type="curve" smooth="yes"/>
      <point x="318" y="215" type="line"/>
      <point x="377" y="215" type="line" smooth="yes"/>
      <point x="434" y="215"/>
      <point x="462" y="196"/>
      <point x="462" y="116" type="curve"/>
      <point x="505" y="116"/>
      <point x="529" y="143"/>
      <point x="529" y="178" type="curve" smooth="yes"/>
      <point x="529" y="245"/>
      <point x="473" y="264"/>
      <point x="393" y="264" type="curve" smooth="yes"/>
      <point x="318" y="264" type="line"/>
      <point x="318" y="329" type="line"/>
      <point x="364" y="329" type="line" smooth="yes"/>
      <point x="527" y="329"/>
      <point x="585" y="422"/>
      <point x="585" y="530" type="curve" smooth="yes"/>
      <point x="585" y="646"/>
      <point x="521" y="714"/>
      <point x="382" y="714" type="curve" smooth="yes"/>
      <point x="151" y="714" type="line"/>
      <point x="151" y="673" type="line"/>
      <point x="167" y="673" type="line" smooth="yes"/>
      <point x="200" y="673"/>
      <point x="226" y="664"/>
      <point x="226" y="605" type="curve" smooth="yes"/>
      <point x="226" y="264" type="line"/>
      <point x="177" y="264" type="line" smooth="yes"/>
      <point x="66" y="264"/>
      <point x="14" y="220"/>
      <point x="14" y="128" type="curve" smooth="yes"/>
      <point x="14" y="46"/>
      <point x="70" y="-12"/>
    </contour>
    <contour>
      <point x="162" y="38" type="curve" smooth="yes"/>
      <point x="120" y="38"/>
      <point x="100" y="70"/>
      <point x="100" y="129" type="curve" smooth="yes"/>
      <point x="100" y="183"/>
      <point x="122" y="215"/>
      <point x="180" y="215" type="curve" smooth="yes"/>
      <point x="225" y="215" type="line"/>
      <point x="225" y="129" type="line" smooth="yes"/>
      <point x="225" y="63"/>
      <point x="202" y="38"/>
    </contour>
    <contour>
      <point x="318" y="375" type="line"/>
      <point x="318" y="667" type="line"/>
      <point x="369" y="667" type="line" smooth="yes"/>
      <point x="454" y="667"/>
      <point x="488" y="622"/>
      <point x="488" y="526" type="curve" smooth="yes"/>
      <point x="488" y="417"/>
      <point x="450" y="375"/>
      <point x="357" y="375" type="curve" smooth="yes"/>
    </contour>
  </outline>
</glyph>
<glyph name="Yn-oldgeorgian" format="2">
  <advance width="435"/>
  <unicode hex="10C7"/>
  <outline>
    <contour>
      <point x="219" y="-12" type="curve" smooth="yes"/>
      <point x="344" y="-12"/>
      <point x="399" y="46"/>
      <point x="399" y="126" type="curve" smooth="yes"/>
      <point x="399" y="169"/>
      <point x="373" y="195"/>
      <point x="335" y="195" type="curve"/>
      <point x="330" y="99"/>
      <point x="286" y="34"/>
      <point x="217" y="34" type="curve" smooth="yes"/>
      <point x="148" y="34"/>
      <point x="112" y="81"/>
      <point x="112" y="160" type="curve" smooth="yes"/>
      <point x="112" y="243"/>
      <point x="157" y="279"/>
      <point x="243" y="328" type="curve" smooth="yes"/>
      <point x="337" y="382"/>
      <point x="383" y="439"/>
      <point x="383" y="548" type="curve" smooth="yes"/>
      <point x="383" y="653"/>
      <point x="313" y="726"/>
      <point x="212" y="726" type="curve" smooth="yes"/>
      <point x="108" y="726"/>
      <point x="51" y="666"/>
      <point x="51" y="611" type="curve" smooth="yes"/>
      <point x="51" y="568"/>
      <point x="75" y="549"/>
      <point x="120" y="549" type="curve"/>
      <point x="120" y="617"/>
      <point x="153" y="679"/>
      <point x="217" y="679" type="curve" smooth="yes"/>
      <point x="277" y="679"/>
      <point x="306" y="630"/>
      <point x="306" y="559" type="curve" smooth="yes"/>
      <point x="306" y="487"/>
      <point x="277" y="452"/>
      <point x="182" y="401" type="curve" smooth="yes"/>
      <point x="85" y="349"/>
      <point x="34" y="294"/>
      <point x="34" y="187" type="curve" smooth="yes"/>
      <point x="34" y="58"/>
      <point x="106" y="-12"/>
    </contour>
  </outline>
</glyph>
<glyph name="Aen-oldgeorgian" format="2">
  <advance width="483"/>
  <unicode hex="10CD"/>
  <outline>
    <contour>
      <point x="29" y="0" type="line"/>
      <point x="446" y="0" type="line"/>
      <point x="449" y="172" type="line"/>
      <point x="405" y="172" type="line"/>
      <point x="401" y="129" type="line" smooth="yes"/>
      <point x="397" y="85"/>
      <point x="382" y="49"/>
      <point x="330" y="49" type="curve" smooth="yes"/>
      <point x="133" y="49" type="line"/>
      <point x="436" y="674" type="line"/>
      <point x="436" y="714" type="line"/>
      <point x="48" y="714" type="line"/>
      <point x="44" y="543" type="line"/>
      <point x="90" y="543" type="line"/>
      <point x="93" y="585" type="line" smooth="yes"/>
      <point x="96" y="628"/>
      <point x="110" y="665"/>
      <point x="159" y="665" type="curve" smooth="yes"/>
      <point x="330" y="665" type="line"/>
      <point x="29" y="39" type="line"/>
    </contour>
  </outline>
</glyph>
<glyph name="an-georgian" format="2">
  <advance width="431"/>
  <unicode hex="10D0"/>
  <note>
uni10D0
</note>
  <anchor x="216" y="536" name="top"/>
  <outline>
    <contour>
      <point x="210" y="-12" type="curve" smooth="yes"/>
      <point x="310" y="-12"/>
      <point x="389" y="53"/>
      <point x="389" y="161" type="curve" smooth="yes"/>
      <point x="389" y="269"/>
      <point x="338" y="319"/>
      <point x="297" y="364" type="curve" smooth="yes"/>
      <point x="270" y="394"/>
      <point x="247" y="423"/>
      <point x="247" y="472" type="curve" smooth="yes"/>
      <point x="247" y="495"/>
      <point x="254" y="520"/>
      <point x="264" y="533" type="curve"/>
      <point x="255" y="542"/>
      <point x="244" y="548"/>
      <point x="225" y="548" type="curve" smooth="yes"/>
      <point x="190" y="548"/>
      <point x="168" y="517"/>
      <point x="168" y="481" type="curve" smooth="yes"/>
      <point x="168" y="411"/>
      <point x="198" y="376"/>
      <point x="229" y="340" type="curve" smooth="yes"/>
      <point x="264" y="300"/>
      <point x="300" y="258"/>
      <point x="300" y="165" type="curve" smooth="yes"/>
      <point x="300" y="88"/>
      <point x="267" y="39"/>
      <point x="210" y="39" type="curve" smooth="yes"/>
      <point x="155" y="39"/>
      <point x="123" y="90"/>
      <point x="123" y="158" type="curve" smooth="yes"/>
      <point x="123" y="198"/>
      <point x="129" y="225"/>
      <point x="141" y="252" type="curve"/>
      <point x="128" y="258"/>
      <point x="119" y="261"/>
      <point x="108" y="261" type="curve" smooth="yes"/>
      <point x="63" y="261"/>
      <point x="37" y="216"/>
      <point x="37" y="155" type="curve" smooth="yes"/>
      <point x="37" y="56"/>
      <point x="114" y="-12"/>
    </contour>
  </outline>
</glyph>
<glyph name="ban-georgian" format="2">
  <advance width="464"/>
  <unicode hex="10D1"/>
  <note>
uni10D1
</note>
  <outline>
    <contour>
      <point x="273" y="541" type="curve"/>
      <point x="281" y="555"/>
      <point x="286" y="570"/>
      <point x="286" y="587" type="curve" smooth="yes"/>
      <point x="286" y="629"/>
      <point x="260" y="654"/>
      <point x="236" y="673" type="curve" smooth="yes"/>
      <point x="220" y="686"/>
      <point x="208" y="701"/>
      <point x="208" y="726" type="curve" smooth="yes"/>
      <point x="208" y="736"/>
      <point x="210" y="747"/>
      <point x="215" y="760" type="curve"/>
      <point x="207" y="767"/>
      <point x="196" y="772"/>
      <point x="181" y="772" type="curve" smooth="yes"/>
      <point x="157" y="772"/>
      <point x="136" y="750"/>
      <point x="136" y="720" type="curve" smooth="yes"/>
      <point x="136" y="689"/>
      <point x="156" y="670"/>
      <point x="179" y="650" type="curve" smooth="yes"/>
      <point x="197" y="635"/>
      <point x="211" y="616"/>
      <point x="211" y="587" type="curve" smooth="yes"/>
      <point x="211" y="570"/>
      <point x="208" y="555"/>
      <point x="202" y="543" type="curve"/>
      <point x="96" y="529"/>
      <point x="42" y="440"/>
      <point x="42" y="269" type="curve" smooth="yes"/>
      <point x="42" y="79"/>
      <point x="114" y="-12"/>
      <point x="231" y="-12" type="curve" smooth="yes"/>
      <point x="356" y="-12"/>
      <point x="422" y="79"/>
      <point x="422" y="269" type="curve" smooth="yes"/>
      <point x="422" y="434"/>
      <point x="366" y="523"/>
    </contour>
    <contour>
      <point x="233" y="39" type="curve" smooth="yes"/>
      <point x="159" y="39"/>
      <point x="131" y="117"/>
      <point x="131" y="269" type="curve" smooth="yes"/>
      <point x="131" y="418"/>
      <point x="158" y="496"/>
      <point x="232" y="496" type="curve" smooth="yes"/>
      <point x="307" y="496"/>
      <point x="333" y="418"/>
      <point x="333" y="269" type="curve" smooth="yes"/>
      <point x="333" y="117"/>
      <point x="307" y="39"/>
    </contour>
  </outline>
</glyph>
<glyph name="gan-georgian" format="2">
  <advance width="454"/>
  <unicode hex="10D2"/>
  <note>
uni10D2
</note>
  <outline>
    <contour>
      <point x="226" y="-252" type="curve" smooth="yes"/>
      <point x="351" y="-252"/>
      <point x="417" y="-161"/>
      <point x="417" y="29" type="curve" smooth="yes"/>
      <point x="417" y="181"/>
      <point x="369" y="271"/>
      <point x="283" y="298" type="curve"/>
      <point x="283" y="301" type="line"/>
      <point x="342" y="325"/>
      <point x="364" y="375"/>
      <point x="364" y="422" type="curve" smooth="yes"/>
      <point x="364" y="494"/>
      <point x="302" y="548"/>
      <point x="223" y="548" type="curve" smooth="yes"/>
      <point x="132" y="548"/>
      <point x="83" y="494"/>
      <point x="83" y="442" type="curve" smooth="yes"/>
      <point x="83" y="393"/>
      <point x="111" y="373"/>
      <point x="137" y="373" type="curve" smooth="yes"/>
      <point x="152" y="373"/>
      <point x="165" y="376"/>
      <point x="176" y="379" type="curve"/>
      <point x="172" y="390"/>
      <point x="166" y="406"/>
      <point x="166" y="434" type="curve" smooth="yes"/>
      <point x="166" y="471"/>
      <point x="186" y="502"/>
      <point x="223" y="502" type="curve" smooth="yes"/>
      <point x="259" y="502"/>
      <point x="281" y="473"/>
      <point x="281" y="422" type="curve" smooth="yes"/>
      <point x="281" y="364"/>
      <point x="270" y="326"/>
      <point x="204" y="309" type="curve" smooth="yes"/>
      <point x="94" y="281"/>
      <point x="37" y="204"/>
      <point x="37" y="29" type="curve" smooth="yes"/>
      <point x="37" y="-161"/>
      <point x="109" y="-252"/>
    </contour>
    <contour>
      <point x="228" y="-201" type="curve" smooth="yes"/>
      <point x="154" y="-201"/>
      <point x="126" y="-123"/>
      <point x="126" y="29" type="curve" smooth="yes"/>
      <point x="126" y="178"/>
      <point x="153" y="256"/>
      <point x="227" y="256" type="curve" smooth="yes"/>
      <point x="302" y="256"/>
      <point x="328" y="178"/>
      <point x="328" y="29" type="curve" smooth="yes"/>
      <point x="328" y="-123"/>
      <point x="302" y="-201"/>
    </contour>
  </outline>
</glyph>
<glyph name="don-georgian" format="2">
  <advance width="705"/>
  <unicode hex="10D3"/>
  <note>
uni10D3
</note>
  <outline>
    <contour>
      <point x="481" y="0" type="curve" smooth="yes"/>
      <point x="592" y="0"/>
      <point x="663" y="90"/>
      <point x="663" y="273" type="curve" smooth="yes"/>
      <point x="663" y="454"/>
      <point x="600" y="548"/>
      <point x="481" y="548" type="curve" smooth="yes"/>
      <point x="436" y="548"/>
      <point x="367" y="523"/>
      <point x="345" y="446" type="curve"/>
      <point x="342" y="446" type="line"/>
      <point x="319" y="524"/>
      <point x="261" y="548"/>
      <point x="212" y="548" type="curve" smooth="yes"/>
      <point x="109" y="548"/>
      <point x="42" y="459"/>
      <point x="42" y="279" type="curve" smooth="yes"/>
      <point x="42" y="79"/>
      <point x="122" y="-19"/>
      <point x="253" y="-80" type="curve"/>
      <point x="253" y="-84" type="line"/>
      <point x="217" y="-86"/>
      <point x="171" y="-99"/>
      <point x="138" y="-123" type="curve"/>
      <point x="160" y="-155" type="line"/>
      <point x="202" y="-131"/>
      <point x="248" y="-122"/>
      <point x="307" y="-122" type="curve" smooth="yes"/>
      <point x="388" y="-122"/>
      <point x="477" y="-164"/>
      <point x="477" y="-252" type="curve"/>
      <point x="512" y="-252"/>
      <point x="534" y="-234"/>
      <point x="534" y="-201" type="curve" smooth="yes"/>
      <point x="534" y="-144"/>
      <point x="486" y="-100"/>
      <point x="383" y="-71" type="curve" smooth="yes"/>
      <point x="244" y="-32"/>
      <point x="131" y="42"/>
      <point x="131" y="279" type="curve" smooth="yes"/>
      <point x="131" y="421"/>
      <point x="157" y="497"/>
      <point x="217" y="497" type="curve" smooth="yes"/>
      <point x="281" y="497"/>
      <point x="300" y="441"/>
      <point x="300" y="318" type="curve" smooth="yes"/>
      <point x="300" y="273" type="line" smooth="yes"/>
      <point x="300" y="90"/>
      <point x="365" y="0"/>
    </contour>
    <contour>
      <point x="481" y="497" type="curve" smooth="yes"/>
      <point x="548" y="497"/>
      <point x="574" y="418"/>
      <point x="574" y="273" type="curve" smooth="yes"/>
      <point x="574" y="129"/>
      <point x="547" y="51"/>
      <point x="480" y="51" type="curve" smooth="yes"/>
      <point x="415" y="51"/>
      <point x="386" y="129"/>
      <point x="386" y="273" type="curve" smooth="yes"/>
      <point x="386" y="436"/>
      <point x="410" y="497"/>
    </contour>
  </outline>
</glyph>
<glyph name="en-georgian" format="2">
  <advance width="456"/>
  <unicode hex="10D4"/>
  <note>
uni10D4
</note>
  <anchor x="228" y="536" name="top"/>
  <outline>
    <contour>
      <point x="216" y="-252" type="curve" smooth="yes"/>
      <point x="335" y="-252"/>
      <point x="396" y="-167"/>
      <point x="396" y="-16" type="curve" smooth="yes"/>
      <point x="396" y="347" type="line" smooth="yes"/>
      <point x="396" y="471"/>
      <point x="324" y="548"/>
      <point x="222" y="548" type="curve" smooth="yes"/>
      <point x="120" y="548"/>
      <point x="54" y="471"/>
      <point x="54" y="383" type="curve" smooth="yes"/>
      <point x="54" y="315"/>
      <point x="83" y="276"/>
      <point x="120" y="276" type="curve" smooth="yes"/>
      <point x="132" y="276"/>
      <point x="145" y="279"/>
      <point x="156" y="286" type="curve"/>
      <point x="142" y="315"/>
      <point x="137" y="347"/>
      <point x="137" y="381" type="curve" smooth="yes"/>
      <point x="137" y="442"/>
      <point x="162" y="497"/>
      <point x="221" y="497" type="curve" smooth="yes"/>
      <point x="278" y="497"/>
      <point x="310" y="449"/>
      <point x="310" y="360" type="curve" smooth="yes"/>
      <point x="310" y="-37" type="line" smooth="yes"/>
      <point x="310" y="-139"/>
      <point x="281" y="-201"/>
      <point x="216" y="-201" type="curve" smooth="yes"/>
      <point x="149" y="-201"/>
      <point x="123" y="-139"/>
      <point x="123" y="-47" type="curve" smooth="yes"/>
      <point x="123" y="19"/>
      <point x="138" y="55"/>
      <point x="153" y="80" type="curve"/>
      <point x="144" y="86"/>
      <point x="133" y="89"/>
      <point x="122" y="89" type="curve" smooth="yes"/>
      <point x="83" y="89"/>
      <point x="37" y="52"/>
      <point x="37" y="-56" type="curve" smooth="yes"/>
      <point x="37" y="-167"/>
      <point x="96" y="-252"/>
    </contour>
  </outline>
</glyph>
<glyph name="vin-georgian" format="2">
  <advance width="456"/>
  <unicode hex="10D5"/>
  <note>
uni10D5
</note>
  <outline>
    <contour>
      <point x="226" y="-252" type="curve" smooth="yes"/>
      <point x="350" y="-252"/>
      <point x="419" y="-167"/>
      <point x="419" y="-19" type="curve" smooth="yes"/>
      <point x="419" y="116"/>
      <point x="349" y="177"/>
      <point x="283" y="195" type="curve"/>
      <point x="283" y="197" type="line"/>
      <point x="349" y="222"/>
      <point x="398" y="272"/>
      <point x="398" y="365" type="curve" smooth="yes"/>
      <point x="398" y="489"/>
      <point x="324" y="548"/>
      <point x="224" y="548" type="curve" smooth="yes"/>
      <point x="120" y="548"/>
      <point x="54" y="471"/>
      <point x="54" y="403" type="curve" smooth="yes"/>
      <point x="54" y="340"/>
      <point x="86" y="311"/>
      <point x="115" y="311" type="curve" smooth="yes"/>
      <point x="127" y="311"/>
      <point x="140" y="314"/>
      <point x="151" y="321" type="curve"/>
      <point x="140" y="350"/>
      <point x="137" y="367"/>
      <point x="137" y="401" type="curve" smooth="yes"/>
      <point x="137" y="442"/>
      <point x="162" y="497"/>
      <point x="223" y="497" type="curve" smooth="yes"/>
      <point x="278" y="497"/>
      <point x="310" y="453"/>
      <point x="310" y="364" type="curve" smooth="yes"/>
      <point x="310" y="259"/>
      <point x="262" y="220"/>
      <point x="209" y="220" type="curve" smooth="yes"/>
      <point x="175" y="220" type="line"/>
      <point x="175" y="166" type="line"/>
      <point x="215" y="166" type="line" smooth="yes"/>
      <point x="287" y="166"/>
      <point x="330" y="104"/>
      <point x="330" y="-24" type="curve" smooth="yes"/>
      <point x="330" y="-139"/>
      <point x="296" y="-201"/>
      <point x="226" y="-201" type="curve" smooth="yes"/>
      <point x="154" y="-201"/>
      <point x="123" y="-139"/>
      <point x="123" y="-67" type="curve" smooth="yes"/>
      <point x="123" y="-11"/>
      <point x="135" y="25"/>
      <point x="149" y="50" type="curve"/>
      <point x="140" y="56"/>
      <point x="129" y="59"/>
      <point x="118" y="59" type="curve" smooth="yes"/>
      <point x="79" y="59"/>
      <point x="37" y="22"/>
      <point x="37" y="-67" type="curve" smooth="yes"/>
      <point x="37" y="-167"/>
      <point x="101" y="-252"/>
    </contour>
  </outline>
</glyph>
<glyph name="zen-georgian" format="2">
  <advance width="489"/>
  <unicode hex="10D6"/>
  <note>
uni10D6
</note>
  <outline>
    <contour>
      <point x="256" y="-12" type="curve" smooth="yes"/>
      <point x="381" y="-12"/>
      <point x="447" y="79"/>
      <point x="447" y="267" type="curve" smooth="yes"/>
      <point x="447" y="426"/>
      <point x="400" y="509"/>
      <point x="292" y="531" type="curve" smooth="yes"/>
      <point x="286" y="532"/>
      <point x="275" y="533"/>
      <point x="273" y="533" type="curve"/>
      <point x="272" y="535" type="line"/>
      <point x="290" y="558"/>
      <point x="302" y="585"/>
      <point x="302" y="628" type="curve" smooth="yes"/>
      <point x="302" y="706"/>
      <point x="246" y="772"/>
      <point x="158" y="772" type="curve" smooth="yes"/>
      <point x="72" y="772"/>
      <point x="15" y="706"/>
      <point x="15" y="618" type="curve" smooth="yes"/>
      <point x="15" y="540"/>
      <point x="66" y="484"/>
      <point x="135" y="473" type="curve"/>
      <point x="135" y="471" type="line"/>
      <point x="96" y="427"/>
      <point x="67" y="365"/>
      <point x="67" y="267" type="curve" smooth="yes"/>
      <point x="67" y="79"/>
      <point x="139" y="-12"/>
    </contour>
    <contour>
      <point x="258" y="39" type="curve" smooth="yes"/>
      <point x="184" y="39"/>
      <point x="156" y="117"/>
      <point x="156" y="267" type="curve" smooth="yes"/>
      <point x="156" y="406"/>
      <point x="184" y="484"/>
      <point x="257" y="484" type="curve" smooth="yes"/>
      <point x="332" y="484"/>
      <point x="358" y="406"/>
      <point x="358" y="267" type="curve" smooth="yes"/>
      <point x="358" y="117"/>
      <point x="332" y="39"/>
    </contour>
    <contour>
      <point x="159" y="510" type="curve" smooth="yes"/>
      <point x="114" y="510"/>
      <point x="94" y="554"/>
      <point x="94" y="620" type="curve" smooth="yes"/>
      <point x="94" y="683"/>
      <point x="114" y="730"/>
      <point x="158" y="730" type="curve" smooth="yes"/>
      <point x="202" y="730"/>
      <point x="223" y="683"/>
      <point x="223" y="620" type="curve" smooth="yes"/>
      <point x="223" y="554"/>
      <point x="202" y="510"/>
    </contour>
  </outline>
</glyph>
<glyph name="tan-georgian" format="2">
  <advance width="705"/>
  <unicode hex="10D7"/>
  <note>
uni10D7
</note>
  <outline>
    <contour>
      <point x="224" y="-12" type="curve" smooth="yes"/>
      <point x="340" y="-12"/>
      <point x="405" y="78"/>
      <point x="405" y="268" type="curve" smooth="yes"/>
      <point x="405" y="318" type="line" smooth="yes"/>
      <point x="405" y="441"/>
      <point x="424" y="497"/>
      <point x="488" y="497" type="curve" smooth="yes"/>
      <point x="548" y="497"/>
      <point x="574" y="421"/>
      <point x="574" y="268" type="curve" smooth="yes"/>
      <point x="574" y="138"/>
      <point x="553" y="47"/>
      <point x="497" y="31" type="curve"/>
      <point x="497" y="4"/>
      <point x="509" y="-7"/>
      <point x="534" y="-7" type="curve" smooth="yes"/>
      <point x="606" y="-7"/>
      <point x="663" y="100"/>
      <point x="663" y="268" type="curve" smooth="yes"/>
      <point x="663" y="459"/>
      <point x="596" y="548"/>
      <point x="493" y="548" type="curve" smooth="yes"/>
      <point x="444" y="548"/>
      <point x="386" y="524"/>
      <point x="363" y="446" type="curve"/>
      <point x="360" y="446" type="line"/>
      <point x="338" y="523"/>
      <point x="269" y="548"/>
      <point x="224" y="548" type="curve" smooth="yes"/>
      <point x="105" y="548"/>
      <point x="42" y="454"/>
      <point x="42" y="268" type="curve" smooth="yes"/>
      <point x="42" y="78"/>
      <point x="113" y="-12"/>
    </contour>
    <contour>
      <point x="225" y="39" type="curve" smooth="yes"/>
      <point x="158" y="39"/>
      <point x="131" y="117"/>
      <point x="131" y="268" type="curve" smooth="yes"/>
      <point x="131" y="418"/>
      <point x="157" y="497"/>
      <point x="224" y="497" type="curve" smooth="yes"/>
      <point x="295" y="497"/>
      <point x="319" y="436"/>
      <point x="319" y="268" type="curve" smooth="yes"/>
      <point x="319" y="117"/>
      <point x="290" y="39"/>
    </contour>
  </outline>
</glyph>
<glyph name="in-georgian" format="2">
  <advance width="454"/>
  <unicode hex="10D8"/>
  <note>
uni10D8
</note>
  <anchor x="227" y="536" name="top"/>
  <outline>
    <contour>
      <point x="173" y="-6" type="curve" smooth="yes"/>
      <point x="188" y="-6"/>
      <point x="203" y="12"/>
      <point x="204" y="37" type="curve"/>
      <point x="137" y="51"/>
      <point x="131" y="130"/>
      <point x="131" y="269" type="curve" smooth="yes"/>
      <point x="131" y="420"/>
      <point x="158" y="496"/>
      <point x="227" y="496" type="curve" smooth="yes"/>
      <point x="297" y="496"/>
      <point x="323" y="420"/>
      <point x="323" y="269" type="curve" smooth="yes"/>
      <point x="323" y="133"/>
      <point x="316" y="53"/>
      <point x="252" y="38" type="curve"/>
      <point x="252" y="13"/>
      <point x="264" y="-6"/>
      <point x="283" y="-6" type="curve" smooth="yes"/>
      <point x="368" y="-6"/>
      <point x="412" y="103"/>
      <point x="412" y="269" type="curve" smooth="yes"/>
      <point x="412" y="458"/>
      <point x="340" y="548"/>
      <point x="229" y="548" type="curve" smooth="yes"/>
      <point x="107" y="548"/>
      <point x="42" y="458"/>
      <point x="42" y="269" type="curve" smooth="yes"/>
      <point x="42" y="103"/>
      <point x="87" y="-6"/>
    </contour>
  </outline>
</glyph>
<glyph name="kan-georgian" format="2">
  <advance width="441"/>
  <unicode hex="10D9"/>
  <note>
uni10D9
</note>
  <outline>
    <contour>
      <point x="216" y="-252" type="curve" smooth="yes"/>
      <point x="338" y="-252"/>
      <point x="404" y="-167"/>
      <point x="404" y="-9" type="curve" smooth="yes"/>
      <point x="404" y="136"/>
      <point x="334" y="197"/>
      <point x="268" y="215" type="curve"/>
      <point x="268" y="217" type="line"/>
      <point x="334" y="242"/>
      <point x="383" y="292"/>
      <point x="383" y="372" type="curve" smooth="yes"/>
      <point x="383" y="489"/>
      <point x="308" y="541"/>
      <point x="208" y="541" type="curve"/>
      <point x="208" y="497" type="line"/>
      <point x="263" y="497"/>
      <point x="295" y="453"/>
      <point x="295" y="371" type="curve" smooth="yes"/>
      <point x="295" y="279"/>
      <point x="247" y="240"/>
      <point x="194" y="240" type="curve" smooth="yes"/>
      <point x="160" y="240" type="line"/>
      <point x="160" y="186" type="line"/>
      <point x="200" y="186" type="line" smooth="yes"/>
      <point x="272" y="186"/>
      <point x="315" y="124"/>
      <point x="315" y="-14" type="curve" smooth="yes"/>
      <point x="315" y="-139"/>
      <point x="284" y="-201"/>
      <point x="216" y="-201" type="curve" smooth="yes"/>
      <point x="139" y="-201"/>
      <point x="118" y="-139"/>
      <point x="118" y="-67" type="curve" smooth="yes"/>
      <point x="118" y="-11"/>
      <point x="130" y="25"/>
      <point x="144" y="50" type="curve"/>
      <point x="135" y="56"/>
      <point x="124" y="59"/>
      <point x="113" y="59" type="curve" smooth="yes"/>
      <point x="74" y="59"/>
      <point x="32" y="22"/>
      <point x="32" y="-67" type="curve" smooth="yes"/>
      <point x="32" y="-167"/>
      <point x="86" y="-252"/>
    </contour>
  </outline>
</glyph>
<glyph name="las-georgian" format="2">
  <advance width="905"/>
  <unicode hex="10DA"/>
  <note>
uni10DA
</note>
  <outline>
    <contour>
      <point x="695" y="548" type="curve" smooth="yes"/>
      <point x="656" y="548"/>
      <point x="596" y="524"/>
      <point x="573" y="446" type="curve"/>
      <point x="570" y="446" type="line"/>
      <point x="550" y="524"/>
      <point x="501" y="548"/>
      <point x="452" y="548" type="curve" smooth="yes"/>
      <point x="403" y="548"/>
      <point x="356" y="524"/>
      <point x="335" y="446" type="curve"/>
      <point x="332" y="446" type="line"/>
      <point x="310" y="524"/>
      <point x="252" y="548"/>
      <point x="213" y="548" type="curve" smooth="yes"/>
      <point x="104" y="548"/>
      <point x="42" y="459"/>
      <point x="42" y="279" type="curve" smooth="yes"/>
      <point x="42" y="79"/>
      <point x="150" y="-16"/>
      <point x="277" y="-71" type="curve"/>
      <point x="277" y="-75" type="line"/>
      <point x="235" y="-77"/>
      <point x="180" y="-95"/>
      <point x="148" y="-125" type="curve"/>
      <point x="168" y="-155" type="line"/>
      <point x="214" y="-125"/>
      <point x="265" y="-117"/>
      <point x="331" y="-117" type="curve" smooth="yes"/>
      <point x="432" y="-117"/>
      <point x="571" y="-164"/>
      <point x="571" y="-252" type="curve"/>
      <point x="606" y="-252"/>
      <point x="628" y="-234"/>
      <point x="628" y="-201" type="curve" smooth="yes"/>
      <point x="628" y="-131"/>
      <point x="530" y="-91"/>
      <point x="427" y="-62" type="curve" smooth="yes"/>
      <point x="288" y="-23"/>
      <point x="131" y="35"/>
      <point x="131" y="279" type="curve" smooth="yes"/>
      <point x="131" y="421"/>
      <point x="155" y="497"/>
      <point x="214" y="497" type="curve" smooth="yes"/>
      <point x="269" y="497"/>
      <point x="291" y="441"/>
      <point x="291" y="318" type="curve" smooth="yes"/>
      <point x="291" y="180" type="line"/>
      <point x="375" y="180" type="line"/>
      <point x="375" y="318" type="line" smooth="yes"/>
      <point x="375" y="441"/>
      <point x="398" y="497"/>
      <point x="452" y="497" type="curve" smooth="yes"/>
      <point x="507" y="497"/>
      <point x="529" y="441"/>
      <point x="529" y="318" type="curve" smooth="yes"/>
      <point x="529" y="180" type="line"/>
      <point x="613" y="180" type="line"/>
      <point x="613" y="318" type="line" smooth="yes"/>
      <point x="613" y="441"/>
      <point x="636" y="497"/>
      <point x="690" y="497" type="curve" smooth="yes"/>
      <point x="750" y="497"/>
      <point x="774" y="421"/>
      <point x="774" y="268" type="curve" smooth="yes"/>
      <point x="774" y="145"/>
      <point x="753" y="54"/>
      <point x="697" y="38" type="curve"/>
      <point x="697" y="11"/>
      <point x="709" y="0"/>
      <point x="734" y="0" type="curve" smooth="yes"/>
      <point x="806" y="0"/>
      <point x="863" y="107"/>
      <point x="863" y="268" type="curve" smooth="yes"/>
      <point x="863" y="459"/>
      <point x="798" y="548"/>
    </contour>
  </outline>
</glyph>
<glyph name="man-georgian" format="2">
  <advance width="475"/>
  <unicode hex="10DB"/>
  <note>
uni10DB
</note>
  <outline>
    <contour>
      <point x="227" y="-10" type="curve" smooth="yes"/>
      <point x="349" y="-10"/>
      <point x="410" y="75"/>
      <point x="410" y="266" type="curve" smooth="yes"/>
      <point x="410" y="581" type="line" smooth="yes"/>
      <point x="410" y="705"/>
      <point x="338" y="772"/>
      <point x="236" y="772" type="curve" smooth="yes"/>
      <point x="126" y="772"/>
      <point x="68" y="715"/>
      <point x="68" y="660" type="curve" smooth="yes"/>
      <point x="68" y="631"/>
      <point x="85" y="604"/>
      <point x="119" y="604" type="curve" smooth="yes"/>
      <point x="135" y="604"/>
      <point x="145" y="606"/>
      <point x="156" y="610" type="curve"/>
      <point x="152" y="622"/>
      <point x="150" y="633"/>
      <point x="150" y="644" type="curve" smooth="yes"/>
      <point x="150" y="689"/>
      <point x="179" y="723"/>
      <point x="235" y="723" type="curve" smooth="yes"/>
      <point x="292" y="723"/>
      <point x="324" y="693"/>
      <point x="324" y="604" type="curve" smooth="yes"/>
      <point x="324" y="540" type="line" smooth="yes"/>
      <point x="324" y="516"/>
      <point x="324" y="479"/>
      <point x="326" y="448" type="curve"/>
      <point x="322" y="448" type="line"/>
      <point x="299" y="500"/>
      <point x="265" y="536"/>
      <point x="204" y="536" type="curve" smooth="yes"/>
      <point x="99" y="536"/>
      <point x="42" y="450"/>
      <point x="42" y="267" type="curve" smooth="yes"/>
      <point x="42" y="75"/>
      <point x="99" y="-10"/>
    </contour>
    <contour>
      <point x="227" y="41" type="curve" smooth="yes"/>
      <point x="157" y="41"/>
      <point x="131" y="114"/>
      <point x="131" y="266" type="curve" smooth="yes"/>
      <point x="131" y="401"/>
      <point x="157" y="481"/>
      <point x="222" y="481" type="curve" smooth="yes"/>
      <point x="299" y="481"/>
      <point x="324" y="401"/>
      <point x="324" y="267" type="curve" smooth="yes"/>
      <point x="324" y="128"/>
      <point x="295" y="41"/>
    </contour>
  </outline>
</glyph>
<glyph name="nar-georgian" format="2">
  <advance width="484"/>
  <unicode hex="10DC"/>
  <note>
uni10DC
</note>
  <outline>
    <contour>
      <point x="257" y="-10" type="curve" smooth="yes"/>
      <point x="385" y="-10"/>
      <point x="442" y="75"/>
      <point x="442" y="267" type="curve" smooth="yes"/>
      <point x="442" y="462"/>
      <point x="385" y="548"/>
      <point x="280" y="548" type="curve" smooth="yes"/>
      <point x="219" y="548"/>
      <point x="185" y="512"/>
      <point x="162" y="460" type="curve"/>
      <point x="158" y="460" type="line"/>
      <point x="160" y="491"/>
      <point x="160" y="528"/>
      <point x="160" y="552" type="curve" smooth="yes"/>
      <point x="160" y="614" type="line" smooth="yes"/>
      <point x="160" y="693"/>
      <point x="192" y="717"/>
      <point x="246" y="717" type="curve" smooth="yes"/>
      <point x="273" y="717"/>
      <point x="291" y="710"/>
      <point x="306" y="703" type="curve" smooth="yes"/>
      <point x="324" y="694"/>
      <point x="337" y="688"/>
      <point x="359" y="688" type="curve" smooth="yes"/>
      <point x="385" y="688"/>
      <point x="409" y="704"/>
      <point x="409" y="733" type="curve" smooth="yes"/>
      <point x="409" y="755"/>
      <point x="397" y="766"/>
      <point x="385" y="772" type="curve"/>
      <point x="371" y="755"/>
      <point x="356" y="751"/>
      <point x="338" y="751" type="curve" smooth="yes"/>
      <point x="322" y="751"/>
      <point x="310" y="753"/>
      <point x="294" y="758" type="curve" smooth="yes"/>
      <point x="279" y="763"/>
      <point x="263" y="766"/>
      <point x="238" y="766" type="curve" smooth="yes"/>
      <point x="146" y="766"/>
      <point x="74" y="705"/>
      <point x="74" y="601" type="curve" smooth="yes"/>
      <point x="74" y="266" type="line" smooth="yes"/>
      <point x="74" y="75"/>
      <point x="135" y="-10"/>
    </contour>
    <contour>
      <point x="257" y="41" type="curve" smooth="yes"/>
      <point x="189" y="41"/>
      <point x="160" y="128"/>
      <point x="160" y="267" type="curve" smooth="yes"/>
      <point x="160" y="413"/>
      <point x="185" y="493"/>
      <point x="262" y="493" type="curve" smooth="yes"/>
      <point x="327" y="493"/>
      <point x="353" y="413"/>
      <point x="353" y="266" type="curve" smooth="yes"/>
      <point x="353" y="114"/>
      <point x="327" y="41"/>
    </contour>
  </outline>
</glyph>
<glyph name="on-georgian" format="2">
  <advance width="683"/>
  <unicode hex="10DD"/>
  <note>
uni10DD
</note>
  <anchor x="342" y="536" name="top"/>
  <outline>
    <contour>
      <point x="173" y="-7" type="curve" smooth="yes"/>
      <point x="193" y="-7"/>
      <point x="209" y="2"/>
      <point x="209" y="30" type="curve"/>
      <point x="151" y="45"/>
      <point x="131" y="134"/>
      <point x="131" y="268" type="curve" smooth="yes"/>
      <point x="131" y="421"/>
      <point x="157" y="497"/>
      <point x="216" y="497" type="curve" smooth="yes"/>
      <point x="281" y="497"/>
      <point x="299" y="441"/>
      <point x="299" y="318" type="curve" smooth="yes"/>
      <point x="299" y="180" type="line"/>
      <point x="383" y="180" type="line"/>
      <point x="383" y="318" type="line" smooth="yes"/>
      <point x="383" y="441"/>
      <point x="402" y="497"/>
      <point x="466" y="497" type="curve" smooth="yes"/>
      <point x="526" y="497"/>
      <point x="552" y="421"/>
      <point x="552" y="268" type="curve" smooth="yes"/>
      <point x="552" y="138"/>
      <point x="531" y="47"/>
      <point x="475" y="31" type="curve"/>
      <point x="475" y="4"/>
      <point x="487" y="-7"/>
      <point x="512" y="-7" type="curve" smooth="yes"/>
      <point x="584" y="-7"/>
      <point x="641" y="100"/>
      <point x="641" y="268" type="curve" smooth="yes"/>
      <point x="641" y="459"/>
      <point x="574" y="548"/>
      <point x="471" y="548" type="curve" smooth="yes"/>
      <point x="422" y="548"/>
      <point x="366" y="524"/>
      <point x="343" y="446" type="curve"/>
      <point x="340" y="446" type="line"/>
      <point x="318" y="524"/>
      <point x="264" y="548"/>
      <point x="215" y="548" type="curve" smooth="yes"/>
      <point x="106" y="548"/>
      <point x="42" y="459"/>
      <point x="42" y="268" type="curve" smooth="yes"/>
      <point x="42" y="99"/>
      <point x="104" y="-7"/>
    </contour>
  </outline>
</glyph>
<glyph name="par-georgian" format="2">
  <advance width="447"/>
  <unicode hex="10DE"/>
  <note>
uni10DE
</note>
  <outline>
    <contour>
      <point x="216" y="-12" type="curve" smooth="yes"/>
      <point x="335" y="-12"/>
      <point x="405" y="64"/>
      <point x="405" y="191" type="curve" smooth="yes"/>
      <point x="405" y="317"/>
      <point x="346" y="387"/>
      <point x="277" y="399" type="curve"/>
      <point x="277" y="401" type="line"/>
      <point x="346" y="422"/>
      <point x="380" y="461"/>
      <point x="380" y="510" type="curve" smooth="yes"/>
      <point x="380" y="577"/>
      <point x="330" y="611"/>
      <point x="288" y="642" type="curve" smooth="yes"/>
      <point x="260" y="662"/>
      <point x="238" y="685"/>
      <point x="238" y="719" type="curve" smooth="yes"/>
      <point x="238" y="732"/>
      <point x="240" y="744"/>
      <point x="246" y="757" type="curve"/>
      <point x="237" y="766"/>
      <point x="226" y="772"/>
      <point x="207" y="772" type="curve" smooth="yes"/>
      <point x="172" y="772"/>
      <point x="159" y="741"/>
      <point x="159" y="715" type="curve" smooth="yes"/>
      <point x="159" y="662"/>
      <point x="190" y="634"/>
      <point x="224" y="609" type="curve" smooth="yes"/>
      <point x="260" y="583"/>
      <point x="292" y="558"/>
      <point x="292" y="510" type="curve" smooth="yes"/>
      <point x="292" y="461"/>
      <point x="263" y="423"/>
      <point x="200" y="423" type="curve" smooth="yes"/>
      <point x="170" y="423" type="line"/>
      <point x="170" y="369" type="line"/>
      <point x="202" y="369" type="line" smooth="yes"/>
      <point x="287" y="369"/>
      <point x="316" y="319"/>
      <point x="316" y="194" type="curve" smooth="yes"/>
      <point x="316" y="96"/>
      <point x="284" y="39"/>
      <point x="216" y="39" type="curve" smooth="yes"/>
      <point x="155" y="39"/>
      <point x="123" y="90"/>
      <point x="123" y="158" type="curve" smooth="yes"/>
      <point x="123" y="198"/>
      <point x="129" y="225"/>
      <point x="141" y="252" type="curve"/>
      <point x="128" y="258"/>
      <point x="119" y="261"/>
      <point x="108" y="261" type="curve" smooth="yes"/>
      <point x="63" y="261"/>
      <point x="37" y="216"/>
      <point x="37" y="155" type="curve" smooth="yes"/>
      <point x="37" y="56"/>
      <point x="114" y="-12"/>
    </contour>
  </outline>
</glyph>
<glyph name="zhar-georgian" format="2">
  <advance width="499"/>
  <unicode hex="10DF"/>
  <note>
uni10DF
</note>
  <outline>
    <contour>
      <point x="246" y="-252" type="curve" smooth="yes"/>
      <point x="368" y="-252"/>
      <point x="434" y="-167"/>
      <point x="434" y="-9" type="curve" smooth="yes"/>
      <point x="434" y="536" type="line"/>
      <point x="346" y="536" type="line"/>
      <point x="296" y="503"/>
      <point x="228" y="487"/>
      <point x="151" y="475" type="curve"/>
      <point x="151" y="423" type="line"/>
      <point x="196" y="403"/>
      <point x="205" y="362"/>
      <point x="205" y="314" type="curve" smooth="yes"/>
      <point x="205" y="263"/>
      <point x="191" y="236"/>
      <point x="158" y="236" type="curve" smooth="yes"/>
      <point x="123" y="236"/>
      <point x="110" y="263"/>
      <point x="110" y="305" type="curve" smooth="yes"/>
      <point x="110" y="314"/>
      <point x="112" y="326"/>
      <point x="114" y="336" type="curve"/>
      <point x="105" y="339"/>
      <point x="95" y="341"/>
      <point x="88" y="341" type="curve" smooth="yes"/>
      <point x="58" y="341"/>
      <point x="37" y="320"/>
      <point x="37" y="286" type="curve" smooth="yes"/>
      <point x="37" y="234"/>
      <point x="81" y="191"/>
      <point x="158" y="191" type="curve" smooth="yes"/>
      <point x="225" y="191"/>
      <point x="281" y="232"/>
      <point x="281" y="314" type="curve" smooth="yes"/>
      <point x="281" y="359"/>
      <point x="257" y="410"/>
      <point x="209" y="436" type="curve"/>
      <point x="209" y="438" type="line"/>
      <point x="262" y="444"/>
      <point x="312" y="458"/>
      <point x="345" y="480" type="curve"/>
      <point x="349" y="480" type="line"/>
      <point x="346" y="460"/>
      <point x="345" y="439"/>
      <point x="345" y="418" type="curve" smooth="yes"/>
      <point x="345" y="-14" type="line" smooth="yes"/>
      <point x="345" y="-139"/>
      <point x="314" y="-201"/>
      <point x="246" y="-201" type="curve" smooth="yes"/>
      <point x="169" y="-201"/>
      <point x="148" y="-139"/>
      <point x="148" y="-67" type="curve" smooth="yes"/>
      <point x="148" y="-11"/>
      <point x="160" y="25"/>
      <point x="174" y="50" type="curve"/>
      <point x="165" y="56"/>
      <point x="154" y="59"/>
      <point x="143" y="59" type="curve" smooth="yes"/>
      <point x="104" y="59"/>
      <point x="62" y="22"/>
      <point x="62" y="-67" type="curve" smooth="yes"/>
      <point x="62" y="-167"/>
      <point x="116" y="-252"/>
    </contour>
  </outline>
</glyph>
<glyph name="rae-georgian" format="2">
  <advance width="680"/>
  <unicode hex="10E0"/>
  <note>
uni10E0
</note>
  <outline>
    <contour>
      <point x="170" y="-7" type="curve" smooth="yes"/>
      <point x="190" y="-7"/>
      <point x="206" y="2"/>
      <point x="206" y="30" type="curve"/>
      <point x="148" y="45"/>
      <point x="128" y="134"/>
      <point x="128" y="268" type="curve" smooth="yes"/>
      <point x="128" y="411"/>
      <point x="154" y="487"/>
      <point x="213" y="487" type="curve" smooth="yes"/>
      <point x="278" y="487"/>
      <point x="296" y="431"/>
      <point x="296" y="318" type="curve" smooth="yes"/>
      <point x="296" y="180" type="line"/>
      <point x="380" y="180" type="line"/>
      <point x="380" y="318" type="line" smooth="yes"/>
      <point x="380" y="431"/>
      <point x="399" y="487"/>
      <point x="463" y="487" type="curve" smooth="yes"/>
      <point x="523" y="487"/>
      <point x="549" y="411"/>
      <point x="549" y="268" type="curve" smooth="yes"/>
      <point x="549" y="138"/>
      <point x="528" y="47"/>
      <point x="472" y="31" type="curve"/>
      <point x="472" y="4"/>
      <point x="484" y="-7"/>
      <point x="509" y="-7" type="curve" smooth="yes"/>
      <point x="581" y="-7"/>
      <point x="638" y="100"/>
      <point x="638" y="268" type="curve" smooth="yes"/>
      <point x="638" y="449"/>
      <point x="571" y="538"/>
      <point x="468" y="538" type="curve" smooth="yes"/>
      <point x="419" y="538"/>
      <point x="363" y="514"/>
      <point x="340" y="436" type="curve"/>
      <point x="337" y="436" type="line"/>
      <point x="315" y="514"/>
      <point x="261" y="538"/>
      <point x="213" y="538" type="curve" smooth="yes"/>
      <point x="171" y="538"/>
      <point x="124" y="516"/>
      <point x="98" y="469" type="curve"/>
      <point x="96" y="469" type="line"/>
      <point x="117" y="567"/>
      <point x="182" y="608"/>
      <point x="294" y="634" type="curve" smooth="yes"/>
      <point x="399" y="658"/>
      <point x="448" y="683"/>
      <point x="448" y="772" type="curve"/>
      <point x="417" y="772" type="line"/>
      <point x="410" y="737"/>
      <point x="369" y="730"/>
      <point x="289" y="712" type="curve" smooth="yes"/>
      <point x="107" y="671"/>
      <point x="42" y="547"/>
      <point x="42" y="328" type="curve" smooth="yes"/>
      <point x="42" y="278" type="line" smooth="yes"/>
      <point x="42" y="99"/>
      <point x="101" y="-7"/>
    </contour>
  </outline>
</glyph>
<glyph name="san-georgian" format="2">
  <advance width="491"/>
  <unicode hex="10E1"/>
  <note>
uni10E1
</note>
  <outline>
    <contour>
      <point x="263" y="-12" type="curve" smooth="yes"/>
      <point x="391" y="-12"/>
      <point x="449" y="74"/>
      <point x="449" y="178" type="curve" smooth="yes"/>
      <point x="449" y="265"/>
      <point x="418" y="313"/>
      <point x="392" y="357" type="curve" smooth="yes"/>
      <point x="374" y="388"/>
      <point x="357" y="421"/>
      <point x="357" y="472" type="curve" smooth="yes"/>
      <point x="357" y="495"/>
      <point x="364" y="520"/>
      <point x="374" y="533" type="curve"/>
      <point x="365" y="542"/>
      <point x="354" y="548"/>
      <point x="335" y="548" type="curve" smooth="yes"/>
      <point x="300" y="548"/>
      <point x="278" y="517"/>
      <point x="278" y="476" type="curve" smooth="yes"/>
      <point x="278" y="404"/>
      <point x="303" y="362"/>
      <point x="325" y="323" type="curve" smooth="yes"/>
      <point x="344" y="289"/>
      <point x="360" y="251"/>
      <point x="360" y="179" type="curve" smooth="yes"/>
      <point x="360" y="100"/>
      <point x="329" y="39"/>
      <point x="262" y="39" type="curve" smooth="yes"/>
      <point x="196" y="39"/>
      <point x="167" y="100"/>
      <point x="167" y="222" type="curve" smooth="yes"/>
      <point x="167" y="760" type="line"/>
      <point x="19" y="760" type="line"/>
      <point x="19" y="719" type="line"/>
      <point x="21" y="719" type="line" smooth="yes"/>
      <point x="58" y="719"/>
      <point x="81" y="710"/>
      <point x="81" y="650" type="curve" smooth="yes"/>
      <point x="81" y="217" type="line" smooth="yes"/>
      <point x="81" y="74"/>
      <point x="133" y="-12"/>
    </contour>
  </outline>
</glyph>
<glyph name="tar-georgian" format="2">
  <advance width="627"/>
  <unicode hex="10E2"/>
  <note>
uni10E2
</note>
  <outline>
    <contour>
      <point x="314" y="-252" type="curve" smooth="yes"/>
      <point x="488" y="-252"/>
      <point x="585" y="-84"/>
      <point x="585" y="143" type="curve" smooth="yes"/>
      <point x="585" y="376"/>
      <point x="508" y="508"/>
      <point x="368" y="538" type="curve"/>
      <point x="368" y="541" type="line"/>
      <point x="403" y="565"/>
      <point x="432" y="605"/>
      <point x="432" y="658" type="curve" smooth="yes"/>
      <point x="432" y="712"/>
      <point x="397" y="772"/>
      <point x="313" y="772" type="curve" smooth="yes"/>
      <point x="230" y="772"/>
      <point x="196" y="712"/>
      <point x="196" y="658" type="curve" smooth="yes"/>
      <point x="196" y="606"/>
      <point x="223" y="565"/>
      <point x="258" y="542" type="curve"/>
      <point x="258" y="539" type="line"/>
      <point x="113" y="508"/>
      <point x="42" y="376"/>
      <point x="42" y="145" type="curve" smooth="yes"/>
      <point x="42" y="-83"/>
      <point x="130" y="-252"/>
    </contour>
    <contour>
      <point x="314" y="-201" type="curve" smooth="yes"/>
      <point x="192" y="-201"/>
      <point x="131" y="-61"/>
      <point x="131" y="143" type="curve" smooth="yes"/>
      <point x="131" y="325"/>
      <point x="143" y="438"/>
      <point x="242" y="489" type="curve"/>
      <point x="242" y="486" type="line"/>
      <point x="213" y="454"/>
      <point x="198" y="420"/>
      <point x="198" y="376" type="curve" smooth="yes"/>
      <point x="198" y="312"/>
      <point x="237" y="254"/>
      <point x="313" y="254" type="curve" smooth="yes"/>
      <point x="390" y="254"/>
      <point x="430" y="312"/>
      <point x="430" y="376" type="curve" smooth="yes"/>
      <point x="430" y="422"/>
      <point x="416" y="454"/>
      <point x="384" y="486" type="curve"/>
      <point x="384" y="489" type="line"/>
      <point x="475" y="438"/>
      <point x="496" y="325"/>
      <point x="496" y="143" type="curve" smooth="yes"/>
      <point x="496" y="-61"/>
      <point x="439" y="-201"/>
    </contour>
    <contour>
      <point x="313" y="292" type="curve"/>
      <point x="279" y="292"/>
      <point x="260" y="326"/>
      <point x="260" y="382" type="curve" smooth="yes"/>
      <point x="260" y="431"/>
      <point x="278" y="473"/>
      <point x="313" y="502" type="curve"/>
      <point x="350" y="473"/>
      <point x="367" y="431"/>
      <point x="367" y="382" type="curve" smooth="yes"/>
      <point x="367" y="326"/>
      <point x="349" y="292"/>
    </contour>
    <contour>
      <point x="313" y="543" type="curve"/>
      <point x="277" y="570"/>
      <point x="260" y="605"/>
      <point x="260" y="655" type="curve" smooth="yes"/>
      <point x="260" y="704"/>
      <point x="278" y="736"/>
      <point x="313" y="736" type="curve"/>
      <point x="349" y="736"/>
      <point x="367" y="704"/>
      <point x="367" y="655" type="curve" smooth="yes"/>
      <point x="367" y="605"/>
      <point x="350" y="570"/>
    </contour>
  </outline>
</glyph>
<glyph name="un-georgian" format="2">
  <advance width="519"/>
  <unicode hex="10E3"/>
  <note>
uni10E3
</note>
  <anchor x="260" y="536" name="top"/>
  <outline>
    <contour>
      <point x="258" y="-252" type="curve" smooth="yes"/>
      <point x="391" y="-252"/>
      <point x="459" y="-166"/>
      <point x="459" y="-19" type="curve" smooth="yes"/>
      <point x="459" y="391" type="line" smooth="yes"/>
      <point x="459" y="483"/>
      <point x="420" y="548"/>
      <point x="330" y="548" type="curve" smooth="yes"/>
      <point x="282" y="548"/>
      <point x="238" y="523"/>
      <point x="226" y="482" type="curve"/>
      <point x="222" y="482" type="line"/>
      <point x="215" y="523"/>
      <point x="184" y="544"/>
      <point x="152" y="544" type="curve" smooth="yes"/>
      <point x="137" y="544"/>
      <point x="126" y="542"/>
      <point x="115" y="537" type="curve" smooth="yes"/>
      <point x="103" y="532"/>
      <point x="94" y="531"/>
      <point x="80" y="531" type="curve" smooth="yes"/>
      <point x="68" y="531"/>
      <point x="53" y="535"/>
      <point x="39" y="552" type="curve"/>
      <point x="27" y="546"/>
      <point x="15" y="533"/>
      <point x="15" y="511" type="curve" smooth="yes"/>
      <point x="15" y="482"/>
      <point x="37" y="466"/>
      <point x="63" y="466" type="curve" smooth="yes"/>
      <point x="81" y="466"/>
      <point x="94" y="473"/>
      <point x="106" y="482" type="curve" smooth="yes"/>
      <point x="118" y="491"/>
      <point x="129" y="498"/>
      <point x="144" y="498" type="curve" smooth="yes"/>
      <point x="171" y="498"/>
      <point x="179" y="477"/>
      <point x="179" y="436" type="curve" smooth="yes"/>
      <point x="179" y="267" type="line"/>
      <point x="259" y="267" type="line"/>
      <point x="259" y="422" type="line" smooth="yes"/>
      <point x="259" y="475"/>
      <point x="280" y="502"/>
      <point x="315" y="502" type="curve" smooth="yes"/>
      <point x="349" y="502"/>
      <point x="373" y="475"/>
      <point x="373" y="422" type="curve" smooth="yes"/>
      <point x="373" y="-16" type="line" smooth="yes"/>
      <point x="373" y="-135"/>
      <point x="339" y="-201"/>
      <point x="258" y="-201" type="curve" smooth="yes"/>
      <point x="181" y="-201"/>
      <point x="145" y="-139"/>
      <point x="145" y="-42" type="curve" smooth="yes"/>
      <point x="145" y="19"/>
      <point x="160" y="55"/>
      <point x="175" y="80" type="curve"/>
      <point x="166" y="86"/>
      <point x="155" y="89"/>
      <point x="144" y="89" type="curve" smooth="yes"/>
      <point x="105" y="89"/>
      <point x="59" y="52"/>
      <point x="59" y="-51" type="curve" smooth="yes"/>
      <point x="59" y="-166"/>
      <point x="128" y="-252"/>
    </contour>
  </outline>
</glyph>
<glyph name="phar-georgian" format="2">
  <advance width="705"/>
  <unicode hex="10E4"/>
  <note>
uni10E4
</note>
  <outline>
    <contour>
      <point x="428" y="-252" type="curve" smooth="yes"/>
      <point x="575" y="-252"/>
      <point x="654" y="-161"/>
      <point x="654" y="-29" type="curve" smooth="yes"/>
      <point x="654" y="66"/>
      <point x="614" y="133"/>
      <point x="544" y="151" type="curve"/>
      <point x="544" y="153" type="line"/>
      <point x="614" y="178"/>
      <point x="663" y="232"/>
      <point x="663" y="334" type="curve" smooth="yes"/>
      <point x="663" y="460"/>
      <point x="596" y="548"/>
      <point x="493" y="548" type="curve" smooth="yes"/>
      <point x="444" y="548"/>
      <point x="386" y="524"/>
      <point x="363" y="446" type="curve"/>
      <point x="360" y="446" type="line"/>
      <point x="338" y="523"/>
      <point x="269" y="548"/>
      <point x="224" y="548" type="curve" smooth="yes"/>
      <point x="105" y="548"/>
      <point x="42" y="454"/>
      <point x="42" y="303" type="curve" smooth="yes"/>
      <point x="42" y="150"/>
      <point x="113" y="60"/>
      <point x="224" y="60" type="curve" smooth="yes"/>
      <point x="340" y="60"/>
      <point x="405" y="150"/>
      <point x="405" y="303" type="curve" smooth="yes"/>
      <point x="405" y="338" type="line" smooth="yes"/>
      <point x="405" y="441"/>
      <point x="424" y="497"/>
      <point x="488" y="497" type="curve" smooth="yes"/>
      <point x="548" y="497"/>
      <point x="575" y="421"/>
      <point x="575" y="334" type="curve" smooth="yes"/>
      <point x="575" y="219"/>
      <point x="527" y="180"/>
      <point x="474" y="180" type="curve" smooth="yes"/>
      <point x="450" y="180" type="line"/>
      <point x="450" y="126" type="line"/>
      <point x="468" y="126" type="line" smooth="yes"/>
      <point x="542" y="126"/>
      <point x="565" y="64"/>
      <point x="565" y="-34" type="curve" smooth="yes"/>
      <point x="565" y="-133"/>
      <point x="521" y="-201"/>
      <point x="428" y="-201" type="curve" smooth="yes"/>
      <point x="353" y="-201"/>
      <point x="292" y="-167"/>
      <point x="292" y="-71" type="curve" smooth="yes"/>
      <point x="292" y="-59"/>
      <point x="294" y="-47"/>
      <point x="296" y="-34" type="curve"/>
      <point x="288" y="-31"/>
      <point x="278" y="-29"/>
      <point x="268" y="-29" type="curve" smooth="yes"/>
      <point x="238" y="-29"/>
      <point x="206" y="-47"/>
      <point x="206" y="-94" type="curve" smooth="yes"/>
      <point x="206" y="-182"/>
      <point x="289" y="-252"/>
    </contour>
    <contour>
      <point x="225" y="111" type="curve" smooth="yes"/>
      <point x="158" y="111"/>
      <point x="131" y="189"/>
      <point x="131" y="303" type="curve" smooth="yes"/>
      <point x="131" y="418"/>
      <point x="157" y="497"/>
      <point x="224" y="497" type="curve" smooth="yes"/>
      <point x="295" y="497"/>
      <point x="319" y="436"/>
      <point x="319" y="303" type="curve" smooth="yes"/>
      <point x="319" y="189"/>
      <point x="290" y="111"/>
    </contour>
  </outline>
</glyph>
<glyph name="khar-georgian" format="2">
  <advance width="466"/>
  <unicode hex="10E5"/>
  <note>
uni10E5
</note>
  <outline>
    <contour>
      <point x="216" y="-252" type="curve" smooth="yes"/>
      <point x="335" y="-252"/>
      <point x="396" y="-167"/>
      <point x="396" y="-16" type="curve" smooth="yes"/>
      <point x="396" y="760" type="line"/>
      <point x="249" y="760" type="line"/>
      <point x="249" y="719" type="line"/>
      <point x="255" y="719" type="line" smooth="yes"/>
      <point x="288" y="719"/>
      <point x="310" y="710"/>
      <point x="310" y="660" type="curve" smooth="yes"/>
      <point x="310" y="567" type="line" smooth="yes"/>
      <point x="310" y="530"/>
      <point x="310" y="493"/>
      <point x="312" y="462" type="curve"/>
      <point x="308" y="462" type="line"/>
      <point x="285" y="510"/>
      <point x="251" y="548"/>
      <point x="190" y="548" type="curve" smooth="yes"/>
      <point x="106" y="548"/>
      <point x="54" y="471"/>
      <point x="54" y="383" type="curve" smooth="yes"/>
      <point x="54" y="315"/>
      <point x="83" y="276"/>
      <point x="120" y="276" type="curve" smooth="yes"/>
      <point x="132" y="276"/>
      <point x="145" y="279"/>
      <point x="156" y="286" type="curve"/>
      <point x="142" y="315"/>
      <point x="137" y="347"/>
      <point x="137" y="381" type="curve" smooth="yes"/>
      <point x="137" y="442"/>
      <point x="162" y="493"/>
      <point x="213" y="493" type="curve" smooth="yes"/>
      <point x="285" y="493"/>
      <point x="310" y="411"/>
      <point x="310" y="267" type="curve" smooth="yes"/>
      <point x="310" y="-37" type="line" smooth="yes"/>
      <point x="310" y="-139"/>
      <point x="281" y="-201"/>
      <point x="216" y="-201" type="curve" smooth="yes"/>
      <point x="149" y="-201"/>
      <point x="123" y="-139"/>
      <point x="123" y="-47" type="curve" smooth="yes"/>
      <point x="123" y="19"/>
      <point x="138" y="55"/>
      <point x="153" y="80" type="curve"/>
      <point x="144" y="86"/>
      <point x="133" y="89"/>
      <point x="122" y="89" type="curve" smooth="yes"/>
      <point x="83" y="89"/>
      <point x="37" y="52"/>
      <point x="37" y="-56" type="curve" smooth="yes"/>
      <point x="37" y="-167"/>
      <point x="96" y="-252"/>
    </contour>
  </outline>
</glyph>
<glyph name="ghan-georgian" format="2">
  <advance width="683"/>
  <unicode hex="10E6"/>
  <note>
uni10E6
</note>
  <outline>
    <contour>
      <point x="431" y="-252" type="curve"/>
      <point x="466" y="-252"/>
      <point x="488" y="-234"/>
      <point x="488" y="-201" type="curve" smooth="yes"/>
      <point x="488" y="-144"/>
      <point x="443" y="-103"/>
      <point x="357" y="-71" type="curve" smooth="yes"/>
      <point x="229" y="-24"/>
      <point x="131" y="42"/>
      <point x="131" y="279" type="curve" smooth="yes"/>
      <point x="131" y="421"/>
      <point x="157" y="497"/>
      <point x="216" y="497" type="curve" smooth="yes"/>
      <point x="281" y="497"/>
      <point x="299" y="441"/>
      <point x="299" y="318" type="curve" smooth="yes"/>
      <point x="299" y="180" type="line"/>
      <point x="383" y="180" type="line"/>
      <point x="383" y="318" type="line" smooth="yes"/>
      <point x="383" y="441"/>
      <point x="402" y="497"/>
      <point x="466" y="497" type="curve" smooth="yes"/>
      <point x="526" y="497"/>
      <point x="552" y="421"/>
      <point x="552" y="268" type="curve" smooth="yes"/>
      <point x="552" y="145"/>
      <point x="531" y="54"/>
      <point x="475" y="38" type="curve"/>
      <point x="475" y="11"/>
      <point x="487" y="0"/>
      <point x="512" y="0" type="curve" smooth="yes"/>
      <point x="584" y="0"/>
      <point x="641" y="107"/>
      <point x="641" y="268" type="curve" smooth="yes"/>
      <point x="641" y="459"/>
      <point x="574" y="548"/>
      <point x="471" y="548" type="curve" smooth="yes"/>
      <point x="422" y="548"/>
      <point x="366" y="524"/>
      <point x="343" y="446" type="curve"/>
      <point x="340" y="446" type="line"/>
      <point x="318" y="524"/>
      <point x="264" y="548"/>
      <point x="215" y="548" type="curve" smooth="yes"/>
      <point x="106" y="548"/>
      <point x="42" y="459"/>
      <point x="42" y="279" type="curve" smooth="yes"/>
      <point x="42" y="79"/>
      <point x="120" y="-11"/>
      <point x="233" y="-72" type="curve"/>
      <point x="233" y="-76" type="line"/>
      <point x="197" y="-78"/>
      <point x="151" y="-93"/>
      <point x="118" y="-115" type="curve"/>
      <point x="140" y="-147" type="line"/>
      <point x="182" y="-125"/>
      <point x="218" y="-117"/>
      <point x="277" y="-117" type="curve" smooth="yes"/>
      <point x="352" y="-117"/>
      <point x="431" y="-164"/>
    </contour>
  </outline>
</glyph>
<glyph name="qar-georgian" format="2">
  <advance width="469"/>
  <unicode hex="10E7"/>
  <note>
uni10E7
</note>
  <outline>
    <contour>
      <point x="221" y="-252" type="curve" smooth="yes"/>
      <point x="343" y="-252"/>
      <point x="404" y="-167"/>
      <point x="404" y="-9" type="curve" smooth="yes"/>
      <point x="404" y="536" type="line"/>
      <point x="315" y="536" type="line"/>
      <point x="315" y="391" type="line" smooth="yes"/>
      <point x="315" y="291"/>
      <point x="281" y="229"/>
      <point x="220" y="229" type="curve" smooth="yes"/>
      <point x="169" y="229"/>
      <point x="134" y="271"/>
      <point x="134" y="369" type="curve" smooth="yes"/>
      <point x="134" y="445"/>
      <point x="152" y="499"/>
      <point x="175" y="532" type="curve"/>
      <point x="164" y="539"/>
      <point x="156" y="542"/>
      <point x="143" y="542" type="curve" smooth="yes"/>
      <point x="102" y="542"/>
      <point x="51" y="477"/>
      <point x="51" y="367" type="curve" smooth="yes"/>
      <point x="51" y="251"/>
      <point x="113" y="174"/>
      <point x="197" y="174" type="curve" smooth="yes"/>
      <point x="258" y="174"/>
      <point x="293" y="213"/>
      <point x="316" y="261" type="curve"/>
      <point x="320" y="261" type="line"/>
      <point x="317" y="225"/>
      <point x="315" y="188"/>
      <point x="315" y="152" type="curve" smooth="yes"/>
      <point x="315" y="-14" type="line" smooth="yes"/>
      <point x="315" y="-139"/>
      <point x="289" y="-201"/>
      <point x="221" y="-201" type="curve" smooth="yes"/>
      <point x="154" y="-201"/>
      <point x="128" y="-139"/>
      <point x="128" y="-67" type="curve" smooth="yes"/>
      <point x="128" y="-11"/>
      <point x="140" y="25"/>
      <point x="154" y="50" type="curve"/>
      <point x="145" y="56"/>
      <point x="134" y="59"/>
      <point x="123" y="59" type="curve" smooth="yes"/>
      <point x="84" y="59"/>
      <point x="42" y="22"/>
      <point x="42" y="-67" type="curve" smooth="yes"/>
      <point x="42" y="-167"/>
      <point x="101" y="-252"/>
    </contour>
  </outline>
</glyph>
<glyph name="shin-georgian" format="2">
  <advance width="484"/>
  <unicode hex="10E8"/>
  <note>
uni10E8
</note>
  <outline>
    <contour>
      <point x="236" y="-10" type="curve" smooth="yes"/>
      <point x="358" y="-10"/>
      <point x="419" y="75"/>
      <point x="419" y="256" type="curve" smooth="yes"/>
      <point x="419" y="609" type="line" smooth="yes"/>
      <point x="419" y="701"/>
      <point x="399" y="772"/>
      <point x="299" y="772" type="curve" smooth="yes"/>
      <point x="265" y="772"/>
      <point x="228" y="755"/>
      <point x="216" y="714" type="curve"/>
      <point x="212" y="714" type="line"/>
      <point x="199" y="755"/>
      <point x="163" y="772"/>
      <point x="126" y="772" type="curve" smooth="yes"/>
      <point x="54" y="772"/>
      <point x="15" y="718"/>
      <point x="15" y="666" type="curve" smooth="yes"/>
      <point x="15" y="607"/>
      <point x="43" y="581"/>
      <point x="69" y="581" type="curve" smooth="yes"/>
      <point x="84" y="581"/>
      <point x="97" y="584"/>
      <point x="108" y="587" type="curve"/>
      <point x="104" y="598"/>
      <point x="98" y="620"/>
      <point x="98" y="658" type="curve" smooth="yes"/>
      <point x="98" y="697"/>
      <point x="114" y="726"/>
      <point x="138" y="726" type="curve" smooth="yes"/>
      <point x="161" y="726"/>
      <point x="173" y="701"/>
      <point x="173" y="651" type="curve" smooth="yes"/>
      <point x="173" y="591" type="line"/>
      <point x="252" y="591" type="line"/>
      <point x="252" y="651" type="line" smooth="yes"/>
      <point x="252" y="701"/>
      <point x="267" y="726"/>
      <point x="292" y="726" type="curve" smooth="yes"/>
      <point x="328" y="726"/>
      <point x="333" y="693"/>
      <point x="333" y="632" type="curve" smooth="yes"/>
      <point x="333" y="520" type="line" smooth="yes"/>
      <point x="333" y="496"/>
      <point x="333" y="459"/>
      <point x="335" y="428" type="curve"/>
      <point x="331" y="428" type="line"/>
      <point x="308" y="480"/>
      <point x="274" y="516"/>
      <point x="213" y="516" type="curve" smooth="yes"/>
      <point x="108" y="516"/>
      <point x="51" y="430"/>
      <point x="51" y="257" type="curve" smooth="yes"/>
      <point x="51" y="75"/>
      <point x="108" y="-10"/>
    </contour>
    <contour>
      <point x="236" y="41" type="curve" smooth="yes"/>
      <point x="166" y="41"/>
      <point x="140" y="114"/>
      <point x="140" y="256" type="curve" smooth="yes"/>
      <point x="140" y="381"/>
      <point x="166" y="461"/>
      <point x="231" y="461" type="curve" smooth="yes"/>
      <point x="308" y="461"/>
      <point x="333" y="381"/>
      <point x="333" y="257" type="curve" smooth="yes"/>
      <point x="333" y="128"/>
      <point x="304" y="41"/>
    </contour>
  </outline>
</glyph>
<glyph name="chin-georgian" format="2">
  <advance width="479"/>
  <unicode hex="10E9"/>
  <note>
uni10E9
</note>
  <outline>
    <contour>
      <point x="308" y="-6" type="curve" smooth="yes"/>
      <point x="393" y="-6"/>
      <point x="437" y="103"/>
      <point x="437" y="269" type="curve" smooth="yes"/>
      <point x="437" y="424"/>
      <point x="378" y="503"/>
      <point x="286" y="503" type="curve" smooth="yes"/>
      <point x="226" y="503"/>
      <point x="185" y="463"/>
      <point x="166" y="416" type="curve"/>
      <point x="163" y="416" type="line"/>
      <point x="164" y="425"/>
      <point x="165" y="462"/>
      <point x="165" y="489" type="curve" smooth="yes"/>
      <point x="165" y="511" type="line"/>
      <point x="293" y="567"/>
      <point x="368" y="588"/>
      <point x="368" y="677" type="curve" smooth="yes"/>
      <point x="368" y="728"/>
      <point x="322" y="772"/>
      <point x="235" y="772" type="curve" smooth="yes"/>
      <point x="149" y="772"/>
      <point x="79" y="712"/>
      <point x="79" y="618" type="curve" smooth="yes"/>
      <point x="79" y="0" type="line"/>
      <point x="165" y="0" type="line"/>
      <point x="165" y="278" type="line" smooth="yes"/>
      <point x="165" y="377"/>
      <point x="197" y="440"/>
      <point x="259" y="440" type="curve" smooth="yes"/>
      <point x="314" y="440"/>
      <point x="348" y="389"/>
      <point x="348" y="266" type="curve" smooth="yes"/>
      <point x="348" y="132"/>
      <point x="340" y="53"/>
      <point x="277" y="38" type="curve"/>
      <point x="277" y="13"/>
      <point x="289" y="-6"/>
    </contour>
    <contour>
      <point x="165" y="552" type="curve"/>
      <point x="165" y="626" type="line" smooth="yes"/>
      <point x="165" y="686"/>
      <point x="192" y="720"/>
      <point x="239" y="720" type="curve" smooth="yes"/>
      <point x="279" y="720"/>
      <point x="292" y="697"/>
      <point x="292" y="672" type="curve" smooth="yes"/>
      <point x="292" y="624"/>
      <point x="254" y="589"/>
    </contour>
  </outline>
</glyph>
<glyph name="can-georgian" format="2">
  <advance width="536"/>
  <unicode hex="10EA"/>
  <note>
uni10EA
</note>
  <outline>
    <contour>
      <point x="282" y="-252" type="curve" smooth="yes"/>
      <point x="426" y="-252"/>
      <point x="499" y="-160"/>
      <point x="499" y="-33" type="curve" smooth="yes"/>
      <point x="499" y="93"/>
      <point x="440" y="163"/>
      <point x="371" y="175" type="curve"/>
      <point x="371" y="177" type="line"/>
      <point x="440" y="198"/>
      <point x="474" y="237"/>
      <point x="474" y="286" type="curve" smooth="yes"/>
      <point x="474" y="348"/>
      <point x="441" y="381"/>
      <point x="411" y="411" type="curve" smooth="yes"/>
      <point x="388" y="434"/>
      <point x="366" y="457"/>
      <point x="366" y="495" type="curve" smooth="yes"/>
      <point x="366" y="508"/>
      <point x="368" y="520"/>
      <point x="374" y="533" type="curve"/>
      <point x="365" y="542"/>
      <point x="354" y="548"/>
      <point x="335" y="548" type="curve" smooth="yes"/>
      <point x="300" y="548"/>
      <point x="287" y="517"/>
      <point x="287" y="491" type="curve" smooth="yes"/>
      <point x="287" y="442"/>
      <point x="312" y="414"/>
      <point x="337" y="387" type="curve" smooth="yes"/>
      <point x="362" y="360"/>
      <point x="386" y="333"/>
      <point x="386" y="286" type="curve" smooth="yes"/>
      <point x="386" y="237"/>
      <point x="357" y="199"/>
      <point x="294" y="199" type="curve" smooth="yes"/>
      <point x="264" y="199" type="line"/>
      <point x="264" y="145" type="line"/>
      <point x="296" y="145" type="line" smooth="yes"/>
      <point x="381" y="145"/>
      <point x="410" y="95"/>
      <point x="410" y="-30" type="curve" smooth="yes"/>
      <point x="410" y="-145"/>
      <point x="359" y="-203"/>
      <point x="282" y="-203" type="curve" smooth="yes"/>
      <point x="174" y="-203"/>
      <point x="131" y="-53"/>
      <point x="131" y="143" type="curve" smooth="yes"/>
      <point x="131" y="330"/>
      <point x="170" y="430"/>
      <point x="208" y="517" type="curve"/>
      <point x="168" y="545" type="line"/>
      <point x="108" y="478"/>
      <point x="42" y="344"/>
      <point x="42" y="144" type="curve" smooth="yes"/>
      <point x="42" y="-148"/>
      <point x="136" y="-252"/>
    </contour>
  </outline>
</glyph>
<glyph name="jil-georgian" format="2">
  <advance width="480"/>
  <unicode hex="10EB"/>
  <note>
uni10EB
</note>
  <outline>
    <contour>
      <point x="227" y="-10" type="curve" smooth="yes"/>
      <point x="349" y="-10"/>
      <point x="410" y="75"/>
      <point x="410" y="266" type="curve"/>
      <point x="410" y="760" type="line"/>
      <point x="263" y="760" type="line"/>
      <point x="263" y="719" type="line"/>
      <point x="269" y="719" type="line" smooth="yes"/>
      <point x="302" y="719"/>
      <point x="324" y="710"/>
      <point x="324" y="660" type="curve" smooth="yes"/>
      <point x="324" y="563" type="line" smooth="yes"/>
      <point x="324" y="526"/>
      <point x="324" y="489"/>
      <point x="326" y="458" type="curve"/>
      <point x="322" y="458" type="line"/>
      <point x="299" y="510"/>
      <point x="265" y="546"/>
      <point x="204" y="546" type="curve" smooth="yes"/>
      <point x="99" y="546"/>
      <point x="42" y="460"/>
      <point x="42" y="267" type="curve" smooth="yes"/>
      <point x="42" y="75"/>
      <point x="99" y="-10"/>
    </contour>
    <contour>
      <point x="227" y="41" type="curve" smooth="yes"/>
      <point x="157" y="41"/>
      <point x="131" y="114"/>
      <point x="131" y="266" type="curve" smooth="yes"/>
      <point x="131" y="411"/>
      <point x="157" y="491"/>
      <point x="222" y="491" type="curve" smooth="yes"/>
      <point x="299" y="491"/>
      <point x="324" y="411"/>
      <point x="324" y="267" type="curve" smooth="yes"/>
      <point x="324" y="128"/>
      <point x="295" y="41"/>
    </contour>
  </outline>
</glyph>
<glyph name="cil-georgian" format="2">
  <advance width="465"/>
  <unicode hex="10EC"/>
  <note>
uni10EC
</note>
  <guideline x="189" y="93" angle="280.8194"/>
  <outline>
    <contour>
      <point x="190" y="-240" type="line"/>
      <point x="271" y="-240" type="line"/>
      <point x="396" y="181" type="line" smooth="yes"/>
      <point x="412" y="236"/>
      <point x="420" y="287"/>
      <point x="420" y="332" type="curve" smooth="yes"/>
      <point x="420" y="443"/>
      <point x="361" y="516"/>
      <point x="266" y="516" type="curve" smooth="yes"/>
      <point x="195" y="516"/>
      <point x="148" y="471"/>
      <point x="132" y="415" type="curve"/>
      <point x="128" y="415" type="line"/>
      <point x="112" y="496" type="line" smooth="yes"/>
      <point x="101" y="551"/>
      <point x="98" y="611"/>
      <point x="98" y="642" type="curve" smooth="yes"/>
      <point x="98" y="692"/>
      <point x="108" y="726"/>
      <point x="142" y="726" type="curve" smooth="yes"/>
      <point x="170" y="726"/>
      <point x="184" y="701"/>
      <point x="184" y="651" type="curve" smooth="yes"/>
      <point x="184" y="591" type="line"/>
      <point x="263" y="591" type="line"/>
      <point x="263" y="651" type="line" smooth="yes"/>
      <point x="263" y="701"/>
      <point x="276" y="726"/>
      <point x="302" y="726" type="curve" smooth="yes"/>
      <point x="329" y="726"/>
      <point x="345" y="697"/>
      <point x="345" y="658" type="curve" smooth="yes"/>
      <point x="345" y="620"/>
      <point x="339" y="598"/>
      <point x="335" y="587" type="curve"/>
      <point x="346" y="584"/>
      <point x="359" y="581"/>
      <point x="374" y="581" type="curve" smooth="yes"/>
      <point x="400" y="581"/>
      <point x="428" y="607"/>
      <point x="428" y="666" type="curve" smooth="yes"/>
      <point x="428" y="718"/>
      <point x="389" y="772"/>
      <point x="317" y="772" type="curve" smooth="yes"/>
      <point x="280" y="772"/>
      <point x="238" y="755"/>
      <point x="225" y="714" type="curve"/>
      <point x="221" y="714" type="line"/>
      <point x="209" y="755"/>
      <point x="172" y="772"/>
      <point x="132" y="772" type="curve" smooth="yes"/>
      <point x="47" y="772"/>
      <point x="15" y="701"/>
      <point x="15" y="629" type="curve" smooth="yes"/>
      <point x="15" y="548"/>
      <point x="32" y="476"/>
      <point x="45" y="419" type="curve" smooth="yes"/>
    </contour>
    <contour>
      <point x="241" y="-171" type="curve"/>
      <point x="235" y="-134"/>
      <point x="224" y="-79"/>
      <point x="213" y="-20" type="curve" smooth="yes"/>
      <point x="170" y="205" type="line" smooth="yes"/>
      <point x="164" y="238"/>
      <point x="152" y="288"/>
      <point x="152" y="334" type="curve" smooth="yes"/>
      <point x="152" y="400"/>
      <point x="174" y="461"/>
      <point x="248" y="461" type="curve" smooth="yes"/>
      <point x="296" y="461"/>
      <point x="334" y="429"/>
      <point x="334" y="334" type="curve" smooth="yes"/>
      <point x="334" y="288"/>
      <point x="325" y="240"/>
      <point x="314" y="187" type="curve" smooth="yes"/>
      <point x="272" y="-20" type="line" smooth="yes"/>
      <point x="260" y="-80"/>
      <point x="248" y="-134"/>
    </contour>
  </outline>
</glyph>
<glyph name="char-georgian" format="2">
  <advance width="499"/>
  <unicode hex="10ED"/>
  <note>
uni10ED
</note>
  <outline>
    <contour>
      <point x="462" y="466" type="curve" smooth="yes"/>
      <point x="462" y="540"/>
      <point x="425" y="572"/>
      <point x="384" y="572" type="curve" smooth="yes"/>
      <point x="379" y="572"/>
      <point x="373" y="572"/>
      <point x="368" y="571" type="curve"/>
      <point x="380" y="537"/>
      <point x="385" y="502"/>
      <point x="385" y="467" type="curve" smooth="yes"/>
      <point x="385" y="385"/>
      <point x="363" y="324"/>
      <point x="309" y="298" type="curve"/>
      <point x="309" y="760" type="line"/>
      <point x="148" y="760" type="line"/>
      <point x="148" y="719" type="line"/>
      <point x="174" y="719" type="line" smooth="yes"/>
      <point x="217" y="719"/>
      <point x="225" y="710"/>
      <point x="225" y="650" type="curve" smooth="yes"/>
      <point x="225" y="505" type="line"/>
      <point x="208" y="525"/>
      <point x="184" y="536"/>
      <point x="153" y="536" type="curve" smooth="yes"/>
      <point x="102" y="536"/>
      <point x="37" y="497"/>
      <point x="37" y="399" type="curve" smooth="yes"/>
      <point x="37" y="303"/>
      <point x="109" y="243"/>
      <point x="226" y="240" type="curve"/>
      <point x="229" y="177"/>
      <point x="261" y="136"/>
      <point x="297" y="94" type="curve" smooth="yes"/>
      <point x="333" y="52"/>
      <point x="354" y="4"/>
      <point x="354" y="-70" type="curve" smooth="yes"/>
      <point x="354" y="-152"/>
      <point x="321" y="-201"/>
      <point x="253" y="-201" type="curve" smooth="yes"/>
      <point x="166" y="-201"/>
      <point x="145" y="-139"/>
      <point x="145" y="-67" type="curve" smooth="yes"/>
      <point x="145" y="-11"/>
      <point x="157" y="25"/>
      <point x="171" y="50" type="curve"/>
      <point x="162" y="56"/>
      <point x="151" y="59"/>
      <point x="140" y="59" type="curve" smooth="yes"/>
      <point x="101" y="59"/>
      <point x="59" y="22"/>
      <point x="59" y="-67" type="curve" smooth="yes"/>
      <point x="59" y="-167"/>
      <point x="113" y="-252"/>
      <point x="253" y="-252" type="curve" smooth="yes"/>
      <point x="373" y="-252"/>
      <point x="447" y="-176"/>
      <point x="447" y="-53" type="curve" smooth="yes"/>
      <point x="447" y="17"/>
      <point x="407" y="77"/>
      <point x="369" y="124" type="curve" smooth="yes"/>
      <point x="338" y="162"/>
      <point x="312" y="199"/>
      <point x="309" y="250" type="curve"/>
      <point x="412" y="279"/>
      <point x="462" y="369"/>
    </contour>
    <contour>
      <point x="128" y="399" type="curve" smooth="yes"/>
      <point x="128" y="465"/>
      <point x="152" y="491"/>
      <point x="177" y="491" type="curve" smooth="yes"/>
      <point x="203" y="491"/>
      <point x="225" y="475"/>
      <point x="225" y="411" type="curve" smooth="yes"/>
      <point x="225" y="286" type="line"/>
      <point x="155" y="292"/>
      <point x="128" y="339"/>
    </contour>
  </outline>
</glyph>
<glyph name="xan-georgian" format="2">
  <advance width="496"/>
  <unicode hex="10EE"/>
  <note>
uni10EE
</note>
  <outline>
    <contour>
      <point x="292" y="546" type="curve" smooth="yes"/>
      <point x="231" y="546"/>
      <point x="197" y="510"/>
      <point x="174" y="458" type="curve"/>
      <point x="170" y="458" type="line"/>
      <point x="172" y="489"/>
      <point x="172" y="526"/>
      <point x="172" y="563" type="curve" smooth="yes"/>
      <point x="172" y="760" type="line"/>
      <point x="19" y="760" type="line"/>
      <point x="19" y="719" type="line"/>
      <point x="26" y="719" type="line" smooth="yes"/>
      <point x="57" y="719"/>
      <point x="86" y="711"/>
      <point x="86" y="651" type="curve" smooth="yes"/>
      <point x="86" y="266" type="line" smooth="yes"/>
      <point x="86" y="75"/>
      <point x="147" y="-10"/>
      <point x="269" y="-10" type="curve" smooth="yes"/>
      <point x="397" y="-10"/>
      <point x="454" y="75"/>
      <point x="454" y="267" type="curve" smooth="yes"/>
      <point x="454" y="460"/>
      <point x="397" y="546"/>
    </contour>
    <contour>
      <point x="269" y="41" type="curve" smooth="yes"/>
      <point x="201" y="41"/>
      <point x="172" y="128"/>
      <point x="172" y="267" type="curve" smooth="yes"/>
      <point x="172" y="411"/>
      <point x="197" y="491"/>
      <point x="274" y="491" type="curve" smooth="yes"/>
      <point x="339" y="491"/>
      <point x="365" y="411"/>
      <point x="365" y="266" type="curve" smooth="yes"/>
      <point x="365" y="114"/>
      <point x="339" y="41"/>
    </contour>
  </outline>
</glyph>
<glyph name="jhan-georgian" format="2">
  <advance width="621"/>
  <unicode hex="10EF"/>
  <note>
uni10EF
</note>
  <outline>
    <contour>
      <point x="520" y="203" type="curve" smooth="yes"/>
      <point x="511" y="203"/>
      <point x="494" y="201"/>
      <point x="483" y="195" type="curve"/>
      <point x="495" y="168"/>
      <point x="500" y="150"/>
      <point x="500" y="111" type="curve" smooth="yes"/>
      <point x="500" y="69"/>
      <point x="480" y="39"/>
      <point x="445" y="39" type="curve" smooth="yes"/>
      <point x="404" y="39"/>
      <point x="390" y="81"/>
      <point x="376" y="143" type="curve" smooth="yes"/>
      <point x="354" y="242" type="line"/>
      <point x="475" y="297"/>
      <point x="557" y="346"/>
      <point x="557" y="445" type="curve" smooth="yes"/>
      <point x="557" y="507"/>
      <point x="504" y="548"/>
      <point x="446" y="548" type="curve" smooth="yes"/>
      <point x="406" y="548"/>
      <point x="368" y="530"/>
      <point x="368" y="505" type="curve" smooth="yes"/>
      <point x="368" y="498"/>
      <point x="371" y="490"/>
      <point x="377" y="482" type="curve"/>
      <point x="393" y="494"/>
      <point x="408" y="497"/>
      <point x="423" y="497" type="curve" smooth="yes"/>
      <point x="457" y="497"/>
      <point x="475" y="472"/>
      <point x="475" y="440" type="curve" smooth="yes"/>
      <point x="475" y="371"/>
      <point x="429" y="332"/>
      <point x="343" y="293" type="curve"/>
      <point x="317" y="409" type="line" smooth="yes"/>
      <point x="301" y="481"/>
      <point x="256" y="548"/>
      <point x="170" y="548" type="curve" smooth="yes"/>
      <point x="96" y="548"/>
      <point x="32" y="498"/>
      <point x="32" y="427" type="curve" smooth="yes"/>
      <point x="32" y="368"/>
      <point x="65" y="333"/>
      <point x="103" y="333" type="curve" smooth="yes"/>
      <point x="112" y="333"/>
      <point x="122" y="335"/>
      <point x="134" y="341" type="curve"/>
      <point x="122" y="363"/>
      <point x="116" y="386"/>
      <point x="116" y="422" type="curve" smooth="yes"/>
      <point x="116" y="467"/>
      <point x="135" y="497"/>
      <point x="170" y="497" type="curve" smooth="yes"/>
      <point x="207" y="497"/>
      <point x="222" y="454"/>
      <point x="235" y="393" type="curve" smooth="yes"/>
      <point x="264" y="257" type="line"/>
      <point x="189" y="217"/>
      <point x="129" y="163"/>
      <point x="92" y="85" type="curve"/>
      <point x="92" y="24" type="line"/>
      <point x="125" y="24" type="line" smooth="yes"/>
      <point x="188" y="24"/>
      <point x="221" y="-26"/>
      <point x="221" y="-102" type="curve" smooth="yes"/>
      <point x="221" y="-179"/>
      <point x="195" y="-207"/>
      <point x="157" y="-207" type="curve" smooth="yes"/>
      <point x="118" y="-207"/>
      <point x="95" y="-174"/>
      <point x="95" y="-115" type="curve" smooth="yes"/>
      <point x="95" y="-101"/>
      <point x="97" y="-84"/>
      <point x="101" y="-68" type="curve"/>
      <point x="93" y="-65"/>
      <point x="79" y="-63"/>
      <point x="72" y="-63" type="curve" smooth="yes"/>
      <point x="39" y="-63"/>
      <point x="15" y="-90"/>
      <point x="15" y="-129" type="curve" smooth="yes"/>
      <point x="15" y="-204"/>
      <point x="72" y="-252"/>
      <point x="157" y="-252" type="curve" smooth="yes"/>
      <point x="239" y="-252"/>
      <point x="303" y="-196"/>
      <point x="303" y="-104" type="curve" smooth="yes"/>
      <point x="303" y="-5"/>
      <point x="235" y="62"/>
      <point x="140" y="68" type="curve"/>
      <point x="140" y="72" type="line"/>
      <point x="166" y="123"/>
      <point x="212" y="167"/>
      <point x="275" y="204" type="curve"/>
      <point x="292" y="126" type="line" smooth="yes"/>
      <point x="308" y="53"/>
      <point x="350" y="-12"/>
      <point x="445" y="-12" type="curve" smooth="yes"/>
      <point x="525" y="-12"/>
      <point x="584" y="38"/>
      <point x="584" y="116" type="curve" smooth="yes"/>
      <point x="584" y="168"/>
      <point x="556" y="203"/>
    </contour>
  </outline>
</glyph>
<glyph name="hae-georgian" format="2">
  <advance width="432"/>
  <unicode hex="10F0"/>
  <note>
uni10F0
</note>
  <outline>
    <contour>
      <point x="214" y="-12" type="curve" smooth="yes"/>
      <point x="335" y="-12"/>
      <point x="390" y="61"/>
      <point x="390" y="130" type="curve" smooth="yes"/>
      <point x="390" y="205"/>
      <point x="349" y="246"/>
      <point x="289" y="262" type="curve"/>
      <point x="289" y="266" type="line"/>
      <point x="349" y="275"/>
      <point x="384" y="309"/>
      <point x="384" y="357" type="curve" smooth="yes"/>
      <point x="384" y="406"/>
      <point x="349" y="441"/>
      <point x="289" y="450" type="curve"/>
      <point x="289" y="454" type="line"/>
      <point x="343" y="471"/>
      <point x="375" y="492"/>
      <point x="375" y="547" type="curve" smooth="yes"/>
      <point x="375" y="599"/>
      <point x="327" y="630"/>
      <point x="282" y="658" type="curve" smooth="yes"/>
      <point x="252" y="676"/>
      <point x="228" y="698"/>
      <point x="228" y="727" type="curve" smooth="yes"/>
      <point x="228" y="737"/>
      <point x="230" y="746"/>
      <point x="236" y="757" type="curve"/>
      <point x="227" y="766"/>
      <point x="216" y="772"/>
      <point x="197" y="772" type="curve" smooth="yes"/>
      <point x="161" y="772"/>
      <point x="148" y="745"/>
      <point x="148" y="719" type="curve" smooth="yes"/>
      <point x="148" y="678"/>
      <point x="182" y="651"/>
      <point x="220" y="628" type="curve" smooth="yes"/>
      <point x="256" y="606"/>
      <point x="289" y="581"/>
      <point x="289" y="533" type="curve" smooth="yes"/>
      <point x="289" y="497"/>
      <point x="266" y="475"/>
      <point x="213" y="475" type="curve" smooth="yes"/>
      <point x="172" y="475" type="line"/>
      <point x="172" y="424" type="line"/>
      <point x="214" y="424" type="line" smooth="yes"/>
      <point x="267" y="424"/>
      <point x="295" y="402"/>
      <point x="295" y="357" type="curve" smooth="yes"/>
      <point x="295" y="315"/>
      <point x="267" y="289"/>
      <point x="213" y="289" type="curve" smooth="yes"/>
      <point x="172" y="289" type="line"/>
      <point x="172" y="238" type="line"/>
      <point x="214" y="238" type="line" smooth="yes"/>
      <point x="267" y="238"/>
      <point x="300" y="199"/>
      <point x="300" y="140" type="curve" smooth="yes"/>
      <point x="300" y="82"/>
      <point x="270" y="39"/>
      <point x="213" y="39" type="curve" smooth="yes"/>
      <point x="158" y="39"/>
      <point x="123" y="76"/>
      <point x="123" y="128" type="curve" smooth="yes"/>
      <point x="123" y="138"/>
      <point x="124" y="149"/>
      <point x="127" y="160" type="curve"/>
      <point x="119" y="166"/>
      <point x="109" y="170"/>
      <point x="95" y="170" type="curve" smooth="yes"/>
      <point x="57" y="170"/>
      <point x="37" y="139"/>
      <point x="37" y="106" type="curve" smooth="yes"/>
      <point x="37" y="54"/>
      <point x="87" y="-12"/>
    </contour>
  </outline>
</glyph>
<glyph name="he-georgian" format="2">
  <advance width="541"/>
  <unicode hex="10F1"/>
  <note>
uni10F1
</note>
  <outline>
    <contour>
      <point x="302" y="-12" type="curve" smooth="yes"/>
      <point x="426" y="-12"/>
      <point x="499" y="60"/>
      <point x="499" y="137" type="curve" smooth="yes"/>
      <point x="499" y="205"/>
      <point x="458" y="246"/>
      <point x="398" y="262" type="curve"/>
      <point x="398" y="266" type="line"/>
      <point x="458" y="275"/>
      <point x="493" y="309"/>
      <point x="493" y="357" type="curve" smooth="yes"/>
      <point x="493" y="406"/>
      <point x="458" y="441"/>
      <point x="398" y="450" type="curve"/>
      <point x="398" y="454" type="line"/>
      <point x="452" y="471"/>
      <point x="484" y="492"/>
      <point x="484" y="547" type="curve" smooth="yes"/>
      <point x="484" y="595"/>
      <point x="443" y="632"/>
      <point x="410" y="658" type="curve" smooth="yes"/>
      <point x="384" y="679"/>
      <point x="367" y="698"/>
      <point x="367" y="727" type="curve" smooth="yes"/>
      <point x="367" y="737"/>
      <point x="369" y="746"/>
      <point x="375" y="757" type="curve"/>
      <point x="366" y="766"/>
      <point x="355" y="772"/>
      <point x="336" y="772" type="curve" smooth="yes"/>
      <point x="300" y="772"/>
      <point x="287" y="745"/>
      <point x="287" y="719" type="curve" smooth="yes"/>
      <point x="287" y="682"/>
      <point x="313" y="652"/>
      <point x="339" y="630" type="curve" smooth="yes"/>
      <point x="368" y="606"/>
      <point x="398" y="580"/>
      <point x="398" y="536" type="curve" smooth="yes"/>
      <point x="398" y="497"/>
      <point x="375" y="475"/>
      <point x="322" y="475" type="curve" smooth="yes"/>
      <point x="281" y="475" type="line"/>
      <point x="281" y="424" type="line"/>
      <point x="323" y="424" type="line" smooth="yes"/>
      <point x="376" y="424"/>
      <point x="404" y="402"/>
      <point x="404" y="357" type="curve" smooth="yes"/>
      <point x="404" y="315"/>
      <point x="376" y="289"/>
      <point x="322" y="289" type="curve" smooth="yes"/>
      <point x="281" y="289" type="line"/>
      <point x="281" y="238" type="line"/>
      <point x="323" y="238" type="line" smooth="yes"/>
      <point x="376" y="238"/>
      <point x="409" y="198"/>
      <point x="409" y="139" type="curve" smooth="yes"/>
      <point x="409" y="77"/>
      <point x="369" y="37"/>
      <point x="302" y="37" type="curve" smooth="yes"/>
      <point x="174" y="37"/>
      <point x="131" y="187"/>
      <point x="131" y="383" type="curve" smooth="yes"/>
      <point x="131" y="557"/>
      <point x="170" y="657"/>
      <point x="208" y="744" type="curve"/>
      <point x="168" y="772" type="line"/>
      <point x="108" y="705"/>
      <point x="42" y="571"/>
      <point x="42" y="384" type="curve" smooth="yes"/>
      <point x="42" y="92"/>
      <point x="146" y="-12"/>
    </contour>
  </outline>
</glyph>
<glyph name="hie-georgian" format="2">
  <advance width="458"/>
  <unicode hex="10F2"/>
  <note>
uni10F2
</note>
  <outline>
    <contour>
      <point x="89" y="-12" type="curve" smooth="yes"/>
      <point x="125" y="-12"/>
      <point x="173" y="8"/>
      <point x="228" y="45" type="curve"/>
      <point x="282" y="8"/>
      <point x="326" y="-12"/>
      <point x="364" y="-12" type="curve" smooth="yes"/>
      <point x="407" y="-12"/>
      <point x="416" y="16"/>
      <point x="416" y="39" type="curve"/>
      <point x="366" y="39"/>
      <point x="325" y="54"/>
      <point x="279" y="84" type="curve"/>
      <point x="367" y="145"/>
      <point x="414" y="237"/>
      <point x="414" y="329" type="curve" smooth="yes"/>
      <point x="414" y="458"/>
      <point x="342" y="548"/>
      <point x="231" y="548" type="curve" smooth="yes"/>
      <point x="109" y="548"/>
      <point x="41" y="458"/>
      <point x="44" y="329" type="curve" smooth="yes"/>
      <point x="46" y="236"/>
      <point x="94" y="145"/>
      <point x="179" y="83" type="curve"/>
      <point x="133" y="53"/>
      <point x="92" y="39"/>
      <point x="42" y="39" type="curve"/>
      <point x="42" y="9"/>
      <point x="53" y="-12"/>
    </contour>
    <contour>
      <point x="228" y="121" type="curve"/>
      <point x="152" y="180"/>
      <point x="135" y="253"/>
      <point x="133" y="329" type="curve" smooth="yes"/>
      <point x="133" y="420"/>
      <point x="160" y="496"/>
      <point x="229" y="496" type="curve" smooth="yes"/>
      <point x="299" y="496"/>
      <point x="326" y="420"/>
      <point x="325" y="329" type="curve" smooth="yes"/>
      <point x="324" y="248"/>
      <point x="302" y="179"/>
    </contour>
  </outline>
</glyph>
<glyph name="we-georgian" format="2">
  <advance width="456"/>
  <unicode hex="10F3"/>
  <note>
uni10F3
</note>
  <outline>
    <contour>
      <point x="226" y="-252" type="curve" smooth="yes"/>
      <point x="350" y="-252"/>
      <point x="419" y="-167"/>
      <point x="419" y="-19" type="curve" smooth="yes"/>
      <point x="419" y="157"/>
      <point x="329" y="214"/>
      <point x="229" y="222" type="curve"/>
      <point x="394" y="490" type="line"/>
      <point x="394" y="536" type="line"/>
      <point x="78" y="536" type="line"/>
      <point x="70" y="390" type="line"/>
      <point x="103" y="390" type="line"/>
      <point x="107" y="404" type="line" smooth="yes"/>
      <point x="121" y="453"/>
      <point x="125" y="469"/>
      <point x="163" y="469" type="curve" smooth="yes"/>
      <point x="322" y="469" type="line"/>
      <point x="165" y="210" type="line"/>
      <point x="165" y="171" type="line"/>
      <point x="192" y="171" type="line" smooth="yes"/>
      <point x="281" y="171"/>
      <point x="330" y="112"/>
      <point x="330" y="-24" type="curve" smooth="yes"/>
      <point x="330" y="-139"/>
      <point x="296" y="-201"/>
      <point x="226" y="-201" type="curve" smooth="yes"/>
      <point x="154" y="-201"/>
      <point x="123" y="-139"/>
      <point x="123" y="-67" type="curve" smooth="yes"/>
      <point x="123" y="-11"/>
      <point x="135" y="25"/>
      <point x="149" y="50" type="curve"/>
      <point x="140" y="56"/>
      <point x="129" y="59"/>
      <point x="118" y="59" type="curve" smooth="yes"/>
      <point x="79" y="59"/>
      <point x="37" y="22"/>
      <point x="37" y="-67" type="curve" smooth="yes"/>
      <point x="37" y="-167"/>
      <point x="101" y="-252"/>
    </contour>
  </outline>
</glyph>
<glyph name="har-georgian" format="2">
  <advance width="436"/>
  <unicode hex="10F4"/>
  <note>
uni10F4
</note>
  <outline>
    <contour>
      <point x="216" y="-252" type="curve" smooth="yes"/>
      <point x="338" y="-252"/>
      <point x="399" y="-167"/>
      <point x="399" y="-19" type="curve" smooth="yes"/>
      <point x="399" y="131"/>
      <point x="308" y="193"/>
      <point x="221" y="199" type="curve"/>
      <point x="388" y="445" type="line"/>
      <point x="388" y="492" type="line"/>
      <point x="230" y="492" type="line" smooth="yes"/>
      <point x="151" y="492"/>
      <point x="112" y="532"/>
      <point x="112" y="608" type="curve" smooth="yes"/>
      <point x="112" y="685"/>
      <point x="147" y="732"/>
      <point x="196" y="732" type="curve" smooth="yes"/>
      <point x="253" y="732"/>
      <point x="281" y="676"/>
      <point x="281" y="596" type="curve"/>
      <point x="316" y="596"/>
      <point x="339" y="616"/>
      <point x="339" y="653" type="curve" smooth="yes"/>
      <point x="339" y="723"/>
      <point x="286" y="772"/>
      <point x="201" y="772" type="curve" smooth="yes"/>
      <point x="101" y="772"/>
      <point x="37" y="700"/>
      <point x="37" y="602" type="curve" smooth="yes"/>
      <point x="37" y="488"/>
      <point x="110" y="423"/>
      <point x="218" y="423" type="curve" smooth="yes"/>
      <point x="310" y="423" type="line"/>
      <point x="153" y="189" type="line"/>
      <point x="153" y="149" type="line"/>
      <point x="170" y="149" type="line" smooth="yes"/>
      <point x="259" y="149"/>
      <point x="310" y="94"/>
      <point x="310" y="-25" type="curve" smooth="yes"/>
      <point x="310" y="-139"/>
      <point x="284" y="-201"/>
      <point x="216" y="-201" type="curve" smooth="yes"/>
      <point x="149" y="-201"/>
      <point x="123" y="-139"/>
      <point x="123" y="-77" type="curve" smooth="yes"/>
      <point x="123" y="-31"/>
      <point x="135" y="5"/>
      <point x="149" y="30" type="curve"/>
      <point x="140" y="36"/>
      <point x="129" y="39"/>
      <point x="118" y="39" type="curve" smooth="yes"/>
      <point x="79" y="39"/>
      <point x="37" y="2"/>
      <point x="37" y="-77" type="curve" smooth="yes"/>
      <point x="37" y="-167"/>
      <point x="96" y="-252"/>
    </contour>
  </outline>
</glyph>
<glyph name="hoe-georgian" format="2">
  <advance width="533"/>
  <unicode hex="10F5"/>
  <note>
uni10F5
</note>
  <outline>
    <contour>
      <point x="234" y="-12" type="curve" smooth="yes"/>
      <point x="364" y="-12"/>
      <point x="417" y="65"/>
      <point x="417" y="179" type="curve" smooth="yes"/>
      <point x="417" y="284" type="line"/>
      <point x="513" y="284" type="line"/>
      <point x="513" y="333" type="line"/>
      <point x="417" y="333" type="line"/>
      <point x="417" y="428" type="line"/>
      <point x="513" y="428" type="line"/>
      <point x="513" y="476" type="line"/>
      <point x="417" y="476" type="line"/>
      <point x="417" y="581" type="line" smooth="yes"/>
      <point x="417" y="695"/>
      <point x="364" y="772"/>
      <point x="234" y="772" type="curve" smooth="yes"/>
      <point x="116" y="772"/>
      <point x="42" y="710"/>
      <point x="42" y="593" type="curve" smooth="yes"/>
      <point x="42" y="476"/>
      <point x="120" y="428"/>
      <point x="220" y="428" type="curve" smooth="yes"/>
      <point x="332" y="428" type="line"/>
      <point x="332" y="333" type="line"/>
      <point x="220" y="333" type="line" smooth="yes"/>
      <point x="120" y="333"/>
      <point x="42" y="284"/>
      <point x="42" y="167" type="curve" smooth="yes"/>
      <point x="42" y="50"/>
      <point x="116" y="-12"/>
    </contour>
    <contour>
      <point x="235" y="38" type="curve" smooth="yes"/>
      <point x="167" y="38"/>
      <point x="131" y="81"/>
      <point x="131" y="167" type="curve" smooth="yes"/>
      <point x="131" y="257"/>
      <point x="181" y="284"/>
      <point x="238" y="284" type="curve" smooth="yes"/>
      <point x="331" y="284" type="line"/>
      <point x="331" y="161" type="line" smooth="yes"/>
      <point x="331" y="84"/>
      <point x="307" y="38"/>
    </contour>
    <contour>
      <point x="238" y="476" type="line" smooth="yes"/>
      <point x="181" y="476"/>
      <point x="131" y="503"/>
      <point x="131" y="593" type="curve" smooth="yes"/>
      <point x="131" y="679"/>
      <point x="167" y="722"/>
      <point x="235" y="722" type="curve" smooth="yes"/>
      <point x="307" y="722"/>
      <point x="331" y="676"/>
      <point x="331" y="599" type="curve" smooth="yes"/>
      <point x="331" y="476" type="line"/>
    </contour>
  </outline>
</glyph>
<glyph name="fi-georgian" format="2">
  <advance width="733"/>
  <unicode hex="10F6"/>
  <note>
uni10F6
</note>
  <outline>
    <contour>
      <point x="264" y="-252" type="curve" smooth="yes"/>
      <point x="361" y="-252"/>
      <point x="410" y="-199"/>
      <point x="410" y="-88" type="curve" smooth="yes"/>
      <point x="410" y="-37" type="line" smooth="yes"/>
      <point x="410" y="2"/>
      <point x="408" y="42"/>
      <point x="406" y="78" type="curve"/>
      <point x="409" y="78" type="line"/>
      <point x="431" y="27"/>
      <point x="467" y="-12"/>
      <point x="528" y="-12" type="curve" smooth="yes"/>
      <point x="633" y="-12"/>
      <point x="691" y="73"/>
      <point x="691" y="268" type="curve" smooth="yes"/>
      <point x="691" y="461"/>
      <point x="633" y="548"/>
      <point x="528" y="548" type="curve" smooth="yes"/>
      <point x="467" y="548"/>
      <point x="431" y="509"/>
      <point x="409" y="457" type="curve"/>
      <point x="406" y="457" type="line"/>
      <point x="407" y="483"/>
      <point x="410" y="510"/>
      <point x="410" y="536" type="curve" smooth="yes"/>
      <point x="410" y="595" type="line" smooth="yes"/>
      <point x="410" y="682"/>
      <point x="422" y="719"/>
      <point x="460" y="719" type="curve" smooth="yes"/>
      <point x="498" y="719"/>
      <point x="506" y="681"/>
      <point x="506" y="632" type="curve"/>
      <point x="553" y="632"/>
      <point x="578" y="654"/>
      <point x="578" y="685" type="curve" smooth="yes"/>
      <point x="578" y="728"/>
      <point x="550" y="772"/>
      <point x="470" y="772" type="curve" smooth="yes"/>
      <point x="373" y="772"/>
      <point x="324" y="720"/>
      <point x="324" y="578" type="curve" smooth="yes"/>
      <point x="324" y="536" type="line" smooth="yes"/>
      <point x="324" y="510"/>
      <point x="326" y="483"/>
      <point x="327" y="457" type="curve"/>
      <point x="324" y="457" type="line"/>
      <point x="303" y="508"/>
      <point x="266" y="548"/>
      <point x="204" y="548" type="curve" smooth="yes"/>
      <point x="99" y="548"/>
      <point x="42" y="463"/>
      <point x="42" y="267" type="curve" smooth="yes"/>
      <point x="42" y="73"/>
      <point x="99" y="-12"/>
      <point x="204" y="-12" type="curve" smooth="yes"/>
      <point x="266" y="-12"/>
      <point x="303" y="27"/>
      <point x="324" y="79" type="curve"/>
      <point x="327" y="79" type="line"/>
      <point x="325" y="48"/>
      <point x="324" y="2"/>
      <point x="324" y="-38" type="curve" smooth="yes"/>
      <point x="324" y="-94" type="line" smooth="yes"/>
      <point x="324" y="-163"/>
      <point x="308" y="-199"/>
      <point x="272" y="-199" type="curve" smooth="yes"/>
      <point x="234" y="-199"/>
      <point x="225" y="-162"/>
      <point x="225" y="-113" type="curve"/>
      <point x="179" y="-113"/>
      <point x="153" y="-135"/>
      <point x="153" y="-166" type="curve" smooth="yes"/>
      <point x="153" y="-210"/>
      <point x="184" y="-252"/>
    </contour>
    <contour>
      <point x="224" y="41" type="curve" smooth="yes"/>
      <point x="158" y="41"/>
      <point x="131" y="119"/>
      <point x="131" y="268" type="curve" smooth="yes"/>
      <point x="131" y="417"/>
      <point x="158" y="495"/>
      <point x="224" y="495" type="curve" smooth="yes"/>
      <point x="300" y="495"/>
      <point x="323" y="413"/>
      <point x="323" y="268" type="curve" smooth="yes"/>
      <point x="323" y="122"/>
      <point x="300" y="41"/>
    </contour>
    <contour>
      <point x="508" y="41" type="curve" smooth="yes"/>
      <point x="433" y="41"/>
      <point x="410" y="124"/>
      <point x="410" y="268" type="curve" smooth="yes"/>
      <point x="410" y="412"/>
      <point x="433" y="495"/>
      <point x="508" y="495" type="curve" smooth="yes"/>
      <point x="577" y="495"/>
      <point x="602" y="416"/>
      <point x="602" y="268" type="curve" smooth="yes"/>
      <point x="602" y="120"/>
      <point x="577" y="41"/>
    </contour>
  </outline>
</glyph>
<glyph name="yn-georgian" format="2">
  <advance width="433"/>
  <unicode hex="10F7"/>
  <note>
uni10F7
</note>
  <anchor x="217" y="536" name="top"/>
  <outline>
    <contour>
      <point x="217" y="-252" type="curve" smooth="yes"/>
      <point x="333" y="-252"/>
      <point x="396" y="-167"/>
      <point x="396" y="-76" type="curve" smooth="yes"/>
      <point x="396" y="-8"/>
      <point x="363" y="29"/>
      <point x="329" y="29" type="curve" smooth="yes"/>
      <point x="318" y="29"/>
      <point x="307" y="26"/>
      <point x="298" y="20" type="curve"/>
      <point x="311" y="-5"/>
      <point x="315" y="-41"/>
      <point x="315" y="-76" type="curve" smooth="yes"/>
      <point x="315" y="-149"/>
      <point x="280" y="-201"/>
      <point x="217" y="-201" type="curve" smooth="yes"/>
      <point x="151" y="-201"/>
      <point x="110" y="-145"/>
      <point x="110" y="-60" type="curve" smooth="yes"/>
      <point x="110" y="56"/>
      <point x="163" y="93"/>
      <point x="243" y="151" type="curve" smooth="yes"/>
      <point x="328" y="212"/>
      <point x="382" y="273"/>
      <point x="382" y="377" type="curve" smooth="yes"/>
      <point x="382" y="480"/>
      <point x="319" y="548"/>
      <point x="222" y="548" type="curve" smooth="yes"/>
      <point x="122" y="548"/>
      <point x="58" y="494"/>
      <point x="58" y="422" type="curve" smooth="yes"/>
      <point x="58" y="365"/>
      <point x="89" y="343"/>
      <point x="116" y="343" type="curve" smooth="yes"/>
      <point x="127" y="343"/>
      <point x="137" y="346"/>
      <point x="148" y="349" type="curve"/>
      <point x="141" y="363"/>
      <point x="135" y="386"/>
      <point x="135" y="414" type="curve" smooth="yes"/>
      <point x="135" y="471"/>
      <point x="176" y="502"/>
      <point x="222" y="502" type="curve" smooth="yes"/>
      <point x="274" y="502"/>
      <point x="309" y="456"/>
      <point x="309" y="393" type="curve" smooth="yes"/>
      <point x="309" y="326"/>
      <point x="274" y="272"/>
      <point x="202" y="221" type="curve" smooth="yes"/>
      <point x="106" y="153"/>
      <point x="37" y="93"/>
      <point x="37" y="-49" type="curve" smooth="yes"/>
      <point x="37" y="-173"/>
      <point x="105" y="-252"/>
    </contour>
  </outline>
</glyph>
<glyph name="elifi-georgian" format="2">
  <advance width="478"/>
  <unicode hex="10F8"/>
  <note>
uni10F8
</note>
  <outline>
    <contour>
      <point x="257" y="-252" type="curve" smooth="yes"/>
      <point x="377" y="-252"/>
      <point x="436" y="-167"/>
      <point x="436" y="-67" type="curve" smooth="yes"/>
      <point x="436" y="22"/>
      <point x="394" y="59"/>
      <point x="355" y="59" type="curve" smooth="yes"/>
      <point x="344" y="59"/>
      <point x="333" y="56"/>
      <point x="324" y="50" type="curve"/>
      <point x="338" y="25"/>
      <point x="350" y="-11"/>
      <point x="350" y="-67" type="curve" smooth="yes"/>
      <point x="350" y="-139"/>
      <point x="324" y="-201"/>
      <point x="257" y="-201" type="curve" smooth="yes"/>
      <point x="189" y="-201"/>
      <point x="163" y="-139"/>
      <point x="163" y="-14" type="curve" smooth="yes"/>
      <point x="163" y="152" type="line" smooth="yes"/>
      <point x="163" y="188"/>
      <point x="161" y="225"/>
      <point x="158" y="261" type="curve"/>
      <point x="162" y="261" type="line"/>
      <point x="185" y="213"/>
      <point x="220" y="174"/>
      <point x="281" y="174" type="curve" smooth="yes"/>
      <point x="365" y="174"/>
      <point x="427" y="251"/>
      <point x="427" y="367" type="curve" smooth="yes"/>
      <point x="427" y="477"/>
      <point x="376" y="542"/>
      <point x="335" y="542" type="curve" smooth="yes"/>
      <point x="322" y="542"/>
      <point x="314" y="539"/>
      <point x="303" y="532" type="curve"/>
      <point x="326" y="499"/>
      <point x="344" y="445"/>
      <point x="344" y="369" type="curve" smooth="yes"/>
      <point x="344" y="271"/>
      <point x="309" y="229"/>
      <point x="258" y="229" type="curve" smooth="yes"/>
      <point x="197" y="229"/>
      <point x="163" y="291"/>
      <point x="163" y="391" type="curve" smooth="yes"/>
      <point x="163" y="536" type="line"/>
      <point x="74" y="536" type="line"/>
      <point x="74" y="-9" type="line" smooth="yes"/>
      <point x="74" y="-167"/>
      <point x="135" y="-252"/>
    </contour>
  </outline>
</glyph>
<glyph name="turnedgan-georgian" format="2">
  <advance width="464"/>
  <unicode hex="10F9"/>
  <note>
uni10F9
</note>
  <outline>
    <contour>
      <point x="233" y="548" type="curve" smooth="yes"/>
      <point x="108" y="548"/>
      <point x="42" y="457"/>
      <point x="42" y="267" type="curve" smooth="yes"/>
      <point x="42" y="115"/>
      <point x="90" y="25"/>
      <point x="176" y="-2" type="curve"/>
      <point x="176" y="-5" type="line"/>
      <point x="117" y="-29"/>
      <point x="95" y="-79"/>
      <point x="95" y="-126" type="curve" smooth="yes"/>
      <point x="95" y="-198"/>
      <point x="157" y="-252"/>
      <point x="236" y="-252" type="curve" smooth="yes"/>
      <point x="327" y="-252"/>
      <point x="376" y="-198"/>
      <point x="376" y="-146" type="curve" smooth="yes"/>
      <point x="376" y="-97"/>
      <point x="348" y="-77"/>
      <point x="322" y="-77" type="curve" smooth="yes"/>
      <point x="307" y="-77"/>
      <point x="294" y="-80"/>
      <point x="283" y="-83" type="curve"/>
      <point x="287" y="-94"/>
      <point x="293" y="-110"/>
      <point x="293" y="-138" type="curve" smooth="yes"/>
      <point x="293" y="-175"/>
      <point x="273" y="-206"/>
      <point x="236" y="-206" type="curve" smooth="yes"/>
      <point x="200" y="-206"/>
      <point x="178" y="-177"/>
      <point x="178" y="-126" type="curve" smooth="yes"/>
      <point x="178" y="-68"/>
      <point x="189" y="-30"/>
      <point x="255" y="-13" type="curve" smooth="yes"/>
      <point x="365" y="15"/>
      <point x="422" y="92"/>
      <point x="422" y="267" type="curve" smooth="yes"/>
      <point x="422" y="457"/>
      <point x="350" y="548"/>
    </contour>
    <contour>
      <point x="231" y="497" type="curve" smooth="yes"/>
      <point x="305" y="497"/>
      <point x="333" y="419"/>
      <point x="333" y="267" type="curve" smooth="yes"/>
      <point x="333" y="118"/>
      <point x="306" y="40"/>
      <point x="232" y="40" type="curve" smooth="yes"/>
      <point x="157" y="40"/>
      <point x="131" y="118"/>
      <point x="131" y="267" type="curve" smooth="yes"/>
      <point x="131" y="419"/>
      <point x="157" y="497"/>
    </contour>
  </outline>
</glyph>
<glyph name="ain-georgian" format="2">
  <advance width="403"/>
  <unicode hex="10FA"/>
  <note>
uni10FA
</note>
  <outline>
    <contour>
      <point x="86" y="-103" type="line"/>
      <point x="366" y="40" type="line"/>
      <point x="366" y="107" type="line"/>
      <point x="341" y="90"/>
      <point x="285" y="54"/>
      <point x="231" y="54" type="curve" smooth="yes"/>
      <point x="164" y="54"/>
      <point x="130" y="125"/>
      <point x="130" y="266" type="curve" smooth="yes"/>
      <point x="130" y="445"/>
      <point x="167" y="497"/>
      <point x="224" y="497" type="curve" smooth="yes"/>
      <point x="274" y="497"/>
      <point x="287" y="446"/>
      <point x="287" y="384" type="curve"/>
      <point x="343" y="384"/>
      <point x="366" y="398"/>
      <point x="366" y="444" type="curve" smooth="yes"/>
      <point x="366" y="509"/>
      <point x="313" y="546"/>
      <point x="223" y="546" type="curve" smooth="yes"/>
      <point x="121" y="546"/>
      <point x="42" y="479"/>
      <point x="42" y="275" type="curve" smooth="yes"/>
      <point x="42" y="102"/>
      <point x="102" y="14"/>
      <point x="184" y="5" type="curve"/>
      <point x="86" y="-45" type="line"/>
    </contour>
  </outline>
</glyph>
<glyph name="paragraph-georgian" format="2">
  <advance width="472"/>
  <unicode hex="10FB"/>
  <note>
uni10FB
</note>
  <outline>
    <contour>
      <point x="346" y="209" type="curve" smooth="yes"/>
      <point x="370" y="209"/>
      <point x="390" y="224"/>
      <point x="390" y="270" type="curve" smooth="yes"/>
      <point x="390" y="317"/>
      <point x="370" y="331"/>
      <point x="346" y="331" type="curve" smooth="yes"/>
      <point x="322" y="331"/>
      <point x="302" y="317"/>
      <point x="302" y="270" type="curve" smooth="yes"/>
      <point x="302" y="224"/>
      <point x="322" y="209"/>
    </contour>
    <contour>
      <point x="125" y="-5" type="curve" smooth="yes"/>
      <point x="149" y="-5"/>
      <point x="170" y="11"/>
      <point x="170" y="56" type="curve" smooth="yes"/>
      <point x="170" y="102"/>
      <point x="149" y="116"/>
      <point x="125" y="116" type="curve" smooth="yes"/>
      <point x="101" y="116"/>
      <point x="81" y="102"/>
      <point x="81" y="56" type="curve" smooth="yes"/>
      <point x="81" y="11"/>
      <point x="101" y="-5"/>
    </contour>
    <contour>
      <point x="125" y="415" type="curve" smooth="yes"/>
      <point x="150" y="415"/>
      <point x="169" y="430"/>
      <point x="169" y="475" type="curve" smooth="yes"/>
      <point x="169" y="521"/>
      <point x="150" y="535"/>
      <point x="125" y="535" type="curve" smooth="yes"/>
      <point x="101" y="535"/>
      <point x="81" y="521"/>
      <point x="81" y="475" type="curve" smooth="yes"/>
      <point x="81" y="430"/>
      <point x="101" y="415"/>
    </contour>
  </outline>
</glyph>
<glyph name="narMod-georgian" format="2">
  <advance width="296"/>
  <unicode hex="10FC"/>
  <note>
uni10FC
</note>
  <outline>
    <contour>
      <point x="153" y="380" type="curve" smooth="yes"/>
      <point x="233" y="380"/>
      <point x="271" y="428"/>
      <point x="271" y="533" type="curve" smooth="yes"/>
      <point x="271" y="636"/>
      <point x="237" y="686"/>
      <point x="176" y="686" type="curve" smooth="yes"/>
      <point x="141" y="686"/>
      <point x="121" y="667"/>
      <point x="108" y="641" type="curve"/>
      <point x="107" y="641" type="line"/>
      <point x="109" y="660"/>
      <point x="109" y="682"/>
      <point x="109" y="700" type="curve" smooth="yes"/>
      <point x="109" y="729" type="line" smooth="yes"/>
      <point x="109" y="770"/>
      <point x="124" y="787"/>
      <point x="153" y="787" type="curve" smooth="yes"/>
      <point x="184" y="787"/>
      <point x="194" y="763"/>
      <point x="224" y="763" type="curve" smooth="yes"/>
      <point x="240" y="763"/>
      <point x="255" y="775"/>
      <point x="255" y="794" type="curve" smooth="yes"/>
      <point x="255" y="811"/>
      <point x="246" y="819"/>
      <point x="237" y="823" type="curve"/>
      <point x="230" y="813"/>
      <point x="219" y="809"/>
      <point x="205" y="809" type="curve" smooth="yes"/>
      <point x="182" y="809"/>
      <point x="172" y="820"/>
      <point x="137" y="820" type="curve" smooth="yes"/>
      <point x="83" y="820"/>
      <point x="35" y="785"/>
      <point x="35" y="712" type="curve" smooth="yes"/>
      <point x="35" y="533" type="line" smooth="yes"/>
      <point x="35" y="428"/>
      <point x="77" y="380"/>
    </contour>
    <contour>
      <point x="153" y="414" type="curve" smooth="yes"/>
      <point x="121" y="414"/>
      <point x="109" y="458"/>
      <point x="109" y="534" type="curve" smooth="yes"/>
      <point x="109" y="606"/>
      <point x="120" y="649"/>
      <point x="154" y="649" type="curve" smooth="yes"/>
      <point x="184" y="649"/>
      <point x="195" y="606"/>
      <point x="195" y="534" type="curve" smooth="yes"/>
      <point x="195" y="453"/>
      <point x="184" y="414"/>
    </contour>
  </outline>
</glyph>
<glyph name="aen-georgian" format="2">
  <advance width="433"/>
  <unicode hex="10FD"/>
  <outline>
    <contour>
      <point x="216" y="-12" type="curve" smooth="yes"/>
      <point x="328" y="-12"/>
      <point x="396" y="67"/>
      <point x="396" y="191" type="curve" smooth="yes"/>
      <point x="396" y="333"/>
      <point x="327" y="393"/>
      <point x="231" y="461" type="curve" smooth="yes"/>
      <point x="159" y="512"/>
      <point x="123" y="568"/>
      <point x="123" y="625" type="curve" smooth="yes"/>
      <point x="123" y="688"/>
      <point x="158" y="726"/>
      <point x="210" y="726" type="curve" smooth="yes"/>
      <point x="256" y="726"/>
      <point x="294" y="695"/>
      <point x="294" y="644" type="curve" smooth="yes"/>
      <point x="294" y="616"/>
      <point x="288" y="593"/>
      <point x="281" y="579" type="curve"/>
      <point x="292" y="576"/>
      <point x="302" y="573"/>
      <point x="313" y="573" type="curve" smooth="yes"/>
      <point x="340" y="573"/>
      <point x="371" y="595"/>
      <point x="371" y="652" type="curve" smooth="yes"/>
      <point x="371" y="718"/>
      <point x="310" y="772"/>
      <point x="210" y="772" type="curve" smooth="yes"/>
      <point x="113" y="772"/>
      <point x="50" y="712"/>
      <point x="50" y="609" type="curve" smooth="yes"/>
      <point x="50" y="515"/>
      <point x="105" y="452"/>
      <point x="190" y="391" type="curve" smooth="yes"/>
      <point x="270" y="333"/>
      <point x="323" y="296"/>
      <point x="323" y="180" type="curve" smooth="yes"/>
      <point x="323" y="95"/>
      <point x="282" y="39"/>
      <point x="216" y="39" type="curve" smooth="yes"/>
      <point x="153" y="39"/>
      <point x="118" y="91"/>
      <point x="118" y="164" type="curve" smooth="yes"/>
      <point x="118" y="199"/>
      <point x="122" y="235"/>
      <point x="135" y="260" type="curve"/>
      <point x="126" y="266"/>
      <point x="115" y="269"/>
      <point x="104" y="269" type="curve" smooth="yes"/>
      <point x="70" y="269"/>
      <point x="37" y="232"/>
      <point x="37" y="164" type="curve" smooth="yes"/>
      <point x="37" y="73"/>
      <point x="100" y="-12"/>
    </contour>
  </outline>
</glyph>
<glyph name="hardsign-georgian" format="2">
  <advance width="458"/>
  <unicode hex="10FE"/>
  <outline>
    <contour>
      <point x="89" y="548" type="curve" smooth="yes"/>
      <point x="53" y="548"/>
      <point x="42" y="527"/>
      <point x="42" y="497" type="curve"/>
      <point x="92" y="497"/>
      <point x="133" y="483"/>
      <point x="179" y="453" type="curve"/>
      <point x="94" y="391"/>
      <point x="46" y="300"/>
      <point x="44" y="207" type="curve" smooth="yes"/>
      <point x="41" y="78"/>
      <point x="109" y="-12"/>
      <point x="231" y="-12" type="curve" smooth="yes"/>
      <point x="342" y="-12"/>
      <point x="414" y="78"/>
      <point x="414" y="207" type="curve" smooth="yes"/>
      <point x="414" y="299"/>
      <point x="367" y="391"/>
      <point x="279" y="452" type="curve"/>
      <point x="325" y="482"/>
      <point x="366" y="497"/>
      <point x="416" y="497" type="curve"/>
      <point x="416" y="520"/>
      <point x="407" y="548"/>
      <point x="364" y="548" type="curve" smooth="yes"/>
      <point x="326" y="548"/>
      <point x="282" y="528"/>
      <point x="228" y="491" type="curve"/>
      <point x="173" y="528"/>
      <point x="125" y="548"/>
    </contour>
    <contour>
      <point x="228" y="415" type="curve"/>
      <point x="302" y="357"/>
      <point x="324" y="288"/>
      <point x="325" y="207" type="curve" smooth="yes"/>
      <point x="326" y="116"/>
      <point x="299" y="40"/>
      <point x="229" y="40" type="curve" smooth="yes"/>
      <point x="160" y="40"/>
      <point x="133" y="116"/>
      <point x="133" y="207" type="curve" smooth="yes"/>
      <point x="135" y="283"/>
      <point x="152" y="356"/>
    </contour>
  </outline>
</glyph>
<glyph name="labial-georgian" format="2">
  <advance width="464"/>
  <unicode hex="10FF"/>
  <outline>
    <contour>
      <point x="231" y="-12" type="curve" smooth="yes"/>
      <point x="356" y="-12"/>
      <point x="422" y="79"/>
      <point x="422" y="269" type="curve" smooth="yes"/>
      <point x="422" y="456"/>
      <point x="350" y="548"/>
      <point x="234" y="548" type="curve" smooth="yes"/>
      <point x="107" y="548"/>
      <point x="42" y="456"/>
      <point x="42" y="269" type="curve" smooth="yes"/>
      <point x="42" y="79"/>
      <point x="114" y="-12"/>
    </contour>
    <contour>
      <point x="233" y="39" type="curve" smooth="yes"/>
      <point x="159" y="39"/>
      <point x="131" y="117"/>
      <point x="131" y="269" type="curve" smooth="yes"/>
      <point x="131" y="418"/>
      <point x="158" y="496"/>
      <point x="232" y="496" type="curve" smooth="yes"/>
      <point x="307" y="496"/>
      <point x="333" y="418"/>
      <point x="333" y="269" type="curve" smooth="yes"/>
      <point x="333" y="117"/>
      <point x="307" y="39"/>
    </contour>
  </outline>
</glyph>
<glyph name="An-georgian" format="2">
  <advance width="474"/>
  <unicode hex="1C90"/>
  <anchor x="243" y="714" name="top"/>
  <outline>
    <contour>
      <point x="232" y="-10" type="curve" smooth="yes"/>
      <point x="340" y="-10"/>
      <point x="428" y="66"/>
      <point x="428" y="207" type="curve" smooth="yes"/>
      <point x="428" y="323"/>
      <point x="381" y="393"/>
      <point x="342" y="456" type="curve" smooth="yes"/>
      <point x="309" y="510"/>
      <point x="278" y="560"/>
      <point x="278" y="634" type="curve" smooth="yes"/>
      <point x="278" y="663"/>
      <point x="286" y="694"/>
      <point x="297" y="709" type="curve"/>
      <point x="287" y="718"/>
      <point x="277" y="725"/>
      <point x="256" y="725" type="curve" smooth="yes"/>
      <point x="217" y="725"/>
      <point x="189" y="693"/>
      <point x="189" y="634" type="curve" smooth="yes"/>
      <point x="189" y="560"/>
      <point x="223" y="491"/>
      <point x="262" y="431" type="curve" smooth="yes"/>
      <point x="302" y="369"/>
      <point x="331" y="303"/>
      <point x="331" y="207" type="curve" smooth="yes"/>
      <point x="331" y="94"/>
      <point x="294" y="43"/>
      <point x="232" y="43" type="curve" smooth="yes"/>
      <point x="172" y="43"/>
      <point x="135" y="95"/>
      <point x="135" y="207" type="curve" smooth="yes"/>
      <point x="135" y="263"/>
      <point x="147" y="305"/>
      <point x="168" y="340" type="curve"/>
      <point x="154" y="347"/>
      <point x="143" y="350"/>
      <point x="129" y="350" type="curve" smooth="yes"/>
      <point x="81" y="350"/>
      <point x="41" y="289"/>
      <point x="41" y="203" type="curve" smooth="yes"/>
      <point x="41" y="71"/>
      <point x="123" y="-10"/>
    </contour>
  </outline>
</glyph>
<glyph name="Ban-georgian" format="2">
  <advance width="496"/>
  <unicode hex="1C91"/>
  <outline>
    <contour>
      <point x="247" y="-10" type="curve" smooth="yes"/>
      <point x="378" y="-10"/>
      <point x="450" y="76"/>
      <point x="450" y="253" type="curve" smooth="yes"/>
      <point x="450" y="425"/>
      <point x="379" y="513"/>
      <point x="248" y="513" type="curve"/>
      <point x="120" y="513"/>
      <point x="46" y="432"/>
      <point x="46" y="253" type="curve" smooth="yes"/>
      <point x="46" y="76"/>
      <point x="124" y="-10"/>
    </contour>
    <contour>
      <point x="249" y="41" type="curve" smooth="yes"/>
      <point x="172" y="41"/>
      <point x="143" y="114"/>
      <point x="143" y="253" type="curve" smooth="yes"/>
      <point x="143" y="391"/>
      <point x="170" y="466"/>
      <point x="248" y="466" type="curve" smooth="yes"/>
      <point x="326" y="466"/>
      <point x="353" y="392"/>
      <point x="353" y="253" type="curve" smooth="yes"/>
      <point x="353" y="113"/>
      <point x="326" y="41"/>
    </contour>
    <contour>
      <point x="216" y="499" type="curve"/>
      <point x="296" y="499" type="line"/>
      <point x="310" y="516"/>
      <point x="316" y="531"/>
      <point x="316" y="552" type="curve" smooth="yes"/>
      <point x="316" y="627"/>
      <point x="231" y="628"/>
      <point x="231" y="681" type="curve" smooth="yes"/>
      <point x="231" y="691"/>
      <point x="233" y="701"/>
      <point x="239" y="712" type="curve"/>
      <point x="230" y="720"/>
      <point x="215" y="725"/>
      <point x="199" y="725" type="curve" smooth="yes"/>
      <point x="167" y="725"/>
      <point x="144" y="704"/>
      <point x="144" y="674" type="curve" smooth="yes"/>
      <point x="144" y="597"/>
      <point x="231" y="601"/>
      <point x="231" y="544" type="curve" smooth="yes"/>
      <point x="231" y="530"/>
      <point x="227" y="512"/>
    </contour>
  </outline>
</glyph>
<glyph name="Gan-georgian" format="2">
  <advance width="486"/>
  <unicode hex="1C92"/>
  <outline>
    <contour>
      <point x="242" y="-10" type="curve" smooth="yes"/>
      <point x="373" y="-10"/>
      <point x="445" y="76"/>
      <point x="445" y="249" type="curve" smooth="yes"/>
      <point x="445" y="396"/>
      <point x="401" y="472"/>
      <point x="308" y="491" type="curve"/>
      <point x="308" y="494" type="line"/>
      <point x="368" y="515"/>
      <point x="393" y="564"/>
      <point x="393" y="608" type="curve" smooth="yes"/>
      <point x="393" y="676"/>
      <point x="326" y="725"/>
      <point x="237" y="725" type="curve" smooth="yes"/>
      <point x="138" y="725"/>
      <point x="81" y="676"/>
      <point x="81" y="626" type="curve" smooth="yes"/>
      <point x="81" y="583"/>
      <point x="108" y="561"/>
      <point x="139" y="561" type="curve" smooth="yes"/>
      <point x="157" y="561"/>
      <point x="172" y="565"/>
      <point x="182" y="568" type="curve"/>
      <point x="178" y="577"/>
      <point x="171" y="593"/>
      <point x="171" y="619" type="curve" smooth="yes"/>
      <point x="171" y="651"/>
      <point x="195" y="679"/>
      <point x="237" y="679" type="curve" smooth="yes"/>
      <point x="276" y="679"/>
      <point x="303" y="653"/>
      <point x="303" y="609" type="curve" smooth="yes"/>
      <point x="303" y="568"/>
      <point x="288" y="521"/>
      <point x="214" y="508" type="curve" smooth="yes"/>
      <point x="106" y="489"/>
      <point x="41" y="412"/>
      <point x="41" y="249" type="curve" smooth="yes"/>
      <point x="41" y="76"/>
      <point x="119" y="-10"/>
    </contour>
    <contour>
      <point x="244" y="41" type="curve" smooth="yes"/>
      <point x="167" y="41"/>
      <point x="138" y="114"/>
      <point x="138" y="249" type="curve" smooth="yes"/>
      <point x="138" y="382"/>
      <point x="165" y="461"/>
      <point x="243" y="461" type="curve" smooth="yes"/>
      <point x="321" y="461"/>
      <point x="348" y="383"/>
      <point x="348" y="249" type="curve" smooth="yes"/>
      <point x="348" y="113"/>
      <point x="321" y="41"/>
    </contour>
  </outline>
</glyph>
<glyph name="Don-georgian" format="2">
  <advance width="769"/>
  <unicode hex="1C93"/>
  <outline>
    <contour>
      <point x="526" y="257" type="curve" smooth="yes"/>
      <point x="645" y="257"/>
      <point x="723" y="340"/>
      <point x="723" y="490" type="curve" smooth="yes"/>
      <point x="723" y="640"/>
      <point x="654" y="725"/>
      <point x="526" y="725" type="curve" smooth="yes"/>
      <point x="476" y="725"/>
      <point x="401" y="704"/>
      <point x="377" y="636" type="curve"/>
      <point x="374" y="636" type="line"/>
      <point x="351" y="704"/>
      <point x="288" y="725"/>
      <point x="233" y="725" type="curve" smooth="yes"/>
      <point x="121" y="725"/>
      <point x="46" y="643"/>
      <point x="46" y="485" type="curve" smooth="yes"/>
      <point x="46" y="305"/>
      <point x="129" y="208"/>
      <point x="278" y="152" type="curve"/>
      <point x="278" y="148" type="line"/>
      <point x="237" y="146"/>
      <point x="188" y="133"/>
      <point x="160" y="116" type="curve"/>
      <point x="176" y="82" type="line"/>
      <point x="220" y="103"/>
      <point x="270" y="113"/>
      <point x="334" y="113" type="curve" smooth="yes"/>
      <point x="428" y="113"/>
      <point x="523" y="73"/>
      <point x="523" y="-4" type="curve"/>
      <point x="559" y="-4"/>
      <point x="584" y="11"/>
      <point x="584" y="45" type="curve" smooth="yes"/>
      <point x="584" y="100"/>
      <point x="527" y="147"/>
      <point x="412" y="173" type="curve" smooth="yes"/>
      <point x="255" y="209"/>
      <point x="143" y="271"/>
      <point x="143" y="485" type="curve" smooth="yes"/>
      <point x="143" y="610"/>
      <point x="172" y="674"/>
      <point x="238" y="674" type="curve" smooth="yes"/>
      <point x="314" y="674"/>
      <point x="329" y="619"/>
      <point x="329" y="521" type="curve" smooth="yes"/>
      <point x="329" y="490" type="line" smooth="yes"/>
      <point x="329" y="340"/>
      <point x="404" y="257"/>
    </contour>
    <contour>
      <point x="525" y="674" type="curve" smooth="yes"/>
      <point x="599" y="674"/>
      <point x="627" y="612"/>
      <point x="627" y="490" type="curve" smooth="yes"/>
      <point x="627" y="374"/>
      <point x="597" y="308"/>
      <point x="525" y="308" type="curve" smooth="yes"/>
      <point x="452" y="308"/>
      <point x="421" y="375"/>
      <point x="421" y="490" type="curve" smooth="yes"/>
      <point x="421" y="612"/>
      <point x="448" y="674"/>
    </contour>
  </outline>
</glyph>
